<svg xmlns="http://www.w3.org/2000/svg" xmlns:xlink="http://www.w3.org/1999/xlink" width="32" height="26" viewBox="0 0 32 26" fill="none"><g opacity="1" transform="translate(0 0)  rotate(0 16 13)"><g opacity="1" transform="translate(0 0)  rotate(0 16 13)"><path id="分组 51" fill-rule="evenodd" style="fill:#FFFFFF" transform="translate(10.346521145975455 4.265624999999997)  rotate(0 4.976807639836287 4.78359375)" opacity="1" d="M9.95 1.56C8.58 1.46 7.27 0.91 6.29 0C5.24 0.98 3.78 1.56 2.18 1.56L0 1.56L0 4.94C0 7.5 2.23 9.57 4.98 9.57C7.73 9.57 9.95 7.5 9.95 4.96L9.95 1.56Z M5.65348 2.84125L6.57348 2.84125L6.57348 3.70125L7.44348 3.70125L7.44348 2.84125L8.36348 2.84125L8.36348 2.03125L5.65348 2.03125L5.65348 2.84125Z M4.30345 2.03125L1.59345 2.03125L1.59345 2.84125L2.51345 2.84125L2.51345 3.70125L3.38345 3.70125L3.38345 2.84125L4.30345 2.84125L4.30345 2.03125Z " /><path id="路径 351" fill-rule="evenodd" style="fill:#F8D060" transform="translate(17.200545702592084 1.1781249999999903)  rotate(0 1.5497953615279707 1.9195312500000026)" opacity="1" d="M3.1,3.01C3.1,1.69 2.29,0.55 1.11,0C0.98,0.93 0.59,1.77 0,2.5C0.83,3.25 1.92,3.74 3.1,3.84L3.1,3.01Z " /><path id="路径 352" fill-rule="evenodd" style="fill:#F8D060" transform="translate(10.346521145975439 0.8124999999999994)  rotate(0 3.557980900409275 2.1125)" opacity="1" d="M7.12,0.08C6.85,0.02 6.59,0 6.33,0L3.62,0C1.62,0 0,1.5 0,3.37L0,4.22L2.16,4.22C4.74,4.22 6.85,2.4 7.12,0.08Z " /><path id="路径 353" fill-rule="evenodd" style="fill:#F8D060" transform="translate(16.19645293315146 17.18437499999997)  rotate(0 1.287858117326058 1.3406249999999982)" opacity="1" d="M2.58,1.87L1.57,0L1.42,0L0,2.68L2.58,1.87Z " /><path id="路径 354" fill-rule="evenodd" style="fill:#FFFFFF" transform="translate(21.173260572987715 5.849999999999988)  rotate(0 0.2401091405184222 1.4320312500000016)" opacity="1" d="M0.48,0.22C0.48,0.1 0.37,0 0.24,0L0,0L0,2.86C0.28,2.7 0.48,2.44 0.48,2.11L0.48,0.22Z " /><path id="分组 52" fill-rule="evenodd" style="fill:#FFFFFF" transform="translate(0.8731241473397238 12.146874999999984)  rotate(0 3.6343792633014917 1.828124999999999)" opacity="1" d="M0 0L0 2.97L3.82 2.97L4.56 3.66L4.56 2.97L7.27 2.97L7.27 0L7.25 0L0 0Z M1.7213 0.954687L0.851296 0.954687L0.851296 1.76469L1.7213 1.76469L1.7213 0.954687Z M3.22744 0.954687L2.35744 0.954687L2.35744 1.76469L3.22744 1.76469L3.22744 0.954687Z M4.88637 0.954687L4.01637 0.954687L4.01637 1.76469L4.88637 1.76469L4.88637 0.954687Z M6.37068 0.954687L5.50068 0.954687L5.50068 1.76469L6.37068 1.76469L6.37068 0.954687Z " /><path id="路径 360" fill-rule="evenodd" style="fill:#F8D060" transform="translate(11.874488403819926 17.18437499999997)  rotate(0 1.2987721691677996 1.3406249999999982)" opacity="1" d="M1.16,0L1,0L0,1.87L2.6,2.68L1.16,0Z " /><path id="路径 361" fill-rule="evenodd" style="fill:#FFFFFF" transform="translate(8.993178717598912 5.849999999999988)  rotate(0 0.24010914051841603 1.4320312500000016)" opacity="1" d="M0,0.22L0,2.11C0,2.44 0.2,2.72 0.48,2.86L0.48,0L0.24,0C0.11,0 0,0.1 0,0.22Z " /><path id="路径 362" fill-rule="evenodd" style="fill:#F8D060" transform="translate(15.759890859481589 20.271874999999984)  rotate(0 0.9167803547066816 2.4578125000000033)" opacity="1" d="M1.83,4.92L1.83,0L0,0.57L0,4.92L1.83,4.92Z " /><path id="路径 363" fill-rule="evenodd" style="fill:#71B9E6" transform="translate(18.466575716234654 17.18437499999997)  rotate(0 2.946793997271485 4.001562500000004)" opacity="1" d="M0.26,0L1.53,2.36L0,2.82L0,8L5.89,8L5.89,4.63C5.89,2.07 3.67,0 0.92,0L0.26,0Z " /><path id="路径 364" fill-rule="evenodd" style="fill:#71B9E6" transform="translate(6.286493860845849 17.18437499999997)  rotate(0 2.946793997271485 4.001562500000004)" opacity="1" d="M4.98,0C2.23,0 0,2.07 0,4.63L0,8L5.89,8L5.89,2.82L4.37,2.36L5.63,0L4.98,0Z " /><path id="分组 53" fill-rule="evenodd" style="fill:#E2746C" transform="translate(23.87994542974077 7.109374999999996)  rotate(0 3.623465211459749 4.489062499999997)" opacity="1" d="M2.1 8.29L7.25 8.29L7.25 0L0 0L0 8.29L1.35 8.29L1.35 8.98L2.1 8.29Z M4.0569 6.27656L3.1869 6.27656L3.1869 7.08656L4.0569 7.08656L4.0569 6.27656Z M5.41356 5.03625L5.41356 1.70625L1.83356 1.70625L1.83356 3.37625L2.70356 3.37625L2.70356 2.51625L4.54356 2.51625L4.54356 4.22625L3.18356 4.22625L3.18356 5.88625L4.06356 5.88625L4.06356 5.03625L5.41356 5.03625Z " /><path id="路径 368" fill-rule="evenodd" style="fill:#F8D060" transform="translate(13.053206002728514 20.271874999999984)  rotate(0 0.9167803547066876 2.4578125000000033)" opacity="1" d="M1.83,4.92L1.83,0.57L0,0L0,4.92L1.83,4.92Z " /><path id="路径 369" fill-rule="evenodd" style="fill:#FFFFFF" transform="translate(13.729877216916789 14.462499999999988)  rotate(0 1.5934515688949535 2.589843749999998)" opacity="1" d="M1.59,0.2C1.05,0.2 0.5,0.12 0,0L0,2.21L1.59,5.18L3.19,2.21L3.19,0C2.68,0.14 2.14,0.2 1.59,0.2Z " /><path id="分组 54" fill-rule="evenodd" style="fill:#222B33" transform="translate(5.413369713506124 0)  rotate(0 9.909959072305586 13)" opacity="1" d="M0 26L19.82 26L19.82 21.82C19.82 18.81 17.2 16.37 13.97 16.37L12.38 16.37L12.38 14.16C14.25 13.35 15.61 11.62 15.74 9.59C16.52 9.4 17.11 8.75 17.11 7.96L17.11 6.07C17.11 5.5 16.61 5.04 16 5.04L15.76 5.04L15.76 4.18C15.76 1.87 13.75 0 11.26 0L8.56 0C6.07 0 4.06 1.87 4.06 4.18L4.06 5.04L3.82 5.04C3.21 5.04 2.71 5.5 2.71 6.07L2.71 7.96C2.71 8.75 3.3 9.4 4.08 9.59C4.23 11.62 5.57 13.35 7.44 14.16L7.44 16.37L5.85 16.37C2.62 16.37 0 18.81 0 21.82L0 26Z M15.7599 5.85L15.7599 8.71C16.0399 8.57 16.2399 8.29 16.2399 7.96L16.2399 6.07C16.2399 5.95 16.1299 5.85 15.9999 5.85L15.7599 5.85Z M4.05981 8.71L4.05981 5.85L3.81981 5.85C3.68981 5.85 3.57981 5.95 3.57981 6.07L3.57981 7.96C3.57981 8.29 3.77981 8.55 4.05981 8.71Z M12.8972 1.15781C12.7472 2.08781 12.3572 2.94781 11.7872 3.65781C12.6172 4.44781 13.7072 4.91781 14.8872 5.01781L14.8872 4.18781C14.8872 2.86781 14.0772 1.72781 12.8972 1.15781Z M4.91132 4.1825L4.91132 5.0325L7.09132 5.0325C9.67132 5.0325 11.7913 3.2125 12.0513 0.8925C11.8113 0.8325 11.5213 0.8125 11.2613 0.8125L8.56132 0.8125C6.55132 0.8125 4.93132 2.3125 4.91132 4.1825Z M9.91315 13.8759C12.6632 13.8759 14.8832 11.8059 14.8832 9.24594L14.8832 5.84594C13.5132 5.74594 12.2032 5.19594 11.2232 4.28594C10.1732 5.23594 8.71315 5.84594 7.11315 5.84594L4.93315 5.84594L4.93315 9.22594C4.93315 11.7659 7.16315 13.8759 9.91315 13.8759Z M12.3531 17.1641L12.2231 17.1641L10.7831 19.8441L13.3631 19.0541L12.3531 17.1641Z M6.46112 19.0744L9.04112 19.8644L7.60112 17.1844L7.46112 17.1844L6.46112 19.0744Z M6.76312 20.0044L5.24312 19.5444L6.50312 17.1844L5.85312 17.1844C3.10312 17.1844 0.873124 19.2544 0.873124 21.8144L0.873124 25.1844L6.76312 25.1844L6.76312 20.0044Z M9.46984 20.8419L7.63984 20.2719L7.63984 25.1919L9.46984 25.1919L9.46984 20.8419Z M9.90651 19.6425L11.5065 16.6725L11.5065 14.4625C10.9965 14.5825 10.4565 14.6625 9.90651 14.6625C9.36651 14.6625 8.81651 14.6025 8.31651 14.4625L8.31651 16.6725L9.90651 19.6425Z M12.1765 20.2719L10.3465 20.8419L10.3465 25.1919L12.1765 25.1919L12.1765 20.2719Z M18.9432 25.1844L18.9432 21.8144C18.9432 19.2544 16.7232 17.1844 13.9732 17.1844L13.3132 17.1844L14.5832 19.5444L13.0532 20.0044L13.0532 25.1844L18.9432 25.1844Z " /><path id="路径 383" fill-rule="evenodd" style="fill:#222B33" transform="translate(11.939972714870402 6.296874999999996)  rotate(0 1.353342428376531 0.8328124999999985)" opacity="1" d="M0.92,0.81L0.92,1.67L1.79,1.67L1.79,0.81L2.71,0.81L2.71,0L0,0L0,0.81L0.92,0.81Z " /><path id="路径 384" fill-rule="evenodd" style="fill:#222B33" transform="translate(16 6.296874999999996)  rotate(0 1.3533424283765374 0.8328124999999985)" opacity="1" d="M1.79,1.67L1.79,0.81L2.71,0.81L2.71,0L0,0L0,0.81L0.92,0.81L0.92,1.67L1.79,1.67Z " /><path id="分组 55" fill-rule="evenodd" style="fill:#222B33" transform="translate(0 11.334374999999985)  rotate(0 4.496589358799448 3.209375000000001)" opacity="1" d="M8.99 4.59L8.99 0L0 0L0 4.59L4.32 4.59L6.29 6.42L6.29 4.59L8.99 4.59Z M5.3913 4.43219L5.3913 4.45219L5.4113 4.45219L5.3913 4.43219Z M5.3913 3.76219L8.1013 3.76219L8.1013 0.792188L0.851296 0.792188L0.851296 3.76219L4.6713 3.76219L5.3913 4.43219L5.3913 3.76219Z " /><path id="路径 387" fill-rule="evenodd" style="fill:#222B33" transform="translate(3.2305593451569017 13.101562499999991)  rotate(0 0.4365620736698495 0.4062499999999997)" opacity="1" d="M0,0.81L0.87,0.81L0.87,0L0,0L0,0.81Z " /><path id="路径 388" fill-rule="evenodd" style="fill:#222B33" transform="translate(4.889495225102335 13.101562499999991)  rotate(0 0.4365620736698495 0.4062499999999997)" opacity="1" d="M0,0.81L0.87,0.81L0.87,0L0,0L0,0.81Z " /><path id="路径 389" fill-rule="evenodd" style="fill:#222B33" transform="translate(1.7244201909959256 13.101562499999991)  rotate(0 0.4365620736698495 0.4062499999999997)" opacity="1" d="M0,0.81L0.87,0.81L0.87,0L0,0L0,0.81Z " /><path id="路径 390" fill-rule="evenodd" style="fill:#222B33" transform="translate(6.373806275579826 13.101562499999991)  rotate(0 0.4365620736698495 0.4062499999999997)" opacity="1" d="M0,0.81L0.87,0.81L0.87,0L0,0L0,0.81Z " /><path id="分组 56" fill-rule="evenodd" style="fill:#222B33" transform="translate(23.00682128240109 6.296874999999996)  rotate(0 4.496589358799456 5.870312499999999)" opacity="1" d="M1.35 9.91L1.35 11.74L3.32 9.91L8.99 9.91L8.99 0L0 0L0 9.91L1.35 9.91Z M0.873124 9.1025L2.22312 9.1025L2.22312 9.7925L2.97312 9.1025L8.12312 9.1025L8.12312 0.8125L0.873124 0.8125L0.873124 9.1025Z " /><path id="路径 393" fill-rule="evenodd" style="fill:#222B33" transform="translate(27.0668485675307 13.385937499999994)  rotate(0 0.4365620736698495 0.4062499999999997)" opacity="1" d="M0,0.81L0.87,0.81L0.87,0L0,0L0,0.81Z " /><path id="路径 394" fill-rule="evenodd" style="fill:#222B33" transform="translate(25.71350613915414 8.81562499999999)  rotate(0 1.7899045020463806 2.0921875000000014)" opacity="1" d="M3.58,3.33L3.58,0L0,0L0,1.67L0.87,1.67L0.87,0.81L2.71,0.81L2.71,2.52L1.35,2.52L1.35,4.18L2.23,4.18L2.23,3.33L3.58,3.33Z " /></g></g></svg>