<svg xmlns="http://www.w3.org/2000/svg" xmlns:xlink="http://www.w3.org/1999/xlink" width="32" height="26" viewBox="0 0 32 26" fill="none"><g opacity="1" transform="translate(0 0)  rotate(0 16 13)"><g opacity="1" transform="translate(0 0)  rotate(0 16 13)"><path id="路径 537" fill-rule="evenodd" style="fill:#71B9E6" transform="translate(13.821989528795832 0.898876404494376)  rotate(0 2.178010471204189 0.5280898876404484)" opacity="1" d="M3.48,0L0.88,0C0.4,0 0,0.43 0,0.94L0,1.06L4.36,1.06L4.36,0.94C4.36,0.43 3.96,0 3.48,0Z " /><path id="路径 538" fill-rule="evenodd" style="fill:#71B9E6" transform="translate(20.314136125654443 12.06741573033708)  rotate(0 2.178010471204189 2.337078651685395)" opacity="1" d="M4.36,4.67L4.36,2.52L2.01,0C0.88,0.09 0,1.1 0,2.34L0,4.67L4.36,4.67Z " /><path id="分组 74" fill-rule="evenodd" style="fill:#71B9E6" transform="translate(16.418848167539252 9.258426966292136)  rotate(0 2.178010471204189 3.7303370786516843)" opacity="1" d="M3.06 7.46L3.06 5.12C3.06 4.02 3.58 3.06 4.36 2.47L4.36 2.34C4.36 1.1 3.48 0.09 2.35 0L0 2.52L0 7.46L3.06 7.46Z M2.17801 2.81011L3.47801 2.81011L3.47801 1.91011L2.17801 1.91011L2.17801 2.81011Z " /><path id="路径 541" fill-rule="evenodd" style="fill:#FFFFFF" transform="translate(13.821989528795806 2.853932584269655)  rotate(0 2.178010471204189 2.0563558098233115)" opacity="1" d="M4.36,0L0,0L0,1.78C0,3.06 0.98,4.11 2.18,4.11C3.37,4.13 4.36,3.08 4.36,1.78L4.36,0Z " /><path id="路径 542" fill-rule="evenodd" style="fill:#FFFFFF" transform="translate(15.76963350785338 7.865168539325838)  rotate(0 0.23036649214659555 0.24719101123595383)" opacity="1" d="M0,0.49L0.46,0.49L0.46,0C0.38,0 0.31,0 0.23,0C0.15,0.02 0.08,0 0,0L0,0.49Z " /><path id="分组 75" fill-rule="evenodd" style="fill:#71B9E6" transform="translate(25.507853403141382 12.06741573033708)  rotate(0 2.178010471204189 2.3370786516853888)" opacity="1" d="M4.36 4.67L4.36 2.34C4.36 1.1 3.48 0.09 2.35 0L0 2.52L0 4.67L4.36 4.67Z M2.17801 2.78764L3.47801 2.78764L3.47801 1.88764L2.17801 1.88764L2.17801 2.78764Z " /><path id="路径 545" fill-rule="evenodd" style="fill:#FFFFFF" transform="translate(14.408376963350772 9.280898876404489)  rotate(0 1.5916230366492126 0.8426966292134833)" opacity="1" d="M0,0L1.59,1.69L3.18,0L0,0Z " /><path id="路径 546" fill-rule="evenodd" style="fill:#71B9E6" transform="translate(22.91099476439792 3.685393258426962)  rotate(0 2.178010471204189 0.5280898876404484)" opacity="1" d="M3.48,0L0.88,0C0.4,0 0,0.43 0,0.94L0,1.06L4.36,1.06L4.36,0.94C4.36,0.43 3.96,0 3.48,0Z " /><path id="路径 547" fill-rule="evenodd" style="fill:#FFFFFF" transform="translate(24.858638743455472 10.651685393258415)  rotate(0 0.23036649214659555 0.24719101123595383)" opacity="1" d="M0,0.49L0.46,0.49L0.46,0C0.38,0 0.31,0 0.23,0C0.15,0.02 0.08,0 0,0L0,0.49Z " /><path id="路径 548" fill-rule="evenodd" style="fill:#FFFFFF" transform="translate(23.49738219895285 12.06741573033708)  rotate(0 1.5916230366492126 0.8426966292134833)" opacity="1" d="M0,0L1.59,1.69L3.18,0L0,0Z " /><path id="路径 549" fill-rule="evenodd" style="fill:#FFFFFF" transform="translate(22.91099476439792 5.6629213483146055)  rotate(0 2.178010471204189 2.056179775280898)" opacity="1" d="M4.36,0L0,0L0,1.78C0,3.06 0.98,4.11 2.18,4.11C3.37,4.11 4.36,3.06 4.36,1.78L4.36,0Z " /><path id="路径 550" fill-rule="evenodd" style="fill:#FFFFFF" transform="translate(5.319371727748685 12.06741573033708)  rotate(0 1.5916230366492183 0.8426966292134833)" opacity="1" d="M0,0L1.59,1.69L3.18,0L0,0Z " /><path id="路径 551" fill-rule="evenodd" style="fill:#E2746C" transform="translate(6.031413612565444 21.820224719101127)  rotate(0 4.125654450261778 1.6404494382022479)" opacity="1" d="M0,3.28L8.25,3.28L8.25,0L0,0L0,3.28Z " /><path id="路径 552" fill-rule="evenodd" style="fill:#71B9E6" transform="translate(2.136125654450271 12.06741573033708)  rotate(0 2.178010471204189 2.3370786516853888)" opacity="1" d="M2.01,0C0.88,0.09 0,1.1 0,2.34L0,4.67L4.36,4.67L4.36,2.52L2.01,0Z " /><path id="路径 553" fill-rule="evenodd" style="fill:#E2746C" transform="translate(17.71727748691099 21.820224719101127)  rotate(0 4.125654450261778 1.6404494382022479)" opacity="1" d="M0,3.28L8.25,3.28L8.25,0L0,0L0,3.28Z " /><path id="路径 554" fill-rule="evenodd" style="fill:#F8D060" transform="translate(0.8376963350785336 17.640449438202236)  rotate(0 15.16230366492145 0.24719101123596027)" opacity="1" d="M0.46,0.49L29.86,0.49L30.32,0.49L30.32,0L0,0L0,0.49L0.46,0.49Z " /><path id="路径 555" fill-rule="evenodd" style="fill:#E2746C" transform="translate(2.1361256544502467 19.03370786516854)  rotate(0 13.863874345549734 3.03370786516854)" opacity="1" d="M0,6.07L3.06,6.07L3.06,1.89L12.98,1.89L12.98,6.07L14.74,6.07L14.74,1.89L24.67,1.89L24.67,6.07L27.73,6.07L27.73,0L25.97,0L25.97,0.94L25.13,0.94L25.13,0L14.28,0L14.28,0.94L13.45,0.94L13.45,0L2.6,0L2.6,0.94L1.76,0.94L1.76,0L0,0L0,6.07Z " /><path id="路径 556" fill-rule="evenodd" style="fill:#FFFFFF" transform="translate(6.6806282722513 10.651685393258415)  rotate(0 0.23036649214659555 0.24719101123595383)" opacity="1" d="M0,0.49L0.46,0.49L0.46,0C0.38,0 0.31,0 0.23,0C0.15,0 0.08,0 0,0L0,0.49Z " /><path id="路径 557" fill-rule="evenodd" style="fill:#71B9E6" transform="translate(4.73298429319372 3.685393258426962)  rotate(0 2.178010471204189 0.5280898876404484)" opacity="1" d="M3.48,0L0.88,0C0.4,0 0,0.43 0,0.94L0,1.06L4.36,1.06L4.36,0.94C4.36,0.43 3.96,0 3.48,0Z " /><path id="路径 558" fill-rule="evenodd" style="fill:#71B9E6" transform="translate(7.3298429319371685 12.06741573033708)  rotate(0 1.5287958115183262 2.3370786516853888)" opacity="1" d="M3.06,1.89L3.06,0.2C2.83,0.09 2.6,0.02 2.35,0L0,2.52L0,4.67L3.06,4.67L3.06,2.79L2.18,2.79L2.18,1.89L3.06,1.89Z " /><path id="路径 559" fill-rule="evenodd" style="fill:#71B9E6" transform="translate(11.225130890052359 9.280898876404477)  rotate(0 2.178010471204189 3.7303370786516843)" opacity="1" d="M2.01,0C0.88,0.09 0,1.1 0,2.34L0,7.46L4.36,7.46L4.36,2.52L2.01,0Z " /><path id="路径 560" fill-rule="evenodd" style="fill:#FFFFFF" transform="translate(4.73298429319372 5.6629213483146055)  rotate(0 2.178010471204189 2.056179775280898)" opacity="1" d="M4.36,0L0,0L0,1.78C0,3.06 0.98,4.11 2.18,4.11C3.37,4.11 4.36,3.06 4.36,1.78L4.36,0Z " /><path id="分组 76" fill-rule="evenodd" style="fill:#222B33" transform="translate(0 0)  rotate(0 16 13)" opacity="1" d="M1.3 14.4L1.3 16.74L0 16.74L0 19.03L1.3 19.03L1.3 26L30.7 26L30.7 19.03L32 19.03L32 16.74L30.7 16.74L30.7 14.4C30.7 12.63 29.34 11.17 27.69 11.17L26.16 11.17L26.16 10.47C27.29 10 28.1 8.83 28.1 7.44L28.1 4.65C28.1 3.64 27.33 2.81 26.39 2.81L23.79 2.81C22.85 2.81 22.07 3.64 22.07 4.65L22.07 7.44C22.07 8.81 22.89 10 24.02 10.47L24.02 11.17L22.49 11.17C22.18 11.17 21.88 11.21 21.59 11.3C21.45 9.66 20.15 8.38 18.6 8.38L17.07 8.38L17.07 7.66C18.2 7.19 19.02 6.02 19.02 4.63L19.02 1.84C19.02 0.83 18.24 0 17.3 0L14.7 0C13.76 0 12.98 0.83 12.98 1.84L12.98 4.63C12.98 6 13.8 7.19 14.93 7.66L14.93 8.36L13.4 8.36C11.83 8.36 10.53 9.64 10.41 11.3C10.14 11.21 9.82 11.15 9.51 11.15L7.98 11.15L7.98 10.45C9.11 9.98 9.93 8.81 9.93 7.42L9.93 4.63C9.93 3.62 9.15 2.79 8.21 2.79L5.61 2.79C4.67 2.79 3.9 3.62 3.9 4.63L3.9 7.44C3.9 8.81 4.71 10 5.84 10.47L5.84 11.17L4.31 11.17C2.66 11.17 1.3 12.63 1.3 14.4Z M25.5079 14.5874L25.5079 16.7374L29.8679 16.7374L29.8679 14.4074C29.8679 13.1674 28.9879 12.1574 27.8579 12.0674L25.5079 14.5874Z M22.911 4.74539L27.271 4.74539L27.271 4.62539C27.271 4.11539 26.871 3.68539 26.391 3.68539L23.791 3.68539C23.311 3.68539 22.911 4.11539 22.911 4.62539L22.911 4.74539Z M25.091 9.75045C26.281 9.75045 27.271 8.70045 27.271 7.42045L27.271 5.64045L22.911 5.64045L22.911 7.44045C22.911 8.72045 23.891 9.77045 25.091 9.75045Z M25.0886 10.6517C25.0086 10.6517 24.9386 10.6517 24.8586 10.6517L24.8586 11.1417L25.3186 11.1417L25.3186 10.6517C25.2386 10.6517 25.1686 10.6717 25.0886 10.6517Z M23.4974 12.0674L25.0874 13.7774L26.6774 12.0674L23.4974 12.0674Z M20.3141 14.4074L20.3141 16.7374L24.6741 16.7374L24.6741 14.5874L22.3241 12.0674C21.2141 12.1574 20.3141 13.1674 20.3141 14.4074Z M16.4188 11.8009L16.4188 16.7409L19.4788 16.7409L19.4788 14.4009C19.4788 13.3009 19.9988 12.3409 20.7788 11.7509L20.7788 11.6209C20.7788 10.3809 19.8988 9.3709 18.7688 9.2809L16.4188 11.8009Z M13.822 1.95888L18.182 1.95888L18.182 1.83888C18.182 1.32888 17.782 0.898876 17.302 0.898876L14.702 0.898876C14.222 0.898876 13.822 1.32888 13.822 1.83888L13.822 1.95888Z M16.002 6.96393C17.192 6.96393 18.182 5.91393 18.182 4.63393L18.182 2.85393L13.822 2.85393L13.822 4.63393C13.822 5.93393 14.802 6.98393 16.002 6.96393Z M15.9996 7.86517C15.9196 7.86517 15.8496 7.86517 15.7696 7.86517L15.7696 8.35517L16.2296 8.35517L16.2296 7.86517C16.1496 7.86517 16.0796 7.88517 15.9996 7.86517Z M14.4084 9.2809L15.9984 10.9909L17.5884 9.2809L14.4084 9.2809Z M11.2251 16.7409L15.5851 16.7409L15.5851 11.8009L13.2351 9.2809C12.1051 9.3709 11.2251 10.3809 11.2251 11.6209L11.2251 16.7409Z M10.3898 12.2674C10.1798 12.1574 9.92984 12.0874 9.67984 12.0674L7.32984 14.5874L7.32984 16.7374L10.3898 16.7374L10.3898 14.8574L9.50984 14.8574L9.50984 13.9574L10.3898 13.9574L10.3898 12.2674Z M4.73298 4.74539L9.09298 4.74539L9.09298 4.62539C9.09298 4.11539 8.69298 3.68539 8.21298 3.68539L5.61298 3.68539C5.13298 3.68539 4.73298 4.11539 4.73298 4.62539L4.73298 4.74539Z M6.91298 9.75045C8.10298 9.75045 9.09298 8.70045 9.09298 7.42045L9.09298 5.64045L4.73298 5.64045L4.73298 7.44045C4.73298 8.72045 5.71298 9.75045 6.91298 9.75045Z M6.91063 10.6517C6.83063 10.6517 6.76063 10.6517 6.68063 10.6517L6.68063 11.1417L7.14063 11.1417L7.14063 10.6517C7.06063 10.6517 6.99063 10.6517 6.91063 10.6517Z M5.31937 12.0674L6.90937 13.7774L8.49937 12.0674L5.31937 12.0674Z M2.13613 16.7374L6.49613 16.7374L6.49613 14.5874L4.14613 12.0674C3.01613 12.1574 2.13613 13.1674 2.13613 14.4074L2.13613 16.7374Z M14.2814 21.8202L6.03141 21.8202L6.03141 25.1002L14.2814 25.1002L14.2814 21.8202Z M25.9673 21.8202L17.7173 21.8202L17.7173 25.1002L25.9673 25.1002L25.9673 21.8202Z M2.13613 25.1037L5.19613 25.1037L5.19613 20.9237L15.1161 20.9237L15.1161 25.1037L16.8761 25.1037L16.8761 20.9237L26.8061 20.9237L26.8061 25.1037L29.8661 25.1037L29.8661 19.0337L28.1061 19.0337L28.1061 19.9737L27.2661 19.9737L27.2661 19.0337L16.4161 19.0337L16.4161 19.9737L15.5861 19.9737L15.5861 19.0337L4.73613 19.0337L4.73613 19.9737L3.89613 19.9737L3.89613 19.0337L2.13613 19.0337L2.13613 25.1037Z M0.837696 17.6404L0.837696 18.1304L1.2977 18.1304L30.6977 18.1304L31.1577 18.1304L31.1577 17.6404L0.837696 17.6404Z " /><path id="路径 584" fill-rule="evenodd" style="fill:#222B33" transform="translate(18.596858638743445 11.168539325842701)  rotate(0 0.6492146596858636 0.4494382022471913)" opacity="1" d="M0,0.9L1.3,0.9L1.3,0L0,0L0,0.9Z " /><path id="路径 585" fill-rule="evenodd" style="fill:#222B33" transform="translate(27.685863874345547 13.95505617977528)  rotate(0 0.6492146596858636 0.4494382022471913)" opacity="1" d="M0,0.9L1.3,0.9L1.3,0L0,0L0,0.9Z " /></g></g></svg>