<svg xmlns="http://www.w3.org/2000/svg" xmlns:xlink="http://www.w3.org/1999/xlink" width="24" height="24" viewBox="0 0 24 24" fill="none"><g opacity="1" transform="translate(0 0)  rotate(0 12 12)"><path id="right_line" fill-rule="evenodd" style="fill:#A6A6A6" transform="translate(3.5147184859626446 8.999999403953552)  rotate(315 3 3)" opacity="1" d="M0.6,4.8C0.27,4.8 0,5.07 0,5.4C0,5.73 0.27,6 0.6,6L5.4,6C5.73,6 6,5.73 6,5.4L6,0.6C6,0.27 5.73,0 5.4,0C5.07,0 4.8,0.27 4.8,0.6L4.8,4.8L0.6,4.8Z " /><path id="right_line" fill-rule="evenodd" style="fill:#A6A6A6" transform="translate(7.51 9)  rotate(315 3 3)" opacity="1" d="M0.6,4.8C0.27,4.8 0,5.07 0,5.4C0,5.73 0.27,6 0.6,6L5.4,6C5.73,6 6,5.73 6,5.4L6,0.6C6,0.27 5.73,0 5.4,0C5.07,0 4.8,0.27 4.8,0.6L4.8,4.8L0.6,4.8Z " /></g></svg>