<svg xmlns="http://www.w3.org/2000/svg" xmlns:xlink="http://www.w3.org/1999/xlink" width="25" height="25" viewBox="0 0 25 25" fill="none"><g opacity="1" transform="translate(0.091796875 0.092041015625)  rotate(0 12 12)"><g opacity="1" transform="translate(0 0)  rotate(0 12 12)"><path id="bg" fill-rule="evenodd" style="fill:#FFFFFF" transform="translate(0 0)  rotate(0 12 12)" opacity="0.01" d="M0,24L24,24L24,0L0,0L0,24Z " /><path id="MingCute.com" fill-rule="evenodd" style="fill:#F2F4F6" transform="translate(8.82031 11.7793)  rotate(0 3.186745 0.4643500000000005)" opacity="1" d="M0.12 0.0098L0 0.0098L0 0.7198L0.09 0.7198L0.09 0.4398L0.08 0.1498L0.32 0.7198L0.39 0.7198L0.62 0.1498L0.61 0.4398L0.61 0.7198L0.71 0.7198L0.71 0.0098L0.59 0.0098L0.35 0.5898L0.12 0.0098Z M0.95669 0.1924L0.86669 0.1924L0.86669 0.7224L0.95669 0.7224L0.95669 0.1924Z M0.86939 0.09C0.87939 0.1 0.89939 0.1 0.90939 0.1C0.92939 0.1 0.93939 0.1 0.94939 0.09C0.95939 0.08 0.96939 0.07 0.96939 0.05C0.96939 0.04 0.95939 0.03 0.94939 0.02C0.93939 0.01 0.92939 0 0.90939 0C0.89939 0 0.87939 0.01 0.86939 0.02C0.85939 0.03 0.85939 0.04 0.85939 0.05C0.85939 0.07 0.85939 0.08 0.86939 0.09Z M1.43209 0.3726L1.43209 0.7226L1.52209 0.7226L1.52209 0.3726C1.51209 0.2426 1.46209 0.1826 1.35209 0.1826C1.28209 0.1826 1.23209 0.2126 1.19209 0.2626L1.19209 0.1926L1.10209 0.1926L1.10209 0.7226L1.19209 0.7226L1.19209 0.3426C1.20209 0.3226 1.22209 0.3026 1.24209 0.2826C1.26209 0.2626 1.29209 0.2626 1.32209 0.2626C1.36209 0.2626 1.38209 0.2726 1.40209 0.2826C1.42209 0.3026 1.42209 0.3326 1.43209 0.3726Z M1.69229 0.2526C1.65229 0.3026 1.63229 0.3726 1.63229 0.4526C1.63229 0.5426 1.65229 0.6026 1.69229 0.6526C1.73229 0.7026 1.78229 0.7326 1.84229 0.7326C1.90229 0.7326 1.95229 0.7126 1.99229 0.6726L1.99229 0.7126C1.99229 0.7626 1.97229 0.7926 1.95229 0.8226C1.92229 0.8426 1.89229 0.8526 1.85229 0.8526C1.79229 0.8526 1.74229 0.8326 1.70229 0.7826L1.66229 0.8326C1.68229 0.8626 1.70229 0.8926 1.74229 0.9026C1.78229 0.9226 1.81229 0.9326 1.85229 0.9326C1.92229 0.9326 1.97229 0.9126 2.02229 0.8726C2.06229 0.8326 2.08229 0.7726 2.08229 0.7126L2.08229 0.1926L1.99229 0.1926L1.99229 0.2526C1.95229 0.2026 1.90229 0.1826 1.84229 0.1826C1.78229 0.1826 1.73229 0.2026 1.69229 0.2526Z M1.76319 0.5993C1.78319 0.6393 1.82319 0.6493 1.86319 0.6493C1.92319 0.6493 1.96319 0.6293 1.98319 0.5793L1.98319 0.3393C1.96319 0.2893 1.92319 0.2593 1.86319 0.2593C1.82319 0.2593 1.78319 0.2793 1.76319 0.3093C1.73319 0.3493 1.72319 0.3993 1.72319 0.4593C1.72319 0.5193 1.73319 0.5693 1.76319 0.5993Z M2.29509 0.33C2.29509 0.25 2.31509 0.19 2.35509 0.14C2.38509 0.1 2.43509 0.08 2.49509 0.08C2.54509 0.08 2.57509 0.09 2.60509 0.12C2.63509 0.14 2.65509 0.18 2.65509 0.24L2.75509 0.24C2.74509 0.16 2.71509 0.11 2.67509 0.06C2.62509 0.02 2.56509 0 2.49509 0C2.43509 0 2.38509 0.01 2.34509 0.04C2.29509 0.07 2.26509 0.11 2.24509 0.16C2.21509 0.21 2.20509 0.26 2.20509 0.33L2.20509 0.4C2.20509 0.5 2.23509 0.58 2.28509 0.64C2.33509 0.7 2.39509 0.73 2.48509 0.73C2.56509 0.73 2.62509 0.71 2.66509 0.67C2.71509 0.63 2.74509 0.57 2.75509 0.5L2.65509 0.5C2.64509 0.55 2.63509 0.59 2.60509 0.62C2.57509 0.64 2.53509 0.65 2.48509 0.65C2.42509 0.65 2.37509 0.63 2.34509 0.59C2.31509 0.54 2.29509 0.48 2.29509 0.4L2.29509 0.33Z M3.19479 0.6724L3.19479 0.7224L3.28479 0.7224L3.28479 0.1924L3.19479 0.1924L3.19479 0.5724C3.16479 0.6324 3.12479 0.6524 3.05479 0.6524C2.98479 0.6524 2.95479 0.6124 2.95479 0.5324L2.95479 0.1924L2.86479 0.1924L2.86479 0.5324C2.86479 0.6024 2.88479 0.6524 2.90479 0.6824C2.93479 0.7124 2.98479 0.7324 3.03479 0.7324C3.10479 0.7324 3.15479 0.7124 3.19479 0.6724Z M3.64449 0.1945L3.54449 0.1945L3.54449 0.0645L3.45449 0.0645L3.45449 0.1945L3.35449 0.1945L3.35449 0.2645L3.45449 0.2645L3.45449 0.5945C3.45449 0.6345 3.46449 0.6645 3.48449 0.6945C3.50449 0.7145 3.53449 0.7345 3.57449 0.7345C3.59449 0.7345 3.61449 0.7245 3.64449 0.7245L3.64449 0.6445C3.62449 0.6545 3.61449 0.6545 3.59449 0.6545C3.57449 0.6545 3.56449 0.6445 3.55449 0.6345C3.54449 0.6245 3.54449 0.6145 3.54449 0.5945L3.54449 0.2645L3.64449 0.2645L3.64449 0.1945Z M3.86269 0.6126C3.83269 0.5726 3.81269 0.5326 3.81269 0.4826L4.17269 0.4826L4.17269 0.4426C4.17269 0.3626 4.15269 0.2926 4.11269 0.2526C4.07269 0.2026 4.02269 0.1826 3.95269 0.1826C3.91269 0.1826 3.87269 0.1926 3.83269 0.2226C3.80269 0.2426 3.77269 0.2726 3.75269 0.3126C3.73269 0.3526 3.72269 0.4026 3.72269 0.4526L3.72269 0.4726C3.72269 0.5526 3.74269 0.6126 3.79269 0.6626C3.83269 0.7026 3.89269 0.7326 3.96269 0.7326C4.05269 0.7326 4.12269 0.6926 4.16269 0.6326L4.11269 0.5826C4.09269 0.6026 4.07269 0.6226 4.05269 0.6326C4.03269 0.6526 4.00269 0.6526 3.97269 0.6526C3.92269 0.6526 3.89269 0.6426 3.86269 0.6126Z M3.86589 0.2968C3.83589 0.3268 3.82589 0.3568 3.81589 0.4068L4.07589 0.4068L4.07589 0.3968C4.07589 0.3568 4.06589 0.3168 4.04589 0.2968C4.02589 0.2668 3.99589 0.2568 3.95589 0.2568C3.91589 0.2568 3.88589 0.2668 3.86589 0.2968Z M4.28779 0.7086C4.29779 0.7186 4.31779 0.7286 4.33779 0.7286C4.34779 0.7286 4.36779 0.7186 4.37779 0.7086C4.38779 0.6986 4.38779 0.6886 4.38779 0.6686C4.38779 0.6586 4.38779 0.6486 4.37779 0.6386C4.36779 0.6286 4.34779 0.6186 4.33779 0.6186C4.31779 0.6186 4.29779 0.6286 4.28779 0.6386C4.27779 0.6486 4.27779 0.6586 4.27779 0.6686C4.27779 0.6886 4.27779 0.6986 4.28779 0.7086Z M4.57609 0.6626C4.62609 0.7026 4.67609 0.7326 4.75609 0.7326C4.78609 0.7326 4.82609 0.7226 4.85609 0.7026C4.88609 0.6926 4.90609 0.6726 4.92609 0.6426C4.94609 0.6126 4.95609 0.5826 4.96609 0.5526L4.87609 0.5526C4.87609 0.5826 4.85609 0.6126 4.83609 0.6226C4.81609 0.6426 4.78609 0.6526 4.75609 0.6526C4.70609 0.6526 4.66609 0.6426 4.64609 0.6026C4.61609 0.5726 4.60609 0.5326 4.60609 0.4626L4.60609 0.4526C4.60609 0.3826 4.61609 0.3426 4.64609 0.3026C4.66609 0.2726 4.70609 0.2526 4.74609 0.2526C4.78609 0.2526 4.81609 0.2726 4.83609 0.2926C4.85609 0.3126 4.87609 0.3426 4.87609 0.3726L4.96609 0.3726C4.95609 0.3126 4.93609 0.2726 4.89609 0.2326C4.85609 0.2026 4.80609 0.1826 4.74609 0.1826C4.70609 0.1826 4.65609 0.1926 4.62609 0.2126C4.58609 0.2426 4.56609 0.2726 4.54609 0.3126C4.52609 0.3526 4.51609 0.3926 4.51609 0.4426L4.51609 0.4626C4.51609 0.5426 4.53609 0.6126 4.57609 0.6626Z M5.15909 0.2126C5.11909 0.2426 5.08909 0.2726 5.06909 0.3126C5.04909 0.3526 5.03909 0.4026 5.03909 0.4526L5.03909 0.4626C5.03909 0.5426 5.05909 0.6026 5.10909 0.6526C5.14909 0.7026 5.20909 0.7326 5.27909 0.7326C5.32909 0.7326 5.36909 0.7226 5.40909 0.6926C5.43909 0.6726 5.46909 0.6426 5.48909 0.6026C5.50909 0.5626 5.51909 0.5126 5.51909 0.4626L5.51909 0.4526C5.51909 0.3726 5.49909 0.3026 5.44909 0.2526C5.40909 0.2026 5.34909 0.1826 5.27909 0.1826C5.22909 0.1826 5.18909 0.1926 5.15909 0.2126Z M5.16989 0.6068C5.19989 0.6368 5.22989 0.6568 5.27989 0.6568C5.32989 0.6568 5.35989 0.6368 5.38989 0.6068C5.41989 0.5668 5.42989 0.5168 5.42989 0.4468C5.42989 0.3968 5.41989 0.3468 5.38989 0.3068C5.35989 0.2768 5.31989 0.2568 5.27989 0.2568C5.22989 0.2568 5.19989 0.2768 5.16989 0.3068C5.13989 0.3468 5.12989 0.3968 5.12989 0.4668C5.12989 0.5168 5.13989 0.5668 5.16989 0.6068Z M5.63279 0.7226L5.72279 0.7226L5.72279 0.3326C5.74279 0.2826 5.78279 0.2626 5.84279 0.2626C5.92279 0.2626 5.95279 0.3026 5.95279 0.3726L5.95279 0.7226L6.05279 0.7226L6.05279 0.3726C6.05279 0.3326 6.06279 0.3126 6.08279 0.2926C6.11279 0.2726 6.13279 0.2626 6.17279 0.2626C6.21279 0.2626 6.24279 0.2726 6.25279 0.2926C6.27279 0.3026 6.28279 0.3326 6.28279 0.3726L6.28279 0.7226L6.37279 0.7226L6.37279 0.3626C6.37279 0.2426 6.31279 0.1826 6.19279 0.1826C6.16279 0.1826 6.12279 0.1926 6.09279 0.2026C6.07279 0.2226 6.04279 0.2426 6.03279 0.2726C6.00279 0.2126 5.95279 0.1826 5.87279 0.1826C5.81279 0.1826 5.76279 0.2026 5.72279 0.2526L5.72279 0.1926L5.63279 0.1926L5.63279 0.7226Z " /><path  id="Diagonals" style="stroke:#FFFFFF; stroke-width:0.13; stroke-opacity:1; stroke-dasharray:0 0" transform="translate(0 0)  rotate(0 12 12)" d="M0 0L24 0 M0 0L0 24 M0 0L24 24 M24 0L24 24 M24 0L0 24 M24 24L0 24 " /><path  id="路径 24" style="stroke:#FFFFFF; stroke-width:0.13; stroke-opacity:1; stroke-dasharray:0 0" transform="translate(2 2)  rotate(0 10 10)" d="M10,0C4.48,0 0,4.48 0,10C0,15.52 4.48,20 10,20C15.52,20 20,15.52 20,10C20,4.48 15.52,0 10,0Z " /><path  id="路径 25" style="stroke:#FFFFFF; stroke-width:0.13; stroke-opacity:1; stroke-dasharray:0 0" transform="translate(2 4)  rotate(0 10 8)" d="M0,15C0,15.55 0.45,16 1,16L19,16C19.55,16 20,15.55 20,15L20,1C20,0.45 19.55,0 19,0L1,0C0.45,0 0,0.45 0,1Z " /><path  id="路径 26" style="stroke:#FFFFFF; stroke-width:0.13; stroke-opacity:1; stroke-dasharray:0 0" transform="translate(4 2)  rotate(0 8 10)" d="M0,19C0,19.55 0.45,20 1,20L15,20C15.55,20 16,19.55 16,19L16,1C16,0.45 15.55,0 15,0L1,0C0.45,0 0,0.45 0,1Z " /><path  id="路径 27" style="stroke:#FFFFFF; stroke-width:0.13; stroke-opacity:1; stroke-dasharray:0 0" transform="translate(3 3)  rotate(0 9 9)" d="M0,17C0,17.55 0.45,18 1,18L17,18C17.55,18 18,17.55 18,17L18,1C18,0.45 17.55,0 17,0L1,0C0.45,0 0,0.45 0,1Z " /><path  id="路径 28" style="stroke:#FFFFFF; stroke-width:0.13; stroke-opacity:1; stroke-dasharray:0 0" transform="translate(8 8)  rotate(0 4 4)" d="M4,0C1.79,0 0,1.79 0,4C0,6.21 1.79,8 4,8C6.21,8 8,6.21 8,4C8,1.79 6.21,0 4,0Z " /></g><path id="home_3_line" fill-rule="evenodd" style="fill:#333333" transform="translate(1.9999479055404663 2.2668612003326416)  rotate(0 10.000103950500488 9.366569519042969)" opacity="1" d="M0.39 6.94L8.77 0.42C9.49 -0.14 10.51 -0.14 11.23 0.42L19.61 6.94C20.36 7.53 19.95 8.73 19 8.73L18 8.73L18 16.73C18 17.84 17.1 18.73 16 18.73L4 18.73C2.9 18.73 2 17.84 2 16.73L2 8.73L1 8.73C0.05 8.73 -0.36 7.53 0.39 6.94ZM16 7.74C16 7.43 16.15 7.14 16.37 6.96L10 2L3.63 6.96C3.85 7.14 4 7.43 4 7.74L4 16.73L7 16.73L7 11.73C7 10.08 8.34 8.73 10 8.73C11.66 8.73 13 10.08 13 11.73L13 16.73L16 16.73L16 7.74ZM9 16.73L9 11.73C9 11.18 9.45 10.73 10 10.73C10.55 10.73 11 11.18 11 11.73L11 16.73L9 16.73Z" /></g></svg>