<svg xmlns="http://www.w3.org/2000/svg" xmlns:xlink="http://www.w3.org/1999/xlink" width="15" height="15" viewBox="0 0 15 15" fill="none"><path id="搜索框icon" fill-rule="evenodd" style="fill:#808080" transform="translate(1.77635683940025e-15 1.77635683940025e-15)  rotate(0 7.499999999999995 7.499999999999995)" opacity="1" d="M7 0C3.13 0 0 3.13 0 7C0 10.87 3.13 14 7 14C8.58 14 10.05 13.47 11.28 12.66L13.34 14.71C13.72 15.09 14.34 15.09 14.71 14.71C15.09 14.34 15.09 13.72 14.71 13.34L12.58 11.22C13.47 10.05 14 8.58 14 7C14 3.13 10.87 0 7 0Z M1 7C1 10.31 3.69 13 7 13C10.31 13 13 10.31 13 7C13 3.69 10.31 1 7 1C3.69 1 1 3.69 1 7Z " /></svg>