<svg xmlns="http://www.w3.org/2000/svg" xmlns:xlink="http://www.w3.org/1999/xlink" width="24" height="24" viewBox="0 0 24 24" fill="none"><g opacity="1" transform="translate(0 0)  rotate(0 12 12)"><path id="share_forward_line" fill-rule="evenodd" style="fill:#808080" transform="translate(3.5 4.584355214561128)  rotate(0 8.5 7.415644785438868)" opacity="1" d="M12.72 3.07C11.36 2.01 9.95 1.01 8.46 0.14C7.74 -0.27 7.03 0.29 6.96 0.97L6.77 4.03C2.89 4.43 0 7.85 0 11.7C0 14 0.92 13.77 2.5 12.41C3.71 11.42 5.21 10.88 6.77 10.85L6.97 13.91C7.04 14.6 7.76 15.07 8.43 14.7C10.3 13.64 12.02 12.32 13.69 10.96C14.73 10.09 15.74 9.17 16.68 8.19C17.08 7.77 17.12 7.09 16.71 6.65C15.75 5.65 14.4 4.4 12.72 3.07ZM8.42 9.51C8.41 9.28 8.22 9.1 7.99 9.11L6.53 9.14L6.51 9.14C4.78 9.21 3.14 9.79 1.78 10.8C2.17 8.11 4.25 6.05 6.88 5.74L8.05 5.62C8.26 5.6 8.42 5.43 8.43 5.22L8.6 2.24C9.64 2.91 10.66 3.64 11.66 4.42C13.04 5.52 14.18 6.55 15.05 7.41C14.26 8.19 13.44 8.93 12.59 9.64C11.28 10.71 9.97 11.72 8.59 12.6L8.42 9.51Z" /></g></svg>