<svg xmlns="http://www.w3.org/2000/svg" xmlns:xlink="http://www.w3.org/1999/xlink" width="24" height="24" viewBox="0 0 24 24" fill="none"><g opacity="1" transform="translate(0 0)  rotate(0 12 12)"><path id="Vector (Stroke)" fill-rule="evenodd" style="fill:#808080" transform="translate(4 3.713866430733219)  rotate(0 8 8.286133569266806)" opacity="1" d="M15.99 7.44L15.68 11.12C15.43 14.2 12.85 16.57 9.76 16.57L8.47 16.57C6.8 16.57 5.24 15.88 4.16 14.72C3.78 14.82 3.39 14.87 2.97 14.87C2.03 14.87 1.25 14.34 0.74 13.51C0.25 12.69 0 11.56 0 10.2C0 8.83 0.25 7.71 0.74 6.89C1.25 6.05 2.03 5.52 2.97 5.52C3.21 5.52 3.47 5.57 3.72 5.64C4.11 4.62 4.39 3.57 4.26 2.46C4.11 1.24 5.11 0 6.37 0C7.53 0 8.32 0.72 8.83 1.74C9.28 2.63 9.32 3.7 9.34 4.67L13.45 4.67C14.94 4.67 16.11 5.95 15.99 7.44ZM7.65 5.11C7.64877 5.00767 7.64845 4.90246 7.64812 4.7952C7.64579 4.03245 7.64315 3.1663 7.31 2.5C6.97 1.83 6.66 1.7 6.37 1.7C6.12 1.7 5.92 2.03 5.94 2.26C6.09 3.47 5.89 4.73 5.45 5.87C4.97 7.12 4.33 8.47 4.25 9.82C4.18 10.96 4.44 12.3 5.12 13.22C5.88 14.23 7.11 14.87 8.47 14.87L9.76 14.87C11.97 14.87 13.81 13.18 13.99 10.98L14.3 7.29C14.34 6.8 13.95 6.37 13.45 6.37L8.92 6.37C8.22 6.37 7.65 5.8 7.65 5.11ZM3.14 7.24C2.86 8.09 2.59 9.04 2.55 9.72C2.49 10.84 2.68 12.14 3.14 13.17L2.97 13.17C2.74 13.17 2.46 13.06 2.2 12.63C1.92 12.17 1.7 11.38 1.7 10.2C1.7 9.01 1.92 8.23 2.2 7.77C2.41 7.43 2.73 7.16 3.14 7.24Z" /></g></svg>