<svg xmlns="http://www.w3.org/2000/svg" xmlns:xlink="http://www.w3.org/1999/xlink" width="24" height="24" viewBox="0 0 24 24" fill="none"><g opacity="1" transform="translate(0 0)  rotate(0 12 12)"><path id="user_2_line" fill-rule="evenodd" style="fill:#333333" transform="translate(3 2)  rotate(0 9 10)" opacity="1" d="M9 10C6.24 10 4 7.76 4 5C4 2.24 6.24 0 9 0C11.76 0 14 2.24 14 5C14 7.76 11.76 10 9 10ZM9 8C10.66 8 12 6.66 12 5C12 3.34 10.66 2 9 2C7.34 2 6 3.34 6 5C6 6.66 7.34 8 9 8ZM2 20C0.9 20 0 19.1 0 18L0 17C0 14.24 2.24 12 5 12L13 12C15.76 12 18 14.24 18 17L18 18C18 19.1 17.1 20 16 20L2 20ZM2 17C2 15.34 3.34 14 5 14L13 14C14.66 14 16 15.34 16 17L16 18L2 18L2 17Z" /></g></svg>