<svg xmlns="http://www.w3.org/2000/svg" xmlns:xlink="http://www.w3.org/1999/xlink" width="32" height="32" viewBox="0 0 32 32" fill="none"><path id="支付宝" fill-rule="evenodd" style="fill:#06B4FD" transform="translate(164 0)  rotate(0 16 16.00000678168403)" opacity="1" d="M6.30631 19.3425C6.14631 20.1025 6.28631 21.0825 7.00631 21.8425C7.90631 22.7525 9.27631 23.0025 9.87631 23.0525C11.4763 23.1625 13.1963 22.3525 14.4963 21.4725C15.0063 21.1225 15.8563 20.4025 16.6963 19.2925C14.8363 18.3425 12.5263 17.2725 10.0663 17.3725C8.76631 17.4125 7.85631 17.6725 7.21631 18.0125C6.81631 18.3225 6.42631 18.7625 6.30631 19.3425Z M30.72 22.26Z M5.72 21.76C5.72 21.75 5.71 21.74 5.7 21.73C5.71 21.74 5.72 21.75 5.72 21.76Z M5.73 21.82C5.73 21.82 5.59 21.59 5.5 21.22C5.45 21.03 5.4 20.85 5.38 20.66C5.36 20.52 5.36 20.38 5.38 20.27C5.36 20.03 5.38 19.78 5.43 19.52C5.57 18.88 5.82 18.16 6.54 17.48C8.07 15.98 10.13 15.91 11.2 15.91C12.78 15.93 15.51 16.6 17.83 17.44C18.48 16.07 18.9 14.63 19.15 13.63L9.53 13.63L9.53 12.59L14.47 12.59L14.47 10.5L8.51 10.5L8.51 9.44L14.47 9.44L14.47 7.35C14.47 7.07 14.54 6.84 14.98 6.84L17.32 6.84L17.32 9.44L23.79 9.44L23.79 10.48L17.32 10.48L17.32 12.57L22.49 12.57C22.49 12.57 21.96 15.47 20.36 18.32C23.95 19.59 29.03 21.59 30.72 22.26C31.54 20.34 32 18.23 32 16C32 7.19 24.81 0 16 0C7.19 0 0 7.19 0 16C0 24.81 7.19 32 16 32C21.33 32 26.04 29.38 28.96 25.37C26.2 24.02 21.68 21.75 18.88 20.41C17.55 21.94 15.58 23.44 13.36 24.09C11.97 24.51 10.69 24.67 9.39 24.39C8.07 24.12 7.12 23.51 6.56 22.91C6.29 22.59 5.97 22.23 5.72 21.76C5.73 21.78 5.73 21.81 5.73 21.82Z " /></svg>