<svg xmlns="http://www.w3.org/2000/svg" xmlns:xlink="http://www.w3.org/1999/xlink" width="20" height="20" viewBox="0 0 20 20" fill="none"><defs><rect id="path_0" x="0" y="0" width="20" height="20" /></defs><g opacity="1" transform="translate(0 1.1368683772161603e-13)  rotate(0 10 10)"><mask id="bg-mask-0" fill="white"><use xlink:href="#path_0"></use></mask><g mask="url(#bg-mask-0)" ><path id="分组 1" fill-rule="evenodd" style="fill:#808080" transform="translate(2.2916666601563023 1.875)  rotate(0 8.125 8.125)" opacity="1" d="M0 8.13C0 12.61 3.64 16.25 8.13 16.25C12.61 16.25 16.25 12.61 16.25 8.13C16.25 3.64 12.61 0 8.13 0C3.64 0 0 3.64 0 8.13Z M1.25 8.13C1.25 11.92 4.33 15 8.13 15C11.92 15 15 11.92 15 8.13C15 4.33 11.92 1.25 8.13 1.25C4.33 1.25 1.25 4.33 1.25 8.13Z M7.5 3.5275L7.5 8.4075L11.11 11.5975L11.94 10.6675L8.75 7.8475L8.75 3.5275L7.5 3.5275Z " /></g></g></svg>