<svg xmlns="http://www.w3.org/2000/svg" xmlns:xlink="http://www.w3.org/1999/xlink" width="24" height="24" viewBox="0 0 24 24" fill="none"><defs><rect id="path_0" x="0" y="0" width="24" height="24" /></defs><g opacity="1" transform="translate(0 0)  rotate(0 12 12)"><mask id="bg-mask-0" fill="white"><use xlink:href="#path_0"></use></mask><g mask="url(#bg-mask-0)" ><path id="分组 1" fill-rule="evenodd" style="fill:#808080" transform="translate(0.8999999999999999 1.38)  rotate(0 10.8 10.620000000000001)" opacity="1" d="M6.65 6.82C4.96 6.82 3.35 7.07 2.14 7.52C0.76 8.05 0 8.81 0 9.66L0 18.41C0 19.26 0.76 20.02 2.14 20.53C3.35 20.99 4.96 21.24 6.65 21.24C8.34 21.24 9.95 20.99 11.16 20.53C12.36 20.08 13.09 19.45 13.26 18.73C13.81 18.79 14.38 18.82 14.94 18.82C16.63 18.82 18.24 18.56 19.45 18.11C20.83 17.59 21.59 16.84 21.59 15.98L21.59 15.95L21.59 15.91L21.6 2.83C21.6 1.98 20.84 1.22 19.46 0.71C18.25 0.25 16.64 0 14.95 0C13.26 0 11.65 0.25 10.44 0.71C9.05 1.22 8.29 1.98 8.29 2.83L8.29 6.9C7.76 6.85 7.21 6.82 6.65 6.82Z M20.536 11.088C20.236 11.278 19.876 11.458 19.456 11.618C18.236 12.068 16.636 12.328 14.936 12.328C14.376 12.328 13.836 12.298 13.296 12.238L13.296 14.428C13.826 14.488 14.376 14.508 14.936 14.508C18.346 14.508 20.536 13.468 20.536 12.728L20.536 11.088Z M12.236 11.256C11.936 11.446 11.576 11.626 11.156 11.786C9.946 12.236 8.336 12.496 6.646 12.496C4.956 12.496 3.346 12.236 2.136 11.786C1.716 11.626 1.356 11.446 1.056 11.256L1.056 12.706C1.056 13.426 3.236 14.486 6.646 14.486C10.056 14.486 12.236 13.436 12.236 12.706L12.236 11.256Z M1.056 15.564C1.056 16.284 3.236 17.344 6.646 17.344C10.056 17.344 12.236 16.294 12.236 15.564L12.236 14.304C11.936 14.494 11.576 14.674 11.156 14.834C9.946 15.284 8.336 15.544 6.646 15.544C4.956 15.544 3.346 15.284 2.136 14.834C1.716 14.674 1.356 14.494 1.056 14.304L1.056 15.564Z M20.528 7.848C20.228 8.038 19.868 8.218 19.448 8.378C18.238 8.828 16.628 9.088 14.938 9.088C14.318 9.088 13.718 9.048 13.128 8.988C13.238 9.208 13.298 9.428 13.298 9.658L13.298 11.188C13.828 11.248 14.378 11.268 14.938 11.268C18.348 11.268 20.528 10.228 20.528 9.488L20.528 7.848Z M20.528 4.428C20.228 4.618 19.868 4.798 19.448 4.958C18.238 5.408 16.628 5.668 14.938 5.668C13.248 5.668 11.638 5.408 10.428 4.958C10.008 4.798 9.648 4.618 9.348 4.428L9.348 6.238C9.348 6.958 11.528 8.018 14.938 8.018C18.348 8.018 20.528 6.968 20.528 6.238L20.528 4.428Z M9.348 2.834C9.348 3.554 11.528 4.604 14.938 4.604C18.358 4.604 20.528 3.544 20.528 2.824C20.528 2.104 18.348 1.044 14.938 1.044C11.528 1.044 9.348 2.114 9.348 2.834Z M1.056 9.662C1.056 10.382 3.236 11.432 6.646 11.432C10.056 11.432 12.236 10.392 12.236 9.662C12.236 9.092 10.936 8.342 8.776 8.032C8.746 8.032 8.736 8.012 8.716 8.012C8.086 7.922 7.406 7.872 6.646 7.872C3.226 7.872 1.056 8.942 1.056 9.662Z M6.646 18.4C4.956 18.4 3.346 18.14 2.136 17.69C1.716 17.53 1.356 17.35 1.056 17.16L1.056 18.38L1.056 18.42C1.056 19.14 3.236 20.2 6.646 20.2C10.056 20.2 12.236 19.14 12.236 18.42L12.236 17.16C11.936 17.35 11.576 17.53 11.156 17.69C9.946 18.14 8.336 18.4 6.646 18.4Z M20.536 16L20.536 14.34C20.236 14.53 19.876 14.71 19.456 14.87C18.236 15.32 16.636 15.58 14.936 15.58C14.376 15.58 13.836 15.55 13.296 15.49L13.296 17.68C13.826 17.74 14.376 17.76 14.936 17.76C18.356 17.76 20.536 16.7 20.536 16Z " /></g></g></svg>