<svg xmlns="http://www.w3.org/2000/svg" xmlns:xlink="http://www.w3.org/1999/xlink" width="24" height="24" viewBox="0 0 24 24" fill="none"><defs><rect id="path_0" x="0" y="0" width="24" height="24" /></defs><g opacity="1" transform="translate(0 0)  rotate(0 12 12)"><mask id="bg-mask-0" fill="white"><use xlink:href="#path_0"></use></mask><g mask="url(#bg-mask-0)" ><path  id="路径 1" style="stroke:#333333; stroke-width:2; stroke-opacity:1; stroke-dasharray:0 0" transform="translate(11 11)  rotate(0 5.5 4.75)" d="M7,0L7,4L0,4L0,8L5.5,8L7,9.5L8.5,8L11,8L11,0L7,0Z " /><path  id="路径 2" style="stroke:#333333; stroke-width:2; stroke-opacity:1; stroke-dasharray:0 0" transform="translate(2 3)  rotate(0 8 7)" d="M0,12L2.5,12L4.5,14L6.5,12L16,12L16,0L0,0L0,12Z " /><path  id="路径 3" style="stroke:#333333; stroke-width:2; stroke-opacity:1; stroke-dasharray:0 0" transform="translate(6 11)  rotate(0 1.5 0)" d="M0,0L3,0 " /><path  id="路径 4" style="stroke:#333333; stroke-width:2; stroke-opacity:1; stroke-dasharray:0 0" transform="translate(6 7)  rotate(0 3 0)" d="M0,0L6,0 " /></g></g></svg>