<svg xmlns="http://www.w3.org/2000/svg" xmlns:xlink="http://www.w3.org/1999/xlink" width="24" height="24" viewBox="0 0 24 24" fill="none"><path id="分组 1" fill-rule="evenodd" style="fill:#92E7E8" transform="translate(0 0)  rotate(0 12 12)" opacity="1" d="M12 0C5.4 0 0 5.4 0 12C0 18.6 5.4 24 12 24C18.6 24 24 18.6 24 12C24 5.4 18.6 0 12 0Z M22.5 12C22.5 6.15 17.85 1.5 12 1.5C6.15 1.5 1.5 6.15 1.5 12C1.5 17.85 6.15 22.5 12 22.5C17.85 22.5 22.5 17.85 22.5 12Z M7.5 8.25C7.5 9.75 8.25 10.95 9.3 11.85C6.9 12.9 5.25 15.3 5.25 18C5.25 18.45 5.55 18.75 6 18.75C6.45 18.75 6.75 18.45 6.75 18C6.75 15.15 9.15 12.75 12 12.75C14.85 12.75 17.25 15.15 17.25 18C17.25 18.45 17.55 18.75 18 18.75C18.45 18.75 18.75 18.45 18.75 18C18.75 15.3 17.1 12.9 14.7 11.85C15.75 10.95 16.5 9.75 16.5 8.25C16.5 5.7 14.55 3.75 12 3.75C9.45 3.75 7.5 5.7 7.5 8.25Z M15 8.25C15 6.6 13.65 5.25 12 5.25C10.35 5.25 9 6.6 9 8.25C9 9.9 10.35 11.25 12 11.25C13.65 11.25 15 9.9 15 8.25Z " /></svg>