<svg xmlns="http://www.w3.org/2000/svg" xmlns:xlink="http://www.w3.org/1999/xlink" width="24" height="24" viewBox="0 0 24 24" fill="none"><defs><rect id="path_0" x="0" y="0" width="24" height="24" /><linearGradient id="linear_0" x1="0%" y1="50%" x2="100%" y2="50%" gradientUnits="objectBoundingBox"><stop offset="0" stop-color="#FF5894" stop-opacity="1" /><stop offset="1" stop-color="#8441A3" stop-opacity="1" /></linearGradient><linearGradient id="linear_1" x1="0%" y1="50%" x2="100%" y2="50%" gradientUnits="objectBoundingBox"><stop offset="0" stop-color="#FF5894" stop-opacity="1" /><stop offset="1" stop-color="#8441A3" stop-opacity="1" /></linearGradient><linearGradient id="linear_2" x1="-54.405%" y1="100%" x2="50%" y2="50%" gradientUnits="objectBoundingBox"><stop offset="0" stop-color="#FF5894" stop-opacity="1" /><stop offset="1" stop-color="#8441A3" stop-opacity="1" /></linearGradient><linearGradient id="linear_3" x1="0%" y1="50%" x2="100%" y2="50%" gradientUnits="objectBoundingBox"><stop offset="0" stop-color="#FF5894" stop-opacity="1" /><stop offset="1" stop-color="#8441A3" stop-opacity="1" /></linearGradient></defs><g opacity="1" transform="translate(0 0)  rotate(0 12 12)"><mask id="bg-mask-0" fill="white"><use xlink:href="#path_0"></use></mask><g mask="url(#bg-mask-0)" ><path id="路径 1" fill-rule="evenodd" fill="url(#linear_0)" transform="translate(4 2)  rotate(0 8 10)" opacity="1" d="M0,19C0,19.55 0.45,20 1,20L15,20C15.55,20 16,19.55 16,19L16,5L11,5L11,0L1,0C0.45,0 0,0.45 0,1L0,19Z " /><path id="路径 1" style="stroke:url(#linear_1); stroke-width:2; stroke-opacity:100; stroke-dasharray:0 0" transform="translate(4 2)  rotate(0 8 10)" d="M0,19C0,19.55 0.45,20 1,20L15,20C15.55,20 16,19.55 16,19L16,5L11,5L11,0L1,0C0.45,0 0,0.45 0,1L0,19Z " /><path id="路径 2" style="stroke:url(#linear_2); stroke-width:2; stroke-opacity:100; stroke-dasharray:0 0" transform="translate(15 2)  rotate(0 2.5 2.5)" d="M0,0L5,5 " /><path id="路径 3" fill-rule="evenodd" style="fill:#FFFFFF" transform="translate(8.5 10.5)  rotate(0 3.5 3.5)" opacity="1" d="M7,2L5,0L0,5L0,7L2,7L7,2Z " /><path id="路径 3" style="stroke:url(#linear_3); stroke-width:1; stroke-opacity:100; stroke-dasharray:0 0" transform="translate(8.5 10.5)  rotate(0 3.5 3.5)" d="M7,2L5,0L0,5L0,7L2,7L7,2Z " /></g></g></svg>