<svg xmlns="http://www.w3.org/2000/svg" xmlns:xlink="http://www.w3.org/1999/xlink" width="24" height="24" viewBox="0 0 24 24" fill="none"><defs><filter id="filter_0" x="-4" y="-4" width="32" height="32" filterUnits="userSpaceOnUse" color-interpolation-filters="sRGB"><feFlood flood-opacity="0" result="BackgroundImageFix"/>
          <feColorMatrix in="SourceAlpha" type="matrix" values="0 0 0 0 0 0 0 0 0 0 0 0 0 0 0 0 0 0 127 0"/>
          <feOffset dx="0" dy="2"/>
          <feGaussianBlur stdDeviation="2"/>
          <feColorMatrix type="matrix" values="0 0 0 0 0 0 0 0 0 0 0 0 0 0 0 0 0 0 0.25 0"/>
          <feBlend mode="normal" in2="BackgroundImageFix" result="effect1_Shadow"/>
          <feBlend mode="normal" in="SourceGraphic" in2="effect1_Shadow" result="shape"/></filter><linearGradient id="linear_0" x1="7.516714185476303%" y1="8.071645349264145%" x2="91.31289720535278%" y2="94.684499502182%" gradientUnits="objectBoundingBox"><stop offset="0" stop-color="#00FFED" stop-opacity="1" /><stop offset="1" stop-color="#0089BA" stop-opacity="1" /></linearGradient></defs><g opacity="1" transform="translate(0 0)  rotate(0 12 12)"><g id="undefined" filter="url(#filter_0)"></g><path id="home_2_fill" fill-rule="evenodd" fill="url(#linear_0)" transform="translate(2 2.2668609619140625)  rotate(0 10.000103950500488 9.366569519042969)" opacity="1" d="M8.77,0.42L0.39,6.94C-0.36,7.53 0.05,8.73 1,8.73L2,8.73L2,16.73C2,17.84 2.9,18.73 4,18.73L8,18.73L8,12.73C8,11.63 8.9,10.73 10,10.73C11.1,10.73 12,11.63 12,12.73L12,18.73L16,18.73C17.1,18.73 18,17.84 18,16.73L18,8.73L19,8.73C19.95,8.73 20.36,7.53 19.61,6.94L11.23,0.42C10.51,-0.14 9.49,-0.14 8.77,0.42Z " /></g></svg>