<svg xmlns="http://www.w3.org/2000/svg" xmlns:xlink="http://www.w3.org/1999/xlink" width="24" height="24" viewBox="0 0 24 24" fill="none"><defs><linearGradient id="linear_0" x1="50%" y1="131.42100000000002%" x2="51%" y2="-27.003%" gradientUnits="objectBoundingBox"><stop offset="0" stop-color="#FF5996" stop-opacity="1" /><stop offset="1" stop-color="#8441A4" stop-opacity="1" /></linearGradient></defs><g opacity="1" transform="translate(0 0)  rotate(0 12 12)"><path id="home_2_fill" fill-rule="evenodd" fill="url(#linear_0)" transform="translate(2 2.2668609619140625)  rotate(0 10.000103950500488 9.366569519042969)" opacity="1" d="M8.77,0.42L0.39,6.94C-0.36,7.53 0.05,8.73 1,8.73L2,8.73L2,16.73C2,17.84 2.9,18.73 4,18.73L8,18.73L8,12.73C8,11.63 8.9,10.73 10,10.73C11.1,10.73 12,11.63 12,12.73L12,18.73L16,18.73C17.1,18.73 18,17.84 18,16.73L18,8.73L19,8.73C19.95,8.73 20.36,7.53 19.61,6.94L11.23,0.42C10.51,-0.14 9.49,-0.14 8.77,0.42Z " /></g></svg>