<svg xmlns="http://www.w3.org/2000/svg" xmlns:xlink="http://www.w3.org/1999/xlink" width="24" height="24" viewBox="0 0 24 24" fill="none"><g opacity="1" transform="translate(0 0)  rotate(0 12 12)"><path id="Union" fill-rule="evenodd" style="fill:#E5E5E5" transform="translate(4 2)  rotate(0 8 9.999789237976074)" opacity="1" d="M7.15 16.54C6.44 16.13 4.81 15.13 3.35 13.64C1.9 12.16 0.5 10.07 0.5 7.5C0.5 3.36 3.86 0 8 0C12.14 0 15.5 3.36 15.5 7.5C15.5 10.07 14.1 12.16 12.65 13.64C11.19 15.13 9.56 16.13 8.85 16.54C8.32 16.83 7.68 16.83 7.15 16.54ZM11.22 12.24C10.03 13.46 8.69 14.31 8 14.72C7.31 14.31 5.97 13.46 4.78 12.24C3.5 10.93 2.5 9.32 2.5 7.5C2.5 4.46 4.96 2 8 2C11.04 2 13.5 4.46 13.5 7.5C13.5 9.32 12.5 10.93 11.22 12.24ZM5 7.5C5 9.16 6.34 10.5 8 10.5C9.66 10.5 11 9.16 11 7.5C11 5.84 9.66 4.5 8 4.5C6.34 4.5 5 5.84 5 7.5ZM8 8.5C8.55 8.5 9 8.05 9 7.5C9 6.95 8.55 6.5 8 6.5C7.45 6.5 7 6.95 7 7.5C7 8.05 7.45 8.5 8 8.5ZM15.03 15.41C14.56 15.08 13.95 14.83 13.28 14.64C12.75 14.49 12.19 14.79 12.04 15.32C11.89 15.85 12.19 16.41 12.72 16.56C13.22 16.71 13.58 16.86 13.81 17C13.57 17.14 13.2 17.3 12.68 17.45C11.52 17.78 9.87 18 8 18C6.13 18 4.48 17.78 3.32 17.45C2.8 17.3 2.43 17.14 2.19 17C2.42 16.86 2.78 16.71 3.28 16.56C3.81 16.41 4.11 15.85 3.96 15.32C3.81 14.79 3.25 14.49 2.72 14.64C2.05 14.83 1.44 15.08 0.97 15.41C0.53 15.7 0 16.23 0 17C0 17.78 0.55 18.31 0.99 18.61C1.47 18.93 2.09 19.18 2.78 19.38C4.15 19.77 6 20 8 20C10 20 11.85 19.77 13.22 19.38C13.91 19.18 14.53 18.93 15.01 18.61C15.45 18.31 16 17.78 16 17C16 16.23 15.47 15.7 15.03 15.41Z" /></g></svg>