<svg xmlns="http://www.w3.org/2000/svg" xmlns:xlink="http://www.w3.org/1999/xlink" width="24" height="24" viewBox="0 0 24 24" fill="none"><defs><rect id="path_0" x="0" y="0" width="24" height="24" /><linearGradient id="linear_0" x1="0%" y1="50%" x2="100%" y2="50%" gradientUnits="objectBoundingBox"><stop offset="0" stop-color="#FF5894" stop-opacity="1" /><stop offset="1" stop-color="#8441A3" stop-opacity="1" /></linearGradient><linearGradient id="linear_1" x1="0%" y1="50%" x2="100%" y2="50%" gradientUnits="objectBoundingBox"><stop offset="0" stop-color="#FF5894" stop-opacity="1" /><stop offset="1" stop-color="#8441A3" stop-opacity="1" /></linearGradient><linearGradient id="linear_2" x1="0%" y1="50%" x2="213.807%" y2="50%" gradientUnits="objectBoundingBox"><stop offset="0" stop-color="#FF5894" stop-opacity="1" /><stop offset="1" stop-color="#8441A3" stop-opacity="1" /></linearGradient><linearGradient id="linear_3" x1="-112.94500000000001%" y1="0%" x2="100%" y2="50%" gradientUnits="objectBoundingBox"><stop offset="0" stop-color="#FF5894" stop-opacity="1" /><stop offset="1" stop-color="#8441A3" stop-opacity="1" /></linearGradient></defs><g opacity="1" transform="translate(0 0)  rotate(0 12 12)"><mask id="bg-mask-0" fill="white"><use xlink:href="#path_0"></use></mask><g mask="url(#bg-mask-0)" ><path id="路径 1" fill-rule="evenodd" fill="url(#linear_0)" transform="translate(2 4.5)  rotate(0 10 7.5)" opacity="1" d="M20,15L20,7.5L20,0L10,0L0,0L0,7.5L0,15L20,15Z " /><path id="路径 1" style="stroke:url(#linear_1); stroke-width:2; stroke-opacity:100; stroke-dasharray:0 0" transform="translate(2 4.5)  rotate(0 10 7.5)" d="M20,15L20,7.5L20,0L10,0L0,0L0,7.5L0,15L20,15Z " /><path  id="路径 2" style="stroke:#FFFFFF; stroke-width:2; stroke-opacity:1; stroke-dasharray:0 0" transform="translate(2 4.5)  rotate(0 10 3.75)" d="M0,0L10,7.5L20,0 " /><path id="路径 3" style="stroke:url(#linear_2); stroke-width:2; stroke-opacity:100; stroke-dasharray:0 0" transform="translate(2 4.5)  rotate(0 5 3.75)" d="M10,0L0,0L0,7.5 " /><path id="路径 4" style="stroke:url(#linear_3); stroke-width:2; stroke-opacity:100; stroke-dasharray:0 0" transform="translate(12 4.5)  rotate(0 5 3.75)" d="M10,7.5L10,0L0,0 " /></g></g></svg>