<svg xmlns="http://www.w3.org/2000/svg" xmlns:xlink="http://www.w3.org/1999/xlink" width="24" height="24" viewBox="0 0 24 24" fill="none"><g opacity="1" transform="translate(0 0)  rotate(0 12 12)"><path id="message_2_line" fill-rule="evenodd" style="fill:#808080" transform="translate(4 4.499092102050781)  rotate(0 8 7.500907897949219)" opacity="1" d="M0 10.4C0 11.73 1.07 12.8 2.4 12.8L3.2 12.8L3.2 14C3.2 14.82 4.14 15.29 4.8 14.8L7.47 12.8L13.6 12.8C14.93 12.8 16 11.73 16 10.4L16 2.4C16 1.07 14.93 0 13.6 0L2.4 0C1.07 0 0 1.07 0 2.4L0 10.4ZM4.8 12.4C4.8 11.74 4.26 11.2 3.6 11.2L2.4 11.2C1.96 11.2 1.6 10.84 1.6 10.4L1.6 2.4C1.6 1.96 1.96 1.6 2.4 1.6L13.6 1.6C14.04 1.6 14.4 1.96 14.4 2.4L14.4 10.4C14.4 10.84 14.04 11.2 13.6 11.2L7.47 11.2C7.12 11.2 6.78 11.31 6.51 11.52L4.8 12.8L4.8 12.4Z" /></g></svg>