<svg xmlns="http://www.w3.org/2000/svg" xmlns:xlink="http://www.w3.org/1999/xlink" width="20" height="20" viewBox="0 0 20 20" fill="none"><defs><rect id="path_0" x="0" y="0" width="20" height="20" /></defs><g opacity="1" transform="translate(0 0)  rotate(0 10 10)"><mask id="bg-mask-0" fill="white"><use xlink:href="#path_0"></use></mask><g mask="url(#bg-mask-0)" ><path  id="路径 1" style="stroke:#F9F9F9; stroke-width:1.3333333333333333; stroke-opacity:1; stroke-dasharray:0 0" transform="translate(12.5 2.5)  rotate(0 2.083333333333333 2.083333333333333)" d="M4.17,2.08C4.17,0.93 3.23,0 2.08,0C0.93,0 0,0.93 0,2.08C0,3.23 0.93,4.17 2.08,4.17C3.23,4.17 4.17,3.23 4.17,2.08Z " /><path  id="路径 2" style="stroke:#F9F9F9; stroke-width:1.3333333333333333; stroke-opacity:1; stroke-dasharray:0 0" transform="translate(3.333333333333352 7.916666666666704)  rotate(0 2.083333333333333 2.083333333333333)" d="M4.17,2.08C4.17,0.93 3.23,0 2.08,0C0.93,0 0,0.93 0,2.08C0,3.23 0.93,4.17 2.08,4.17C3.23,4.17 4.17,3.23 4.17,2.08Z " /><path  id="路径 3" style="stroke:#F9F9F9; stroke-width:1.3333333333333333; stroke-opacity:1; stroke-dasharray:0 0" transform="translate(7.224708333333304 5.656041666666681)  rotate(0 2.6377291666666656 1.5981041666666664)" d="M5.28,0L0,3.2 " /><path  id="路径 4" style="stroke:#F9F9F9; stroke-width:1.3333333333333333; stroke-opacity:1; stroke-dasharray:0 0" transform="translate(7.224375000000023 11.068291666666676)  rotate(0 2.7792499999999998 1.6422916666666665)" d="M0,0L5.56,3.28 " /><path  id="路径 5" style="stroke:#F9F9F9; stroke-width:1.3333333333333333; stroke-opacity:1; stroke-dasharray:0 0" transform="translate(12.5 13.333333333333295)  rotate(0 2.083333333333333 2.083333333333333)" d="M0,2.08C0,3.23 0.93,4.17 2.08,4.17C3.23,4.17 4.17,3.23 4.17,2.08C4.17,0.93 3.23,0 2.08,0C0.93,0 0,0.93 0,2.08Z " /></g></g></svg>