<svg xmlns="http://www.w3.org/2000/svg" xmlns:xlink="http://www.w3.org/1999/xlink" width="20" height="20" viewBox="0 0 20 20" fill="none"><defs><rect id="path_0" x="0" y="0" width="20" height="20" /></defs><g opacity="1" transform="translate(0 0)  rotate(0 10 10)"><mask id="bg-mask-0" fill="white"><use xlink:href="#path_0"></use></mask><g mask="url(#bg-mask-0)" ><path  id="路径 1" style="stroke:#F9F9F9; stroke-width:2; stroke-opacity:1; stroke-dasharray:0 0" transform="translate(5 2.5)  rotate(0 2.916666666666667 2.916666666666667)" d="M5.83,2.92C5.83,1.31 4.53,0 2.92,0C1.31,0 0,1.31 0,2.92C0,4.53 1.31,5.83 2.92,5.83C4.53,5.83 5.83,4.53 5.83,2.92Z " /><path  id="路径 2" style="stroke:#F9F9F9; stroke-width:2; stroke-opacity:1; stroke-dasharray:0 0" transform="translate(13.586541666666662 2.916666666666667)  rotate(0 0.7067500000000004 2.5)" d="M0,0C0.85,0.51 1.41,1.44 1.41,2.5C1.41,3.56 0.85,4.49 0,5 " /><path  id="路径 3" style="stroke:#F9F9F9; stroke-width:2; stroke-opacity:1; stroke-dasharray:0 0" transform="translate(1.6666666666666667 11.666666666666668)  rotate(0 6.25 2.916666666666667)" d="M0.36,1.82C0,2.53 0,3.47 0,5.33L0,5.83L12.5,5.83L12.5,5.33C12.5,3.47 12.5,2.53 12.14,1.82C11.82,1.19 11.31,0.68 10.68,0.36C9.97,0 9.03,0 7.17,0L5.33,0C3.47,0 2.53,0 1.82,0.36C1.19,0.68 0.68,1.19 0.36,1.82Z " /><path  id="路径 4" style="stroke:#F9F9F9; stroke-width:2; stroke-opacity:1; stroke-dasharray:0 0" transform="translate(16.51325 12.030041666666666)  rotate(0 0.9100208333333331 2.7350000000000008)" d="M1.82,5.47L1.82,4.97C1.82,3.1 1.82,2.17 1.46,1.46C1.14,0.83 0.63,0.32 0,0 " /></g></g></svg>