<svg xmlns="http://www.w3.org/2000/svg" xmlns:xlink="http://www.w3.org/1999/xlink" width="20" height="20" viewBox="0 0 20 20" fill="none"><defs><rect id="path_0" x="0" y="0" width="20" height="20" /></defs><g opacity="1" transform="translate(0 0)  rotate(0 10 10)"><mask id="bg-mask-0" fill="white"><use xlink:href="#path_0"></use></mask><g mask="url(#bg-mask-0)" ><path  id="路径 1" style="stroke:#F9F9F9; stroke-width:2; stroke-opacity:1; stroke-dasharray:0 0" transform="translate(6.666666666666667 1.6666666666666667)  rotate(0 3.3333333333333335 3.3333333333333335)" d="M3.33,0C1.49,0 0,1.49 0,3.33C0,5.17 1.49,6.67 3.33,6.67C5.17,6.67 6.67,5.17 6.67,3.33C6.67,1.49 5.17,0 3.33,0Z " /><path  id="路径 2" style="stroke:#F9F9F9; stroke-width:2; stroke-opacity:1; stroke-dasharray:0 0" transform="translate(2.5 10.833333333333334)  rotate(0 7.5 3.75)" d="M15,7.5C15,3.36 11.64,0 7.5,0C3.36,0 0,3.36 0,7.5 " /></g></g></svg>