<svg xmlns="http://www.w3.org/2000/svg" xmlns:xlink="http://www.w3.org/1999/xlink" width="32" height="32" viewBox="0 0 32 32" fill="none"><g opacity="1" transform="translate(0 0.000005510118171514478)  rotate(0 16 16.000001271565857)"><path id="" fill-rule="evenodd" style="fill:#3F85FB" transform="translate(0 0)  rotate(0 16 16.000001271565857)" opacity="1" d="M32 16C32 7.16 24.84 0 16 0C7.16 0 0 7.16 0 16C0 24.84 7.16 32 16 32C24.84 32 32 24.84 32 16Z M21.7243 24.8536C22.0543 24.3136 20.6943 23.8136 20.0943 23.6236C21.3343 22.5636 21.9143 21.1036 21.9143 19.9936C21.9143 19.9936 23.1043 21.9236 23.5143 21.8736C23.7043 21.8536 23.9643 20.8136 23.1843 18.3136C22.8143 17.1336 22.3943 16.1436 21.7543 14.5336C21.8543 10.2836 20.0943 6.85356 16.0243 6.85356C11.9143 6.85356 10.1843 10.3536 10.2943 14.5336C9.64429 16.1536 9.22429 17.1336 8.85429 18.3136C8.07429 20.8136 8.32429 21.8436 8.52429 21.8736C8.93429 21.9236 10.1243 19.9936 10.1243 19.9936C10.1243 21.1136 10.7043 22.5736 11.9543 23.6236C11.3443 23.8136 9.99429 24.3136 10.3143 24.8536C10.5743 25.2936 14.8043 25.1336 16.0243 24.9936C17.2443 25.1336 21.4643 25.2936 21.7243 24.8536Z " /></g></svg>