<svg xmlns="http://www.w3.org/2000/svg" xmlns:xlink="http://www.w3.org/1999/xlink" width="16" height="16" viewBox="0 0 16 16" fill="none"><defs><rect id="path_0" x="0" y="0" width="16" height="16" /></defs><g opacity="1" transform="translate(0 0)  rotate(0 8 8)"><mask id="bg-mask-0" fill="white"><use xlink:href="#path_0"></use></mask><g mask="url(#bg-mask-0)" ><path  id="路径 1" style="stroke:#8F79D4; stroke-width:1.3333333333333333; stroke-opacity:1; stroke-dasharray:0 0" transform="translate(1.3333333333333333 1.3333333333333333)  rotate(0 6.666666666666666 6.666666666666666)" d="M6.67,0C2.98,0 0,2.98 0,6.67C0,10.35 2.98,13.33 6.67,13.33C10.35,13.33 13.33,10.35 13.33,6.67C13.33,2.98 10.35,0 6.67,0Z " /><path id="路径 2" fill-rule="evenodd" style="fill:#8F79D4" transform="translate(5.333333333333333 5.333333333333333)  rotate(0 2.6666666666666665 2.6666666666666665)" opacity="1" d="M2.67,0C1.19,0 0,1.19 0,2.67C0,4.14 1.19,5.33 2.67,5.33C4.14,5.33 5.33,4.14 5.33,2.67C5.33,1.19 4.14,0 2.67,0Z " /><path  id="路径 2" style="stroke:#8F79D4; stroke-width:1.3333333333333333; stroke-opacity:1; stroke-dasharray:0 0" transform="translate(5.333333333333333 5.333333333333333)  rotate(0 2.6666666666666665 2.6666666666666665)" d="M2.67,0C1.19,0 0,1.19 0,2.67C0,4.14 1.19,5.33 2.67,5.33C4.14,5.33 5.33,4.14 5.33,2.67C5.33,1.19 4.14,0 2.67,0Z " /></g></g></svg>