<svg xmlns="http://www.w3.org/2000/svg" xmlns:xlink="http://www.w3.org/1999/xlink" width="20" height="20" viewBox="0 0 20 20" fill="none"><defs><rect id="path_0" x="0" y="0" width="20" height="20" /></defs><g opacity="1" transform="translate(0 0)  rotate(0 10 10)"><mask id="bg-mask-0" fill="white"><use xlink:href="#path_0"></use></mask><g mask="url(#bg-mask-0)" ><path  id="路径 1" style="stroke:#F9F9F9; stroke-width:2; stroke-opacity:1; stroke-dasharray:0 0" transform="translate(1.6666666666666667 2.916666666666667)  rotate(0 8.333333333333334 7.083333333333334)" d="M16.67,7.08L12.5,0L4.17,0L0,7.08L4.17,14.17L12.5,14.17L16.67,7.08Z " /><path  id="路径 2" style="stroke:#F9F9F9; stroke-width:2; stroke-opacity:1; stroke-dasharray:0 0" transform="translate(7.916666666666667 7.916666666666667)  rotate(0 2.0833333333333335 2.0833333333333335)" d="M4.17,2.08C4.17,0.93 3.23,0 2.08,0C0.93,0 0,0.93 0,2.08C0,3.23 0.93,4.17 2.08,4.17C3.23,4.17 4.17,3.23 4.17,2.08Z " /></g></g></svg>