<svg xmlns="http://www.w3.org/2000/svg" xmlns:xlink="http://www.w3.org/1999/xlink" width="24" height="24" viewBox="0 0 24 24" fill="none"><g opacity="1" transform="translate(0 0)  rotate(0 12 12)"><path id="star" fill-rule="evenodd" style="fill:#808080" transform="translate(4 4.344009599426386)  rotate(0 8 7.655990400573622)" opacity="1" d="M15.75 6.73C16.25 6.17 15.96 5.29 15.23 5.13L11.01 4.21L8.84 0.48C8.46 -0.16 7.54 -0.16 7.16 0.48L4.99 4.21L0.77 5.13C0.04 5.29 -0.25 6.17 0.25 6.73L3.12 9.94L2.69 14.24C2.61 14.98 3.37 15.53 4.05 15.23L8 13.49L11.95 15.23C12.63 15.53 13.39 14.98 13.31 14.24L12.88 9.94L15.75 6.73ZM4.7 9.85C4.73 9.57 4.64 9.3 4.46 9.1L2.07 6.44L5.57 5.68C5.83 5.62 6.06 5.45 6.2 5.22L8 2.13L9.8 5.22C9.94 5.45 10.17 5.62 10.43 5.68L13.93 6.44L11.54 9.1C11.36 9.3 11.27 9.57 11.3 9.85L11.66 13.4L8.39 11.96C8.14 11.85 7.86 11.85 7.61 11.96L4.34 13.4L4.7 9.85Z" /></g></svg>