<svg xmlns="http://www.w3.org/2000/svg" xmlns:xlink="http://www.w3.org/1999/xlink" width="14" height="14" viewBox="0 0 14 14" fill="none"><defs><rect id="path_0" x="0" y="0" width="14" height="14" /></defs><g opacity="1" transform="translate(0 0)  rotate(0 7 7)"><mask id="bg-mask-0" fill="white"><use xlink:href="#path_0"></use></mask><g mask="url(#bg-mask-0)" ><path  id="路径 1" style="stroke:#E5E5E5; stroke-width:1.1666666666666667; stroke-opacity:1; stroke-dasharray:0 0" transform="translate(1.4583333333333335 1.724934166666667)  rotate(0 5.541666666666667 2.333339166666667)" d="M4.38,2.33L0,2.33L0,4.67L11.08,4.67L11.08,2.33L6.71,2.33L6.71,0L4.38,0L4.38,2.33Z " /><path id="路径 2" fill-rule="evenodd" style="fill:#E5E5E5" transform="translate(2.3333333333333335 6.416666666666667)  rotate(0 4.666666666666667 2.625)" opacity="1" d="M9.33,5.25L9.33,0L0,0L0,5.25L9.33,5.25Z " /><path  id="路径 2" style="stroke:#E5E5E5; stroke-width:1.1666666666666667; stroke-opacity:1; stroke-dasharray:0 0" transform="translate(2.3333333333333335 6.416666666666667)  rotate(0 4.666666666666667 2.625)" d="M9.33,5.25L9.33,0L0,0L0,5.25L9.33,5.25Z " /><path  id="路径 3" style="stroke:#8F79D4; stroke-width:1.1666666666666667; stroke-opacity:1; stroke-dasharray:0 0" transform="translate(4.666666666666667 9.891612500000003)  rotate(0 0 0.87259375)" d="M0,1.75L0,0 " /><path  id="路径 4" style="stroke:#8F79D4; stroke-width:1.1666666666666667; stroke-opacity:1; stroke-dasharray:0 0" transform="translate(7 9.886829166666667)  rotate(0 0 0.875)" d="M0,1.75L0,0 " /><path  id="路径 5" style="stroke:#8F79D4; stroke-width:1.1666666666666667; stroke-opacity:1; stroke-dasharray:0 0" transform="translate(9.333333333333334 9.891612500000003)  rotate(0 0 0.87259375)" d="M0,1.75L0,0 " /><path  id="路径 6" style="stroke:#E5E5E5; stroke-width:1.1666666666666667; stroke-opacity:1; stroke-dasharray:0 0" transform="translate(3.5 11.666666666666668)  rotate(0 3.5 0)" d="M0,0L7,0 " /></g></g></svg>