<svg xmlns="http://www.w3.org/2000/svg" xmlns:xlink="http://www.w3.org/1999/xlink" width="24" height="24" viewBox="0 0 24 24" fill="none"><defs><rect id="path_0" x="0" y="0" width="24" height="24" /></defs><g opacity="1" transform="translate(0 0)  rotate(0 12 12)"><mask id="bg-mask-0" fill="white"><use xlink:href="#path_0"></use></mask><g mask="url(#bg-mask-0)" ><path id="分组 1" fill-rule="evenodd" style="fill:#808080" transform="translate(1.5726562499999999 1.502329491110927)  rotate(0 10.427343749999999 10.497663379444536)" opacity="1" d="M16.74 2.51C16.25 1.46 15.38 0.66 14.29 0.26C13.2 -0.13 12.02 -0.08 10.97 0.41L5.15 3.12C4.93 3.22 4.78 3.41 4.7 3.62L4.35 3.62C1.95 3.62 0 5.57 0 7.96L0 16.65C0 19.05 1.95 21 4.35 21L16.51 21C18.9 21 20.85 19.05 20.85 16.65L20.85 7.96C20.85 5.82 19.3 4.05 17.26 3.69C17.25 3.64 17.25 3.59 17.22 3.54L16.74 2.51Z M8.20078 3.62016L15.3408 3.62016L15.1708 3.24016C14.8708 2.62016 14.3508 2.14016 13.7008 1.90016C13.0408 1.66016 12.3308 1.69016 11.7008 1.98016L8.20078 3.62016Z M19.1194 9.7008L15.3694 9.7008C13.9294 9.7008 12.7594 10.8708 12.7594 12.3108C12.7594 13.7408 13.9294 14.9108 15.3694 14.9108L19.1194 14.9108L19.1194 9.7008Z M19.1191 16.6555L15.3691 16.6555C12.9691 16.6555 11.0191 14.7055 11.0191 12.3055C11.0191 9.91548 12.9691 7.96548 15.3691 7.96548L19.1191 7.96548C19.1191 6.52548 17.9491 5.35548 16.5091 5.35548L4.34906 5.35548C2.90906 5.35548 1.73906 6.52548 1.73906 7.96548L1.73906 16.6555C1.73906 18.0855 2.90906 19.2555 4.34906 19.2555L16.5091 19.2555C17.9491 19.2555 19.1191 18.0855 19.1191 16.6555Z " /><path id="路径 5" fill-rule="evenodd" style="fill:#808080" transform="translate(15.403125 12.072656250000001)  rotate(0 1.7367187499999992 1.736718775538312)" opacity="1" d="M0.87,3.24C1.41,3.55 2.07,3.55 2.61,3.24C3.14,2.93 3.47,2.36 3.47,1.74C3.47,0.78 2.7,0 1.74,0C0.78,0 0,0.78 0,1.74C0,2.36 0.33,2.93 0.87,3.24Z " /></g></g></svg>