<svg xmlns="http://www.w3.org/2000/svg" xmlns:xlink="http://www.w3.org/1999/xlink" width="32" height="32" viewBox="0 0 32 32" fill="none"><g opacity="1" transform="translate(0 0.000006781684078305261)  rotate(0 16 16)"><path id="path" fill-rule="evenodd" style="fill:#5DBD67" transform="translate(9.460845947265625 10.6201171875)  rotate(0 1.0202891031901042 0.9275360107421875)" opacity="1" d="M2.04,0.93C2.04,0.35 1.67,0 1.11,0C0.56,0 0,0.37 0,0.93C0,1.48 0.56,1.86 1.11,1.86C1.67,1.86 2.04,1.48 2.04,0.93Z " /><path id="path" fill-rule="evenodd" style="fill:#5DBD67" transform="translate(17.391276041666668 15.999837239583334)  rotate(0 0.8231887817382812 0.7420298258463541)" opacity="1" d="M1.65,0.74C1.65,0.37 1.28,0 0.72,0C0.35,0 0,0.39 0,0.74C0,1.14 0.37,1.48 0.72,1.48C1.28,1.48 1.65,1.11 1.65,0.74Z " /><path id="path" fill-rule="evenodd" style="fill:#5DBD67" transform="translate(14.608673095703125 10.6201171875)  rotate(0 1.0202891031901042 0.9275360107421875)" opacity="1" d="M0,0.93C0,1.48 0.56,1.86 1.11,1.86C1.67,1.86 2.04,1.46 2.04,0.93C2.04,0.37 1.67,0 1.11,0C0.56,0 0,0.37 0,0.93Z " /><path id="path" fill-rule="evenodd" style="fill:#5DBD67" transform="translate(21.426066080729168 15.999837239583334)  rotate(0 0.8231887817382812 0.7420298258463541)" opacity="1" d="M1.65,0.74C1.65,0.37 1.28,0 0.72,0C0.35,0 0,0.39 0,0.74C0,1.14 0.37,1.48 0.72,1.48C1.28,1.48 1.65,1.11 1.65,0.74Z " /><path id="" fill-rule="evenodd" style="fill:#5DBD67" transform="translate(0 0)  rotate(0 16 16)" opacity="1" d="M32 16C32 7.16 24.84 0 16 0C7.16 0 0 7.16 0 16C0 24.84 7.16 32 16 32C24.84 32 32 24.84 32 16Z " /><g opacity="1" transform="translate(6 5.333333333333333)  rotate(0 10.666666666666666 10.666666666666666)"><path id="矩形" fill-rule="evenodd" style="fill:#000000" transform="translate(0 0)  rotate(0 10.666666666666666 10.666666666666666)" opacity="0" d="M0,0L0,21.33L21.33,21.33L21.33,0C0,0 0,0 0,0Z " /><path id="形状" fill-rule="evenodd" style="fill:#FFFFFF" transform="translate(1.5627604166666664 3.2554361979166666)  rotate(0 9.067057291666666 7.308496093749998)" opacity="1" d="M1.93 11.5999L4.17 10.4899C4.97 10.6399 5.62 10.8099 6.42 10.8099C6.62 10.8099 6.82 10.7899 7.02 10.7799C6.89 10.3599 6.82 9.9099 6.82 9.4499C6.82 6.6699 9.23 4.4199 12.28 4.4199C12.48 4.4199 12.69 4.4399 12.89 4.4599C12.34 1.8999 9.57 -9.76563e-05 6.42 -9.76563e-05C2.89 -9.76563e-05 0 2.3799 0 5.3999C0 7.1499 0.96 8.5799 2.57 9.6899L1.93 11.5999Z M8.82159 2.70026C8.34159 2.70026 7.86159 3.02026 7.86159 3.49026C7.86159 3.97026 8.34159 4.29026 8.82159 4.29026C9.31159 4.29026 9.63159 3.97026 9.63159 3.49026C9.63159 3.02026 9.31159 2.70026 8.82159 2.70026Z M4.33667 4.29026C4.81667 4.29026 5.13667 3.97026 5.13667 3.49026C5.13667 3.02026 4.81667 2.70026 4.33667 2.70026C3.85667 2.70026 3.36667 3.02026 3.36667 3.49026C3.36667 3.97026 3.85667 4.29026 4.33667 4.29026Z M7.2237 9.37354C7.2237 11.9135 9.6237 13.9835 12.6837 13.9835C13.3237 13.9835 13.9637 13.8235 14.6037 13.6635L16.3737 14.6135L15.8837 13.0335C17.1737 12.0735 18.1337 10.8035 18.1337 9.37354C18.1337 6.83354 15.5637 4.76354 12.6837 4.76354C9.6237 4.76354 7.2237 6.83354 7.2237 9.37354Z M10.9104 8.57739C11.4004 8.57739 11.7204 8.26739 11.7204 7.93739C11.7204 7.62739 11.4004 7.30739 10.9104 7.30739C10.5904 7.30739 10.2704 7.62739 10.2704 7.93739C10.2704 8.26739 10.5904 8.57739 10.9104 8.57739Z M14.4451 8.57739C14.9251 8.57739 15.2451 8.26739 15.2451 7.93739C15.2451 7.62739 14.9251 7.30739 14.4451 7.30739C14.1251 7.30739 13.8051 7.62739 13.8051 7.93739C13.8051 8.26739 14.1251 8.57739 14.4451 8.57739Z " /></g></g></svg>