<svg xmlns="http://www.w3.org/2000/svg" xmlns:xlink="http://www.w3.org/1999/xlink" width="24" height="24" viewBox="0 0 24 24" fill="none"><defs><rect id="path_0" x="0" y="0" width="24" height="24" /></defs><g opacity="1" transform="translate(0 0)  rotate(0 12 12)"><mask id="bg-mask-0" fill="white"><use xlink:href="#path_0"></use></mask><g mask="url(#bg-mask-0)" ><path  id="路径 1" style="stroke:#333333; stroke-width:2; stroke-opacity:1; stroke-dasharray:0 0" transform="translate(2 3.5)  rotate(0 10 6.5)" d="M16,13L20,13L20,0L0,0L0,13L4,13L16,13Z " /><path  id="路径 2" style="stroke:#333333; stroke-width:2; stroke-opacity:1; stroke-dasharray:0 0" transform="translate(8 11)  rotate(0 0 1)" d="M0,0L0,2 " /><path  id="路径 3" style="stroke:#333333; stroke-width:2; stroke-opacity:1; stroke-dasharray:0 0" transform="translate(12 16.5)  rotate(0 0 1.5)" d="M0,0L0,3 " /><path  id="路径 4" style="stroke:#333333; stroke-width:2; stroke-opacity:1; stroke-dasharray:0 0" transform="translate(12 9)  rotate(0 0 2)" d="M0,0L0,4 " /><path  id="路径 5" style="stroke:#333333; stroke-width:2; stroke-opacity:1; stroke-dasharray:0 0" transform="translate(16 7)  rotate(0 0 3)" d="M0,0L0,6 " /><path  id="路径 6" style="stroke:#333333; stroke-width:2; stroke-opacity:1; stroke-dasharray:0 0" transform="translate(6 20.5)  rotate(0 6 0)" d="M0,0L12,0 " /></g></g></svg>