<svg xmlns="http://www.w3.org/2000/svg" xmlns:xlink="http://www.w3.org/1999/xlink" width="37" height="38" viewBox="0 0 37 38" fill="none"><g opacity="1" transform="translate(0 0)  rotate(0 18 18.88566625317045)"><g opacity="1" transform="translate(3.391494599555378 17.61172190236489)  rotate(0 14.616835182927195 7.408992145474558)"><g opacity="1" transform="translate(0 0)  rotate(0 14.616835182927195 7.408992145474558)"><g opacity="1" transform="translate(0 0)  rotate(0 14.616835182927195 7.408992145474558)"><g opacity="1" transform="translate(0 0)  rotate(0 14.616835182927195 7.408992145474558)"><g opacity="1" transform="translate(0 0)  rotate(0 14.616835182927195 7.408992145474558)"><g opacity="1" transform="translate(0 0)  rotate(0 14.616835182927195 7.408992145474558)"><g opacity="1" transform="translate(0 0)  rotate(0 14.616835182927195 7.408992145474558)"><g opacity="1" transform="translate(0 0)  rotate(0 14.616835182927195 7.408992145474558)"><path id="路径 605" fill-rule="evenodd" style="fill:#062236" transform="translate(13.320540931230278 13.812238750839441)  rotate(0 0.5922723736201335 0.5028727700548347)" opacity="1" d="M1.18,0.04C0.8,0.04 0.45,0.02 0.09,0L0,0.96C0.38,0.98 0.78,1.01 1.16,1.01L1.18,0.04Z " /><path id="路径 606" fill-rule="evenodd" style="fill:#062236" transform="translate(15.577880921254211 13.700489246382816)  rotate(0 0.6034473240658055 0.5363976213918186)" opacity="1" d="M1.21,0.96L1.07,0C0.72,0.04 0.36,0.09 0,0.11L0.07,1.07C0.47,1.05 0.85,1.01 1.21,0.96Z " /><path id="路径 607" fill-rule="evenodd" style="fill:#062236" transform="translate(11.040851040315033 13.432290435686866)  rotate(0 0.6593220762941204 0.5922723736201462)" opacity="1" d="M1.32,0.22C0.96,0.16 0.6,0.09 0.25,0L0,0.94C0.38,1.05 0.76,1.12 1.14,1.18L1.32,0.22Z " /><path id="路径 608" fill-rule="evenodd" style="fill:#062236" transform="translate(17.723471406821496 13.186441525882302)  rotate(0 0.6704970267397796 0.6146222745114646)" opacity="1" d="M1.34,0.92L1.05,0C0.69,0.11 0.36,0.2 0,0.29L0.22,1.23C0.6,1.16 0.98,1.05 1.34,0.92Z " /><path id="路径 609" fill-rule="evenodd" style="fill:#062236" transform="translate(8.828210852073765 12.717093607164479)  rotate(0 0.6928469276311043 0.6593220762941139)" opacity="1" d="M1.39,0.38C1.05,0.27 0.72,0.13 0.38,0L0,0.89C0.36,1.05 0.74,1.18 1.1,1.32L1.39,0.38Z " /><path id="路径 610" fill-rule="evenodd" style="fill:#062236" transform="translate(19.802012189714816 12.381845093794567)  rotate(0 0.715196828522429 0.6704970267397795)" opacity="1" d="M1.43,0.85L0.98,0C0.67,0.16 0.34,0.31 0,0.45L0.36,1.34C0.72,1.18 1.07,1.03 1.43,0.85Z " /><path id="路径 611" fill-rule="evenodd" style="fill:#062236" transform="translate(6.772019970071764 11.733697967946114)  rotate(0 0.7263717789680946 0.6928469276311106)" opacity="1" d="M1.45,0.54C1.14,0.38 0.83,0.2 0.51,0L0,0.8C0.34,1.01 0.67,1.21 1.01,1.39L1.45,0.54Z " /><path id="路径 612" fill-rule="evenodd" style="fill:#062236" transform="translate(21.724103666368855 11.242000148336928)  rotate(0 0.7263717789680946 0.7151968285224416)" opacity="1" d="M1.45,0.78L0.89,0C0.6,0.2 0.31,0.42 0,0.6L0.51,1.43C0.85,1.23 1.16,1.01 1.45,0.78Z " /><path id="路径 613" fill-rule="evenodd" style="fill:#062236" transform="translate(4.916978196091717 10.415053815357886)  rotate(0 0.7487216798594193 0.7263717789680945)" opacity="1" d="M1.5,0.69C1.21,0.47 0.92,0.25 0.65,0L0,0.72C0.29,0.96 0.58,1.23 0.89,1.45L1.5,0.69Z " /><path id="路径 614" fill-rule="evenodd" style="fill:#062236" transform="translate(23.489745836783605 9.811606491292096)  rotate(0 0.7487216798594256 0.7375467294137473)" opacity="1" d="M1.5,0.67L0.8,0C0.54,0.25 0.27,0.49 0,0.74L0.63,1.48C0.92,1.23 1.21,0.96 1.5,0.67Z " /><path id="路径 615" fill-rule="evenodd" style="fill:#062236" transform="translate(3.307785331916236 8.850560752965066)  rotate(0 0.7263717789680946 0.73754672941376)" opacity="1" d="M1.45,0.8C1.21,0.56 0.96,0.27 0.74,0L0,0.6C0.25,0.89 0.51,1.21 0.78,1.48L1.45,0.8Z " /><path id="路径 616" fill-rule="evenodd" style="fill:#062236" transform="translate(25.03188899828509 8.180063726225313)  rotate(0 0.7263717789680946 0.7375467294137473)" opacity="1" d="M1.45,0.56L0.67,0C0.47,0.29 0.22,0.58 0,0.85L0.74,1.48C0.98,1.18 1.23,0.87 1.45,0.56Z " /><path id="路径 617" fill-rule="evenodd" style="fill:#062236" transform="translate(1.9891411793280067 7.062568681658988)  rotate(0 0.7040218780767699 0.73754672941376)" opacity="1" d="M1.41,0.92C1.21,0.63 1.01,0.31 0.83,0L0,0.49C0.2,0.83 0.4,1.16 0.63,1.48L1.41,0.92Z " /><path id="路径 618" fill-rule="evenodd" style="fill:#062236" transform="translate(26.305833349090683 6.302672051353909)  rotate(0 0.6928469276311043 0.7263717789680945)" opacity="1" d="M1.39,0.42L0.54,0C0.36,0.34 0.18,0.65 0,0.96L0.83,1.45C1.03,1.12 1.21,0.78 1.39,0.42Z " /><path id="路径 619" fill-rule="evenodd" style="fill:#062236" transform="translate(0.961045738327007 5.095777403222314)  rotate(0 0.6593220762941141 0.7151968285224289)" opacity="1" d="M1.32,1.01C1.16,0.67 1.03,0.34 0.89,0L0,0.36C0.16,0.72 0.31,1.07 0.47,1.43L1.32,1.01Z " /><path id="路径 620" fill-rule="evenodd" style="fill:#062236" transform="translate(27.266879087417706 4.291180971134544)  rotate(0 0.6369721754027957 0.6928469276311106)" opacity="1" d="M1.27,0.29L0.36,0C0.27,0.36 0.13,0.69 0,1.03L0.89,1.39C1.05,1.03 1.18,0.67 1.27,0.29Z " /><path id="路径 621" fill-rule="evenodd" style="fill:#062236" transform="translate(0.3128986124785591 3.039586521220315)  rotate(0 0.6034473240657992 0.6593220762941139)" opacity="1" d="M1.21,1.05C1.1,0.72 1.01,0.36 0.94,0L0,0.2C0.09,0.56 0.18,0.94 0.29,1.32L1.21,1.05Z " /><path id="路径 622" fill-rule="evenodd" style="fill:#062236" transform="translate(27.93737611415748 2.1679403864586035)  rotate(0 0.5810974231744744 0.6481471258484485)" opacity="1" d="M1.16,0.13L0.2,0C0.16,0.36 0.09,0.72 0,1.07L0.94,1.3C1.01,0.92 1.1,0.54 1.16,0.13Z " /><path id="路径 623" fill-rule="evenodd" style="fill:#062236" transform="translate(0 0.8716461347616828)  rotate(0 0.5252226709461594 0.6034473240658117)" opacity="1" d="M1.05,1.07C1.01,0.72 0.98,0.36 0.96,0L0,0.04C0.02,0.42 0.07,0.83 0.11,1.21L1.05,1.07Z " /><path id="路径 624" fill-rule="evenodd" style="fill:#062236" transform="translate(28.250274726636043 0)  rotate(0 0.4916978196091755 0.5810974231744679)" opacity="1" d="M0.98,0.2C0.98,0.13 0.98,0.07 0.98,0L0.02,0.02C0.02,0.07 0.02,0.13 0.02,0.2C0.02,0.49 0.02,0.8 0,1.1L0.96,1.16C0.96,0.85 0.98,0.51 0.98,0.2Z " /></g></g></g></g></g></g></g></g><g opacity="1" transform="translate(3.8831924191645597 2.6372883051764813)  rotate(0 14.147487264209346 13.890463403959107)"><g opacity="1" transform="translate(1.3633439543708636 0.6928469276310967)  rotate(0 12.761793408947144 5.408676015700891)"><g opacity="1" transform="translate(0 0)  rotate(0 12.761793408947144 5.408676015700891)"><g opacity="1" transform="translate(0 0)  rotate(0 12.761793408947144 5.408676015700891)"><g opacity="1" transform="translate(0 0)  rotate(0 12.761793408947144 5.408676015700891)"><g opacity="1" transform="translate(0 0)  rotate(0 12.761793408947144 5.408676015700891)"><g opacity="1" transform="translate(0 0)  rotate(0 12.761793408947144 5.408676015700891)"><g opacity="1" transform="translate(0 0)  rotate(0 12.761793408947144 5.408676015700891)"><g opacity="1" transform="translate(0 0)  rotate(0 12.761793408947144 5.408676015700891)"><path id="路径 625" fill-rule="evenodd" style="fill:#FDD315" transform="translate(0 0)  rotate(0 12.761793408947144 5.408676015700886)" opacity="1" d="M12.63,0L0,10.82L25.52,10.82L12.63,0Z " /></g></g></g></g></g></g></g></g><g opacity="1" transform="translate(4.916978196091703 7.97891461820336)  rotate(0 9.17463431588932 0.5140477205005128)"><g opacity="1" transform="translate(0 0)  rotate(0 0.2570238602502501 0.5140477205005002)"><g opacity="1" transform="translate(0 0)  rotate(0 0.2570238602502501 0.5140477205005002)"><g opacity="1" transform="translate(0 0)  rotate(0 0.2570238602502501 0.5140477205005002)"><g opacity="1" transform="translate(0 0)  rotate(0 0.2570238602502501 0.5140477205005002)"><g opacity="1" transform="translate(0 0)  rotate(0 0.2570238602502501 0.5140477205005002)"><g opacity="1" transform="translate(0 0)  rotate(0 0.2570238602502501 0.5140477205005002)"><g opacity="1" transform="translate(0 0)  rotate(0 0.2570238602502501 0.5140477205005002)"><g opacity="1" transform="translate(0 0)  rotate(0 0.2570238602502501 0.5140477205005002)"><path id="路径 626" fill-rule="evenodd" style="fill:#FFFFFF" transform="translate(0 0)  rotate(0 0.2570238602502488 0.5140477205004976)" opacity="1" d="M0,1.03L0.51,1.03L0.51,0L0,0L0,1.03Z " /></g></g></g></g></g></g></g></g><g opacity="1" transform="translate(1.5197932606101716 2.1316282072803006e-14)  rotate(0 7.654841055279156 0.5140477205005002)"><g opacity="1" transform="translate(0 0)  rotate(0 7.654841055279156 0.5140477205005002)"><g opacity="1" transform="translate(0 0)  rotate(0 7.654841055279156 0.5140477205005002)"><g opacity="1" transform="translate(0 0)  rotate(0 7.654841055279156 0.5140477205005002)"><g opacity="1" transform="translate(0 0)  rotate(0 7.654841055279156 0.5140477205005002)"><g opacity="1" transform="translate(0 0)  rotate(0 7.654841055279156 0.5140477205005002)"><g opacity="1" transform="translate(0 0)  rotate(0 7.654841055279156 0.5140477205005002)"><g opacity="1" transform="translate(0 0)  rotate(0 7.654841055279156 0.5140477205005002)"><g opacity="1" transform="translate(0 0)  rotate(0 7.654841055279156 0.5140477205005002)"><path id="路径 627" fill-rule="evenodd" style="fill:#FFFFFF" transform="translate(14.281586669557313 0)  rotate(0 0.5140477205005002 0.5140477205005002)" opacity="1" d="M1.03,0L0,0L0,1.03L1.03,1.03L1.03,0Z " /><path id="路径 628" fill-rule="evenodd" style="fill:#FFFFFF" transform="translate(12.225395787555314 0)  rotate(0 0.5140477205005002 0.5140477205005002)" opacity="1" d="M1.03,0L0,0L0,1.03L1.03,1.03L1.03,0Z " /><path id="路径 629" fill-rule="evenodd" style="fill:#FFFFFF" transform="translate(10.191554806444653 0)  rotate(0 0.5140477205005002 0.5140477205005002)" opacity="1" d="M1.03,0L0,0L0,1.03L1.03,1.03L1.03,0Z " /><path id="路径 630" fill-rule="evenodd" style="fill:#FFFFFF" transform="translate(8.157713825333985 0)  rotate(0 0.5140477205005002 0.5140477205005002)" opacity="1" d="M1.03,0L0,0L0,1.03L1.03,1.03L1.03,0Z " /><path id="路径 631" fill-rule="evenodd" style="fill:#FFFFFF" transform="translate(6.123872844223328 0)  rotate(0 0.5140477205005002 0.5140477205005002)" opacity="1" d="M1.03,0L0,0L0,1.03L1.03,1.03L1.03,0Z " /><path id="路径 632" fill-rule="evenodd" style="fill:#FFFFFF" transform="translate(4.090031863112657 0)  rotate(0 0.5140477205005002 0.5140477205005002)" opacity="1" d="M1.03,0L0,0L0,1.03L1.03,1.03L1.03,0Z " /><path id="路径 633" fill-rule="evenodd" style="fill:#FFFFFF" transform="translate(2.0338409811106715 0)  rotate(0 0.5140477205005002 0.5140477205005002)" opacity="1" d="M1.03,0L0,0L0,1.03L1.03,1.03L1.03,0Z " /><path id="路径 634" fill-rule="evenodd" style="fill:#FFFFFF" transform="translate(0 0)  rotate(0 0.5140477205005002 0.5140477205005002)" opacity="1" d="M1.03,0L0,0L0,1.03L1.03,1.03L1.03,0Z " /></g></g></g></g></g></g></g></g></g><g opacity="1" transform="translate(17.835220911278142 0)  rotate(0 0.2570238602502501 0.5140477205005002)"><g opacity="1" transform="translate(0 0)  rotate(0 0.2570238602502501 0.5140477205005002)"><g opacity="1" transform="translate(0 0)  rotate(0 0.2570238602502501 0.5140477205005002)"><g opacity="1" transform="translate(0 0)  rotate(0 0.2570238602502501 0.5140477205005002)"><g opacity="1" transform="translate(0 0)  rotate(0 0.2570238602502501 0.5140477205005002)"><g opacity="1" transform="translate(0 0)  rotate(0 0.2570238602502501 0.5140477205005002)"><g opacity="1" transform="translate(0 0)  rotate(0 0.2570238602502501 0.5140477205005002)"><g opacity="1" transform="translate(0 0)  rotate(0 0.2570238602502501 0.5140477205005002)"><path id="路径 635" fill-rule="evenodd" style="fill:#FFFFFF" transform="translate(0 0)  rotate(0 0.2570238602502488 0.5140477205004976)" opacity="1" d="M0,1.03L0.51,1.03L0.51,0L0,0L0,1.03Z " /></g></g></g></g></g></g></g></g></g><g opacity="1" transform="translate(8.18006372622529 5.162827105896281)  rotate(0 5.878023934418737 0.5140477205005002)"><g opacity="1" transform="translate(0 0)  rotate(0 0.2570238602502501 0.5140477205005002)"><g opacity="1" transform="translate(0 0)  rotate(0 0.2570238602502501 0.5140477205005002)"><g opacity="1" transform="translate(0 0)  rotate(0 0.2570238602502501 0.5140477205005002)"><g opacity="1" transform="translate(0 0)  rotate(0 0.2570238602502501 0.5140477205005002)"><g opacity="1" transform="translate(0 0)  rotate(0 0.2570238602502501 0.5140477205005002)"><g opacity="1" transform="translate(0 0)  rotate(0 0.2570238602502501 0.5140477205005002)"><g opacity="1" transform="translate(0 0)  rotate(0 0.2570238602502501 0.5140477205005002)"><g opacity="1" transform="translate(0 0)  rotate(0 0.2570238602502501 0.5140477205005002)"><path id="路径 636" fill-rule="evenodd" style="fill:#FFFFFF" transform="translate(0 0)  rotate(0 0.2570238602502488 0.5140477205004976)" opacity="1" d="M0,1.03L0.51,1.03L0.51,0L0,0L0,1.03Z " /></g></g></g></g></g></g></g></g><g opacity="1" transform="translate(1.4750934588275229 0)  rotate(0 4.391755525145558 0.5140477205005002)"><g opacity="1" transform="translate(0 0)  rotate(0 4.391755525145558 0.5140477205005002)"><g opacity="1" transform="translate(0 0)  rotate(0 4.391755525145558 0.5140477205005002)"><g opacity="1" transform="translate(0 0)  rotate(0 4.391755525145558 0.5140477205005002)"><g opacity="1" transform="translate(0 0)  rotate(0 4.391755525145558 0.5140477205005002)"><g opacity="1" transform="translate(0 0)  rotate(0 4.391755525145558 0.5140477205005002)"><g opacity="1" transform="translate(0 0)  rotate(0 4.391755525145558 0.5140477205005002)"><g opacity="1" transform="translate(0 0)  rotate(0 4.391755525145558 0.5140477205005002)"><g opacity="1" transform="translate(0 0)  rotate(0 4.391755525145558 0.5140477205005002)"><path id="路径 637" fill-rule="evenodd" style="fill:#FFFFFF" transform="translate(7.800115411072774 0)  rotate(0 0.49169781960916914 0.5140477205005002)" opacity="1" d="M0.98,0L0,0L0,1.03L0.98,1.03L0.98,0Z " /><path id="路径 638" fill-rule="evenodd" style="fill:#FFFFFF" transform="translate(5.855674033527421 0)  rotate(0 0.49169781960916914 0.5140477205005002)" opacity="1" d="M0.98,0L0,0L0,1.03L0.98,1.03L0.98,0Z " /><path id="路径 639" fill-rule="evenodd" style="fill:#FFFFFF" transform="translate(3.8888827550907266 0)  rotate(0 0.49169781960916914 0.5140477205005002)" opacity="1" d="M0.98,0L0,0L0,1.03L0.98,1.03L0.98,0Z " /><path id="路径 640" fill-rule="evenodd" style="fill:#FFFFFF" transform="translate(1.9444413775453668 0)  rotate(0 0.49169781960916914 0.5140477205005002)" opacity="1" d="M0.98,0L0,0L0,1.03L0.98,1.03L0.98,0Z " /><path id="路径 641" fill-rule="evenodd" style="fill:#FFFFFF" transform="translate(0 0)  rotate(0 0.49169781960916914 0.5140477205005002)" opacity="1" d="M0.98,0L0,0L0,1.03L0.98,1.03L0.98,0Z " /></g></g></g></g></g></g></g></g></g><g opacity="1" transform="translate(11.242000148336974 0)  rotate(0 0.2570238602502501 0.5140477205005002)"><g opacity="1" transform="translate(0 0)  rotate(0 0.2570238602502501 0.5140477205005002)"><g opacity="1" transform="translate(0 0)  rotate(0 0.2570238602502501 0.5140477205005002)"><g opacity="1" transform="translate(0 0)  rotate(0 0.2570238602502501 0.5140477205005002)"><g opacity="1" transform="translate(0 0)  rotate(0 0.2570238602502501 0.5140477205005002)"><g opacity="1" transform="translate(0 0)  rotate(0 0.2570238602502501 0.5140477205005002)"><g opacity="1" transform="translate(0 0)  rotate(0 0.2570238602502501 0.5140477205005002)"><g opacity="1" transform="translate(0 0)  rotate(0 0.2570238602502501 0.5140477205005002)"><path id="路径 642" fill-rule="evenodd" style="fill:#FFFFFF" transform="translate(0 0)  rotate(0 0.2570238602502488 0.5140477205004976)" opacity="1" d="M0,1.03L0.51,1.03L0.51,0L0,0L0,1.03Z " /></g></g></g></g></g></g></g></g></g><g opacity="1" transform="translate(1.3633439543708636 0.6928469276310967)  rotate(0 12.761793408947144 5.408676015700891)"><g opacity="1" transform="translate(0 0)  rotate(0 12.761793408947144 5.408676015700891)"><g opacity="1" transform="translate(0 0)  rotate(0 12.761793408947144 5.408676015700891)"><g opacity="1" transform="translate(0 0)  rotate(0 12.761793408947144 5.408676015700891)"><g opacity="1" transform="translate(0 0)  rotate(0 12.761793408947144 5.408676015700891)"><g opacity="1" transform="translate(0 0)  rotate(0 12.761793408947144 5.408676015700891)"><g opacity="1" transform="translate(0 0)  rotate(0 12.761793408947144 5.408676015700891)"><g opacity="1" transform="translate(0 0)  rotate(0 12.761793408947144 5.408676015700891)"><path id="路径 643" fill-rule="evenodd" style="fill:#FFFFFF" transform="translate(0 0)  rotate(0 12.761793408947144 5.408676015700886)" opacity="1" d="M23.07,10.82L25.52,10.82L12.63,0L0,10.82L2.39,10.82L12.63,2.03L23.07,10.82Z " /></g></g></g></g></g></g></g></g><g opacity="1" transform="translate(0 0)  rotate(0 14.147487264209346 6.012123339766691)"><g opacity="1" transform="translate(0 0)  rotate(0 14.147487264209346 6.012123339766691)"><g opacity="1" transform="translate(0 0)  rotate(0 14.147487264209346 6.012123339766691)"><g opacity="1" transform="translate(0 0)  rotate(0 14.147487264209346 6.012123339766691)"><g opacity="1" transform="translate(0 0)  rotate(0 14.147487264209346 6.012123339766691)"><g opacity="1" transform="translate(0 0)  rotate(0 14.147487264209346 6.012123339766691)"><g opacity="1" transform="translate(0 0)  rotate(0 14.147487264209346 6.012123339766691)"><g opacity="1" transform="translate(0 0)  rotate(0 14.147487264209346 6.012123339766691)"><path id="分组 2091" fill-rule="evenodd" style="fill:#062236" transform="translate(0 0)  rotate(0 14.147487264209346 6.012123339766691)" opacity="1" d="M13.99 0L0 12.02L28.29 12.02L13.99 0Z M25.459 11.0233L13.989 1.36334L2.74904 11.0233L25.459 11.0233Z " /></g></g></g></g></g></g></g></g><g opacity="1" transform="translate(4.380580574699872 10.996151238532395)  rotate(0 9.74455678861813 8.39238778469291)"><g opacity="1" transform="translate(0.5140477205005034 0.5140477205004643)  rotate(0 9.230509068117629 7.878340064192409)"><g opacity="1" transform="translate(0 0)  rotate(0 9.230509068117629 7.878340064192409)"><g opacity="1" transform="translate(0 0)  rotate(0 9.230509068117629 7.878340064192409)"><g opacity="1" transform="translate(0 0)  rotate(0 9.230509068117629 7.878340064192409)"><g opacity="1" transform="translate(0 0)  rotate(0 9.230509068117629 7.878340064192409)"><g opacity="1" transform="translate(0 0)  rotate(0 9.230509068117629 7.878340064192409)"><g opacity="1" transform="translate(0 0)  rotate(0 9.230509068117629 7.878340064192409)"><g opacity="1" transform="translate(0 0)  rotate(0 9.230509068117629 7.878340064192409)"><path id="路径 646" fill-rule="evenodd" style="fill:#54A3DA" transform="translate(0 0)  rotate(0 9.230509068117632 7.878340064192409)" opacity="1" d="M0,15.76L18.46,15.76L18.46,0L0,0L0,15.76Z " /></g></g></g></g></g></g></g></g><g opacity="1" transform="translate(0.5140477205005034 0.5140477205004643)  rotate(0 9.230509068117629 0.7710715807507439)"><g opacity="1" transform="translate(0 0)  rotate(0 9.230509068117629 0.7710715807507439)"><g opacity="1" transform="translate(0 0)  rotate(0 9.230509068117629 0.7710715807507439)"><g opacity="1" transform="translate(0 0)  rotate(0 9.230509068117629 0.7710715807507439)"><g opacity="1" transform="translate(0 0)  rotate(0 9.230509068117629 0.7710715807507439)"><g opacity="1" transform="translate(0 0)  rotate(0 9.230509068117629 0.7710715807507439)"><g opacity="1" transform="translate(0 0)  rotate(0 9.230509068117629 0.7710715807507439)"><g opacity="1" transform="translate(0 0)  rotate(0 9.230509068117629 0.7710715807507439)"><path id="路径 647" fill-rule="evenodd" style="fill:#FFFFFF" transform="translate(0 0)  rotate(0 9.230509068117632 0.7710715807507466)" opacity="1" d="M0,1.54L18.46,1.54L18.46,0L0,0L0,1.54Z " /></g></g></g></g></g></g></g></g><g opacity="1" transform="translate(0 0)  rotate(0 9.74455678861813 8.39238778469291)"><g opacity="1" transform="translate(0 0)  rotate(0 9.74455678861813 8.39238778469291)"><g opacity="1" transform="translate(0 0)  rotate(0 9.74455678861813 8.39238778469291)"><g opacity="1" transform="translate(0 0)  rotate(0 9.74455678861813 8.39238778469291)"><g opacity="1" transform="translate(0 0)  rotate(0 9.74455678861813 8.39238778469291)"><g opacity="1" transform="translate(0 0)  rotate(0 9.74455678861813 8.39238778469291)"><g opacity="1" transform="translate(0 0)  rotate(0 9.74455678861813 8.39238778469291)"><g opacity="1" transform="translate(0 0)  rotate(0 9.74455678861813 8.39238778469291)"><path id="分组 2117" fill-rule="evenodd" style="fill:#062236" transform="translate(0 0)  rotate(0 9.74455678861813 8.39238778469291)" opacity="1" d="M19.49 0L0 0L0 16.78L19.49 16.78L19.49 0Z M18.4581 15.7581L18.4581 1.0281L1.0281 1.0281L1.0281 15.7581L18.4581 15.7581Z " /></g></g></g></g></g></g></g></g><g opacity="1" transform="translate(11.286699950119623 3.7547833497427305)  rotate(0 2.290864841360914 6.257972249571275)"><g opacity="1" transform="translate(0 0)  rotate(0 2.290864841360914 6.257972249571275)"><g opacity="1" transform="translate(0 0)  rotate(0 2.290864841360914 6.257972249571275)"><g opacity="1" transform="translate(0 0)  rotate(0 2.290864841360914 6.257972249571275)"><g opacity="1" transform="translate(0 0)  rotate(0 2.290864841360914 6.257972249571275)"><g opacity="1" transform="translate(0 0)  rotate(0 2.290864841360914 6.257972249571275)"><g opacity="1" transform="translate(0 0)  rotate(0 2.290864841360914 6.257972249571275)"><g opacity="1" transform="translate(0 0)  rotate(0 2.290864841360914 6.257972249571275)"><path id="路径 650" fill-rule="evenodd" style="fill:#FDD315" transform="translate(0 0)  rotate(0 2.290864841360914 6.257972249571275)" opacity="1" d="M0,12.52L4.58,12.52L4.58,0L0,0L0,12.52Z " /></g></g></g></g></g></g></g></g><g opacity="1" transform="translate(11.286699950119623 3.7547833497427305)  rotate(0 2.290864841360914 0.5140477205005002)"><g opacity="1" transform="translate(0 0)  rotate(0 2.290864841360914 0.5140477205005002)"><g opacity="1" transform="translate(0 0)  rotate(0 2.290864841360914 0.5140477205005002)"><g opacity="1" transform="translate(0 0)  rotate(0 2.290864841360914 0.5140477205005002)"><g opacity="1" transform="translate(0 0)  rotate(0 2.290864841360914 0.5140477205005002)"><g opacity="1" transform="translate(0 0)  rotate(0 2.290864841360914 0.5140477205005002)"><g opacity="1" transform="translate(0 0)  rotate(0 2.290864841360914 0.5140477205005002)"><g opacity="1" transform="translate(0 0)  rotate(0 2.290864841360914 0.5140477205005002)"><path id="路径 651" fill-rule="evenodd" style="fill:#FFFFFF" transform="translate(0 0)  rotate(0 2.290864841360914 0.5140477205004976)" opacity="1" d="M0,1.03L4.58,1.03L4.58,0L0,0L0,1.03Z " /></g></g></g></g></g></g></g></g><g opacity="1" transform="translate(10.795002130510468 3.285435431024908)  rotate(0 2.7825626609700826 6.738495118734779)"><g opacity="1" transform="translate(0 0)  rotate(0 2.7825626609700826 6.738495118734779)"><g opacity="1" transform="translate(0 0)  rotate(0 2.7825626609700826 6.738495118734779)"><g opacity="1" transform="translate(0 0)  rotate(0 2.7825626609700826 6.738495118734779)"><g opacity="1" transform="translate(0 0)  rotate(0 2.7825626609700826 6.738495118734779)"><g opacity="1" transform="translate(0 0)  rotate(0 2.7825626609700826 6.738495118734779)"><g opacity="1" transform="translate(0 0)  rotate(0 2.7825626609700826 6.738495118734779)"><g opacity="1" transform="translate(0 0)  rotate(0 2.7825626609700826 6.738495118734779)"><path id="分组 2142" fill-rule="evenodd" style="fill:#062236" transform="translate(0 0)  rotate(0 2.7825626609700826 6.738495118734779)" opacity="1" d="M5.57 0L0 0L0 13.48L5.57 13.48L5.57 0Z M4.6034 12.5134L4.6034 0.983396L0.983396 0.983396L0.983396 12.5134L4.6034 12.5134Z " /></g></g></g></g></g></g></g></g><g opacity="1" transform="translate(3.464234638155528 3.7547833497427305)  rotate(0 2.7266879087417677 2.078540782893319)"><g opacity="1" transform="translate(0 0)  rotate(0 2.7266879087417677 2.078540782893319)"><g opacity="1" transform="translate(0 0)  rotate(0 2.7266879087417677 2.078540782893319)"><g opacity="1" transform="translate(0 0)  rotate(0 2.7266879087417677 2.078540782893319)"><g opacity="1" transform="translate(0 0)  rotate(0 2.7266879087417677 2.078540782893319)"><g opacity="1" transform="translate(0 0)  rotate(0 2.7266879087417677 2.078540782893319)"><g opacity="1" transform="translate(0 0)  rotate(0 2.7266879087417677 2.078540782893319)"><g opacity="1" transform="translate(0 0)  rotate(0 2.7266879087417677 2.078540782893319)"><path id="路径 654" fill-rule="evenodd" style="fill:#FDD315" transform="translate(0 0)  rotate(0 2.7266879087417704 2.0785407828933167)" opacity="1" d="M0,4.16L5.45,4.16L5.45,0L0,0L0,4.16Z " /></g></g></g></g></g></g></g></g><g opacity="1" transform="translate(3.464234638155528 3.7547833497427305)  rotate(0 2.7266879087417677 0.5140477205005002)"><g opacity="1" transform="translate(0 0)  rotate(0 2.7266879087417677 0.5140477205005002)"><g opacity="1" transform="translate(0 0)  rotate(0 2.7266879087417677 0.5140477205005002)"><g opacity="1" transform="translate(0 0)  rotate(0 2.7266879087417677 0.5140477205005002)"><g opacity="1" transform="translate(0 0)  rotate(0 2.7266879087417677 0.5140477205005002)"><g opacity="1" transform="translate(0 0)  rotate(0 2.7266879087417677 0.5140477205005002)"><g opacity="1" transform="translate(0 0)  rotate(0 2.7266879087417677 0.5140477205005002)"><g opacity="1" transform="translate(0 0)  rotate(0 2.7266879087417677 0.5140477205005002)"><path id="路径 655" fill-rule="evenodd" style="fill:#FFFFFF" transform="translate(0 0)  rotate(0 2.7266879087417704 0.5140477205004976)" opacity="1" d="M0,1.03L5.45,1.03L5.45,0L0,0L0,1.03Z " /></g></g></g></g></g></g></g></g><g opacity="1" transform="translate(2.97253681854637 3.2854354310248794)  rotate(0 3.218385728350943 2.559063652056823)"><g opacity="1" transform="translate(0 0)  rotate(0 3.218385728350943 2.559063652056823)"><g opacity="1" transform="translate(0 0)  rotate(0 3.218385728350943 2.559063652056823)"><g opacity="1" transform="translate(0 0)  rotate(0 3.218385728350943 2.559063652056823)"><g opacity="1" transform="translate(0 0)  rotate(0 3.218385728350943 2.559063652056823)"><g opacity="1" transform="translate(0 0)  rotate(0 3.218385728350943 2.559063652056823)"><g opacity="1" transform="translate(0 0)  rotate(0 3.218385728350943 2.559063652056823)"><g opacity="1" transform="translate(0 0)  rotate(0 3.218385728350943 2.559063652056823)"><path id="分组 2167" fill-rule="evenodd" style="fill:#062236" transform="translate(0 0)  rotate(0 3.218385728350943 2.559063652056823)" opacity="1" d="M6.44 0L0 0L0 5.12L6.44 5.12L6.44 0Z M5.45105 4.16105L5.45105 0.961046L0.961046 0.961046L0.961046 4.16105L5.45105 4.16105Z " /></g></g></g></g></g></g></g></g></g><g opacity="1" transform="translate(18.684517145148504 19.846711991497465)  rotate(0 0.7822465311964095 0.48052286916350356)"><g opacity="1" transform="translate(0 0)  rotate(0 0.7822465311964095 0.48052286916350356)"><g opacity="1" transform="translate(0 0)  rotate(0 0.7822465311964095 0.48052286916350356)"><g opacity="1" transform="translate(0 0)  rotate(0 0.7822465311964095 0.48052286916350356)"><g opacity="1" transform="translate(0 0)  rotate(0 0.7822465311964095 0.48052286916350356)"><g opacity="1" transform="translate(0 0)  rotate(0 0.7822465311964095 0.48052286916350356)"><g opacity="1" transform="translate(0 0)  rotate(0 0.7822465311964095 0.48052286916350356)"><g opacity="1" transform="translate(0 0)  rotate(0 0.7822465311964095 0.48052286916350356)"><path id="路径 658" fill-rule="evenodd" style="fill:#062236" transform="translate(0 0)  rotate(0 0.7822465311964095 0.4805228691635086)" opacity="1" d="M0,0.96L1.56,0.96L1.56,0L0,0L0,0.96Z " /></g></g></g></g></g></g></g></g><g opacity="1" transform="translate(10.079805301988 14.750934588275124)  rotate(0 0.48052286916351 2.078540782893319)"><g opacity="1" transform="translate(0 0)  rotate(0 0.48052286916351 2.078540782893319)"><g opacity="1" transform="translate(0 0)  rotate(0 0.48052286916351 2.078540782893319)"><g opacity="1" transform="translate(0 0)  rotate(0 0.48052286916351 2.078540782893319)"><g opacity="1" transform="translate(0 0)  rotate(0 0.48052286916351 2.078540782893319)"><g opacity="1" transform="translate(0 0)  rotate(0 0.48052286916351 2.078540782893319)"><g opacity="1" transform="translate(0 0)  rotate(0 0.48052286916351 2.078540782893319)"><g opacity="1" transform="translate(0 0)  rotate(0 0.48052286916351 2.078540782893319)"><path id="路径 659" fill-rule="evenodd" style="fill:#062236" transform="translate(0 0)  rotate(0 0.48052286916350867 2.0785407828933167)" opacity="1" d="M0,4.16L0.96,4.16L0.96,0L0,0L0,4.16Z " /></g></g></g></g></g></g></g></g></g><g opacity="1" transform="translate(0 0)  rotate(0 18 18.00284516796308)"><g opacity="1" transform="translate(0 0)  rotate(0 18 18.00284516796308)"><g opacity="1" transform="translate(0.01665956496514877 0)  rotate(0 17.99167021751742 17.991670217517427)"><g opacity="1" transform="translate(0 0)  rotate(0 17.99167021751742 17.991670217517427)"><g opacity="1" transform="translate(0 0)  rotate(0 17.99167021751742 17.991670217517427)"><g opacity="1" transform="translate(0 0)  rotate(0 17.99167021751742 17.991670217517427)"><g opacity="1" transform="translate(0 0)  rotate(0 17.99167021751742 17.991670217517427)"><g opacity="1" transform="translate(0 0)  rotate(0 17.99167021751742 17.991670217517427)"><g opacity="1" transform="translate(0 0)  rotate(0 17.99167021751742 17.991670217517427)"><g opacity="1" transform="translate(0 0)  rotate(0 17.99167021751742 17.991670217517427)"><g opacity="1" transform="translate(0 0)  rotate(0 17.99167021751742 17.991670217517424)"><path id="路径 660" fill-rule="evenodd" style="fill:#062236" transform="translate(17.07532428097305 34.99994479581651)  rotate(0 0.5140477205004939 0.49169781960916903)" opacity="1" d="M1.03,0.98L1.03,0.02C1.01,0.02 0.96,0.02 0.92,0.02C0.63,0.02 0.34,0.02 0.04,0L0,0.96C0.29,0.98 0.6,0.98 0.92,0.98C0.96,0.98 1.01,0.98 1.03,0.98Z " /><path id="路径 661" fill-rule="evenodd" style="fill:#062236" transform="translate(19.086815361192386 34.88819529135988)  rotate(0 0.5475725718374841 0.5252226709461529)" opacity="1" d="M1.1,0.96L0.98,0C0.67,0.04 0.34,0.07 0,0.09L0.07,1.05C0.42,1.03 0.78,0.98 1.1,0.96Z " /><path id="路径 662" fill-rule="evenodd" style="fill:#062236" transform="translate(14.996783498079731 34.79879568779455)  rotate(0 0.5699224727288088 0.5363976213918312)" opacity="1" d="M1.14,0.13C0.8,0.09 0.47,0.04 0.16,0L0,0.94C0.34,0.98 0.69,1.03 1.03,1.07L1.14,0.13Z " /><path id="路径 663" fill-rule="evenodd" style="fill:#062236" transform="translate(21.053606639629074 34.53059687709865)  rotate(0 0.59227237362014 0.5699224727288151)" opacity="1" d="M1.18,0.94L0.96,0C0.65,0.07 0.31,0.13 0,0.2L0.18,1.14C0.51,1.1 0.87,1.01 1.18,0.94Z " /><path id="路径 664" fill-rule="evenodd" style="fill:#062236" transform="translate(12.962942516969072 34.3294477690767)  rotate(0 0.6146222745114647 0.5922723736201462)" opacity="1" d="M1.23,0.25C0.92,0.18 0.58,0.09 0.27,0L0,0.92C0.34,1.03 0.67,1.12 1.01,1.18L1.23,0.25Z " /><path id="路径 665" fill-rule="evenodd" style="fill:#062236" transform="translate(22.97569811628312 33.949499453924176)  rotate(0 0.6369721754027894 0.6146222745114646)" opacity="1" d="M1.27,0.89L0.94,0C0.63,0.11 0.31,0.22 0,0.31L0.29,1.23C0.63,1.14 0.96,1.03 1.27,0.89Z " /><path id="路径 666" fill-rule="evenodd" style="fill:#062236" transform="translate(10.973801337641063 33.65895074233692)  rotate(0 0.6481471258484549 0.6369721754027956)" opacity="1" d="M1.3,0.36C0.98,0.25 0.69,0.13 0.38,0L0,0.89C0.34,1.03 0.65,1.16 0.98,1.27L1.3,0.36Z " /><path id="路径 667" fill-rule="evenodd" style="fill:#062236" transform="translate(24.853089791154492 33.16725292272776)  rotate(0 0.6704970267397796 0.6481471258484485)" opacity="1" d="M1.34,0.85L0.89,0C0.6,0.16 0.29,0.29 0,0.42L0.38,1.3C0.69,1.16 1.01,1.01 1.34,0.85Z " /><path id="路径 668" fill-rule="evenodd" style="fill:#062236" transform="translate(9.118759563660992 32.787304607575216)  rotate(0 0.6704970267397796 0.6593220762941266)" opacity="1" d="M1.34,0.47C1.05,0.31 0.76,0.16 0.47,0L0,0.83C0.29,1.01 0.6,1.16 0.92,1.32L1.34,0.47Z " /><path id="路径 669" fill-rule="evenodd" style="fill:#062236" transform="translate(26.59638206067792 32.1615073826181)  rotate(0 0.6816719771854388 0.6704970267397795)" opacity="1" d="M1.36,0.8L0.83,0C0.56,0.18 0.29,0.36 0,0.51L0.49,1.34C0.78,1.16 1.1,0.98 1.36,0.8Z " /><path id="路径 670" fill-rule="evenodd" style="fill:#062236" transform="translate(7.3307674923549255 31.69215946390025)  rotate(0 0.6928469276311107 0.6928469276311106)" opacity="1" d="M1.39,0.56C1.12,0.38 0.85,0.2 0.58,0L0,0.78C0.29,1.01 0.58,1.21 0.87,1.39L1.39,0.56Z " /><path id="路径 671" fill-rule="evenodd" style="fill:#062236" transform="translate(28.250274726636043 30.954612734486496)  rotate(0 0.7040218780767699 0.6928469276310979)" opacity="1" d="M1.41,0.74L0.78,0C0.51,0.22 0.27,0.42 0,0.63L0.58,1.39C0.85,1.18 1.12,0.96 1.41,0.74Z " /><path id="路径 672" fill-rule="evenodd" style="fill:#062236" transform="translate(5.743924529070775 30.440565013985985)  rotate(0 0.6928469276311043 0.7040218780767761)" opacity="1" d="M1.39,0.65C1.14,0.45 0.89,0.22 0.65,0L0,0.72C0.25,0.96 0.51,1.18 0.78,1.41L1.39,0.65Z " /><path id="路径 673" fill-rule="evenodd" style="fill:#062236" transform="translate(29.747718086354894 29.591268780115588)  rotate(0 0.7040218780767699 0.7040218780767761)" opacity="1" d="M1.41,0.65L0.69,0C0.47,0.25 0.25,0.49 0,0.72L0.67,1.41C0.92,1.16 1.16,0.92 1.41,0.65Z " /><path id="路径 674" fill-rule="evenodd" style="fill:#062236" transform="translate(4.291180971134587 29.010171356941154)  rotate(0 0.7040218780767699 0.7040218780767634)" opacity="1" d="M1.41,0.74C1.18,0.49 0.96,0.25 0.74,0L0,0.63C0.22,0.89 0.45,1.16 0.69,1.41L1.41,0.74Z " /><path id="路径 675" fill-rule="evenodd" style="fill:#062236" transform="translate(31.11106204072577 28.07147551950543)  rotate(0 0.6928469276311043 0.6928469276311106)" opacity="1" d="M1.39,0.58L0.6,0C0.42,0.27 0.2,0.54 0,0.78L0.74,1.39C0.96,1.12 1.16,0.85 1.39,0.58Z " /><path id="路径 676" fill-rule="evenodd" style="fill:#062236" transform="translate(3.0395865212203392 27.445678294548337)  rotate(0 0.6928469276311107 0.6928469276310979)" opacity="1" d="M1.39,0.8C1.18,0.54 0.98,0.27 0.8,0L0,0.54C0.18,0.83 0.4,1.12 0.6,1.39L1.39,0.8Z " /><path id="路径 677" fill-rule="evenodd" style="fill:#062236" transform="translate(32.27325688707472 26.417582853547334)  rotate(0 0.6704970267397796 0.6816719771854324)" opacity="1" d="M1.34,0.47L0.51,0C0.36,0.29 0.18,0.58 0,0.85L0.8,1.36C1.01,1.07 1.18,0.76 1.34,0.47Z " /><path id="路径 678" fill-rule="evenodd" style="fill:#062236" transform="translate(1.9891411793280203 25.724735925916196)  rotate(0 0.6593220762941204 0.681671977185445)" opacity="1" d="M1.32,0.87C1.16,0.58 1.01,0.29 0.85,0L0,0.45C0.16,0.76 0.31,1.07 0.49,1.36L1.32,0.87Z " /><path id="路径 679" fill-rule="evenodd" style="fill:#062236" transform="translate(33.23430262540176 24.651940683132562)  rotate(0 0.6593220762941141 0.6593220762941139)" opacity="1" d="M1.32,0.38L0.42,0C0.29,0.29 0.16,0.6 0,0.89L0.87,1.32C1.03,1.01 1.18,0.67 1.32,0.38Z " /><path id="路径 680" fill-rule="evenodd" style="fill:#062236" transform="translate(1.1174950445662992 23.936743854610146)  rotate(0 0.6369721754027894 0.6481471258484485)" opacity="1" d="M1.27,0.92C1.14,0.63 1.01,0.31 0.89,0L0,0.34C0.13,0.65 0.27,0.98 0.4,1.3L1.27,0.92Z " /><path id="路径 681" fill-rule="evenodd" style="fill:#062236" transform="translate(34.01654915659815 22.752199107369854)  rotate(0 0.6146222745114647 0.6369721754027956)" opacity="1" d="M1.23,0.27L0.31,0C0.22,0.31 0.11,0.63 0,0.94L0.92,1.27C1.03,0.96 1.14,0.63 1.23,0.27Z " /><path id="路径 682" fill-rule="evenodd" style="fill:#062236" transform="translate(0.536397621391825 22.03700227884744)  rotate(0 0.6034473240658023 0.6146222745114646)" opacity="1" d="M1.21,0.96C1.1,0.65 1.01,0.31 0.94,0L0,0.22C0.07,0.56 0.16,0.89 0.27,1.23L1.21,0.96Z " /><path id="路径 683" fill-rule="evenodd" style="fill:#062236" transform="translate(34.5752966788813 20.83010763071584)  rotate(0 0.5699224727288088 0.5922723736201335)" opacity="1" d="M1.14,0.16L0.2,0C0.13,0.31 0.07,0.65 0,0.96L0.94,1.18C1.03,0.85 1.1,0.51 1.14,0.16Z " /><path id="路径 684" fill-rule="evenodd" style="fill:#062236" transform="translate(0.1564493062392857 20.092560901302065)  rotate(0 0.5587475222831496 0.5699224727288151)" opacity="1" d="M1.12,0.98C1.05,0.65 1.01,0.34 0.96,0L0,0.11C0.04,0.45 0.09,0.8 0.16,1.14L1.12,0.98Z " /><path id="路径 685" fill-rule="evenodd" style="fill:#062236" transform="translate(34.91054519225119 18.86331635227914)  rotate(0 0.5252226709461594 0.547572571837484)" opacity="1" d="M1.05,0.04L0.09,0C0.07,0.34 0.04,0.65 0,0.98L0.96,1.1C1.01,0.76 1.03,0.4 1.05,0.04Z " /><path id="路径 686" fill-rule="evenodd" style="fill:#062236" transform="translate(0 18.125769622865363)  rotate(0 0.5028727700548347 0.5252226709461657)" opacity="1" d="M1.01,1.01L1.01,0.98C0.98,0.65 0.96,0.31 0.96,0L0,0C0,0.34 0.02,0.69 0.04,1.05L1.01,1.01Z " /><path id="路径 687" fill-rule="evenodd" style="fill:#062236" transform="translate(34.97759489492517 16.80712547027716)  rotate(0 0.5028727700548347 0.5475725718374967)" opacity="1" d="M1.01,1.1C1.01,0.74 0.98,0.38 0.96,0.04L0.96,0L0,0.07L0,0.09C0.02,0.4 0.04,0.74 0.04,1.07L1.01,1.1Z " /><path id="路径 688" fill-rule="evenodd" style="fill:#062236" transform="translate(0.02234990089132472 16.02487893908073)  rotate(0 0.5252226709461626 0.5475725718374967)" opacity="1" d="M1.05,0.11L0.09,0C0.04,0.36 0.02,0.69 0,1.05L0.96,1.1C0.98,0.76 1.01,0.45 1.05,0.11Z " /><path id="路径 689" fill-rule="evenodd" style="fill:#062236" transform="translate(34.73174598512059 14.706234786492525)  rotate(0 0.5475725718374841 0.5810974231744679)" opacity="1" d="M1.1,1.03C1.05,0.69 1.01,0.34 0.94,0L0,0.18C0.07,0.51 0.11,0.83 0.16,1.16L1.1,1.03Z " /><path id="路径 690" fill-rule="evenodd" style="fill:#062236" transform="translate(0.26819881069591567 13.968688057078728)  rotate(0 0.569922472728812 0.5922723736201462)" opacity="1" d="M1.14,0.22L0.2,0C0.13,0.34 0.07,0.69 0,1.03L0.94,1.18C0.98,0.87 1.05,0.54 1.14,0.22Z " /><path id="路径 691" fill-rule="evenodd" style="fill:#062236" transform="translate(34.262398066402746 12.672393805381855)  rotate(0 0.59227237362014 0.6257972249571174)" opacity="1" d="M1.18,1.01C1.12,0.67 1.03,0.34 0.92,0L0,0.29C0.11,0.6 0.2,0.94 0.27,1.25L1.18,1.01Z " /><path id="路径 692" fill-rule="evenodd" style="fill:#062236" transform="translate(0.7375467294137601 11.957196976859388)  rotate(0 0.6146222745114647 0.6369721754027956)" opacity="1" d="M1.23,0.31L0.31,0C0.2,0.34 0.09,0.67 0,1.01L0.92,1.27C1.01,0.96 1.1,0.63 1.23,0.31Z " /><path id="路径 693" fill-rule="evenodd" style="fill:#062236" transform="translate(33.56955113877163 10.750302328727791)  rotate(0 0.6369721754027894 0.6481471258484611)" opacity="1" d="M1.27,0.96C1.14,0.65 1.01,0.31 0.87,0L0,0.38C0.13,0.67 0.27,0.98 0.38,1.3L1.27,0.96Z " /><path id="路径 694" fill-rule="evenodd" style="fill:#062236" transform="translate(1.4080437561535397 10.012755599314042)  rotate(0 0.6593220762941141 0.6704970267397795)" opacity="1" d="M1.32,0.42L0.45,0C0.29,0.31 0.13,0.65 0,0.96L0.89,1.34C1.03,1.05 1.16,0.74 1.32,0.42Z " /><path id="路径 695" fill-rule="evenodd" style="fill:#062236" transform="translate(32.67555510311859 8.872910653856414)  rotate(0 0.6704970267397796 0.681671977185445)" opacity="1" d="M1.34,0.92C1.16,0.6 1.01,0.29 0.83,0L0,0.49C0.16,0.78 0.31,1.07 0.47,1.36L1.34,0.92Z " /><path id="路径 696" fill-rule="evenodd" style="fill:#062236" transform="translate(2.36908949448056 8.224763528007964)  rotate(0 0.6704970267397796 0.681671977185445)" opacity="1" d="M1.34,0.51L0.54,0C0.36,0.29 0.18,0.6 0,0.89L0.83,1.36C0.98,1.07 1.16,0.78 1.34,0.51Z " /><path id="路径 697" fill-rule="evenodd" style="fill:#062236" transform="translate(31.55806005855229 7.129618384332984)  rotate(0 0.6816719771854388 0.6928469276311106)" opacity="1" d="M1.36,0.85C1.18,0.56 0.96,0.27 0.76,0L0,0.58C0.2,0.85 0.4,1.12 0.58,1.39L1.36,0.85Z " /><path id="路径 698" fill-rule="evenodd" style="fill:#062236" transform="translate(3.4865845390468593 6.526171060267198)  rotate(0 0.6928469276311043 0.6928469276311042)" opacity="1" d="M1.39,0.6L0.65,0C0.42,0.27 0.2,0.54 0,0.83L0.78,1.39C0.98,1.14 1.18,0.87 1.39,0.6Z " /><path id="路径 699" fill-rule="evenodd" style="fill:#062236" transform="translate(30.284115707746707 5.542775421048846)  rotate(0 0.6928469276311107 0.7040218780767697)" opacity="1" d="M1.39,0.78C1.16,0.51 0.94,0.25 0.69,0L0,0.67C0.22,0.92 0.45,1.16 0.67,1.41L1.39,0.78Z " /><path id="路径 700" fill-rule="evenodd" style="fill:#062236" transform="translate(4.805228691635087 5.006377799657028)  rotate(0 0.7040218780767699 0.6928469276311042)" opacity="1" d="M1.41,0.69L0.74,0C0.49,0.22 0.25,0.49 0,0.74L0.72,1.39C0.94,1.14 1.18,0.92 1.41,0.69Z " /><path id="路径 701" fill-rule="evenodd" style="fill:#062236" transform="translate(28.83137214981052 4.13473166489532)  rotate(0 0.6928469276311043 0.6928469276311042)" opacity="1" d="M1.39,0.69C1.14,0.45 0.87,0.22 0.6,0L0,0.74C0.25,0.94 0.49,1.16 0.74,1.39L1.39,0.69Z " /><path id="路径 702" fill-rule="evenodd" style="fill:#062236" transform="translate(6.325021952245256 3.643033845286151)  rotate(0 0.6928469276311107 0.6928469276311042)" opacity="1" d="M1.39,0.76L0.8,0C0.54,0.2 0.27,0.42 0,0.65L0.63,1.39C0.89,1.16 1.14,0.96 1.39,0.76Z " /><path id="路径 703" fill-rule="evenodd" style="fill:#062236" transform="translate(27.24452918652637 2.905487115872378)  rotate(0 0.6928469276311043 0.681671977185445)" opacity="1" d="M1.39,0.6C1.1,0.38 0.8,0.18 0.51,0L0,0.8C0.27,0.98 0.54,1.16 0.8,1.36L1.39,0.6Z " /><path id="路径 704" fill-rule="evenodd" style="fill:#062236" transform="translate(8.001264519094706 2.4808389989371893)  rotate(0 0.6928469276311043 0.681671977185445)" opacity="1" d="M1.39,0.83L0.89,0C0.58,0.18 0.29,0.36 0,0.56L0.54,1.36C0.8,1.16 1.1,0.98 1.39,0.83Z " /><path id="路径 705" fill-rule="evenodd" style="fill:#062236" transform="translate(25.52358681789429 1.832691873088741)  rotate(0 0.6704970267397796 0.6704970267397795)" opacity="1" d="M1.34,0.49C1.05,0.31 0.74,0.16 0.42,0L0,0.87C0.29,1.03 0.58,1.18 0.87,1.34L1.34,0.49Z " /><path id="路径 706" fill-rule="evenodd" style="fill:#062236" transform="translate(9.789256590400784 1.5421431615015004)  rotate(0 0.6593220762941141 0.6481471258484548)" opacity="1" d="M1.32,0.87L0.94,0C0.63,0.13 0.31,0.29 0,0.45L0.45,1.3C0.74,1.14 1.05,1.01 1.32,0.87Z " /><path id="路径 707" fill-rule="evenodd" style="fill:#062236" transform="translate(23.690894944805546 1.0280954410009875)  rotate(0 0.6481471258484486 0.6369721754027956)" opacity="1" d="M1.3,0.38C0.96,0.25 0.65,0.11 0.31,0L0,0.92C0.31,1.03 0.6,1.14 0.92,1.27L1.3,0.38Z " /><path id="路径 708" fill-rule="evenodd" style="fill:#062236" transform="translate(11.711348067054812 0.8045964320877406)  rotate(0 0.6369721754027894 0.6146222745114646)" opacity="1" d="M1.27,0.92L0.98,0C0.65,0.11 0.34,0.22 0,0.34L0.34,1.23C0.65,1.12 0.96,1.01 1.27,0.92Z " /><path id="路径 709" fill-rule="evenodd" style="fill:#062236" transform="translate(21.791153369042835 0.44699801782651966)  rotate(0 0.6146222745114647 0.5922723736201398)" opacity="1" d="M1.23,0.27C0.89,0.16 0.56,0.07 0.22,0L0,0.94C0.31,1.01 0.65,1.1 0.96,1.18L1.23,0.27Z " /><path id="路径 710" fill-rule="evenodd" style="fill:#062236" transform="translate(13.72283914727415 0.290548711587253)  rotate(0 0.6034473240658055 0.5810974231744743)" opacity="1" d="M1.21,0.94L1.03,0C0.67,0.07 0.34,0.13 0,0.22L0.22,1.16C0.54,1.1 0.85,1.03 1.21,0.94Z " /><path id="路径 711" fill-rule="evenodd" style="fill:#062236" transform="translate(19.82436209060616 0.11174950445662991)  rotate(0 0.5699224727288152 0.5475725718374904)" opacity="1" d="M1.14,0.13C0.8,0.09 0.45,0.04 0.11,0L0,0.96C0.34,1.01 0.67,1.05 0.98,1.1L1.14,0.13Z " /><path id="路径 712" fill-rule="evenodd" style="fill:#062236" transform="translate(15.779030029276152 0.04469980178266213)  rotate(0 0.5587475222831496 0.5252226709461594)" opacity="1" d="M1.12,0.96L1.05,0C0.69,0.02 0.34,0.04 0,0.09L0.11,1.05C0.42,1.01 0.76,0.98 1.12,0.96Z " /><path id="路径 713" fill-rule="evenodd" style="fill:#062236" transform="translate(17.85757081216947 0)  rotate(0 0.5252226709461594 0.49169781960917547)" opacity="1" d="M1.05,0.02C0.69,0 0.36,0 0,0L0,0.96C0.31,0.96 0.65,0.96 0.98,0.98L1.05,0.02Z " /></g></g></g></g></g></g></g></g></g><g opacity="1" transform="translate(0 6.1015229433319575)  rotate(0 2.6232681867677123 6.526171060267198)"><g opacity="1" transform="translate(0 0)  rotate(0 2.6232681867677123 6.526171060267198)"><g opacity="1" transform="translate(0 0)  rotate(0 2.6232681867677123 6.526171060267198)"><g opacity="1" transform="translate(0 0)  rotate(0 2.6232681867677123 6.526171060267198)"><g opacity="1" transform="translate(0 0)  rotate(0 2.6232681867677123 6.526171060267198)"><g opacity="1" transform="translate(0 0)  rotate(0 2.6232681867677123 6.526171060267198)"><g opacity="1" transform="translate(0 0)  rotate(0 2.6232681867677123 6.526171060267198)"><g opacity="1" transform="translate(0 0)  rotate(0 2.6232681867677123 6.526171060267198)"><path id="路径 714" fill-rule="evenodd" style="fill:#062236" transform="translate(0 0)  rotate(0 2.6232681867677092 6.526171060267191)" opacity="1" d="M1.07,12.96C0.78,8.45 2.25,4.07 5.25,0.67L4.46,0C2.94,1.77 1.76,3.78 1,5.97C0.2,8.25 -0.12,10.64 0.04,13.05L1.07,12.96Z " /></g></g></g></g></g></g></g></g><g opacity="1" transform="translate(3.413844500446709 27.9373761141575)  rotate(0 14.59448528203587 4.03415711088433)"><g opacity="1" transform="translate(0 0)  rotate(0 14.59448528203587 4.03415711088433)"><g opacity="1" transform="translate(0 0)  rotate(0 14.59448528203587 4.03415711088433)"><g opacity="1" transform="translate(0 0)  rotate(0 14.59448528203587 4.03415711088433)"><g opacity="1" transform="translate(0 0)  rotate(0 14.59448528203587 4.03415711088433)"><g opacity="1" transform="translate(0 0)  rotate(0 14.59448528203587 4.03415711088433)"><g opacity="1" transform="translate(0 0)  rotate(0 14.59448528203587 4.03415711088433)"><g opacity="1" transform="translate(0 0)  rotate(0 14.59448528203587 4.03415711088433)"><path id="路径 715" fill-rule="evenodd" style="fill:#062236" transform="translate(0 0)  rotate(0 14.59448528203587 4.03415711088433)" opacity="1" d="M15.73,8.05C21.12,7.69 26.04,4.98 29.19,0.6L28.36,0C25.37,4.13 20.74,6.68 15.67,7.02C9.83,7.4 4.27,4.78 0.83,0.04L0,0.65C1.77,3.06 4.11,5.01 6.79,6.3C9.23,7.46 11.89,8.07 14.59,8.07C14.97,8.07 15.38,8.05 15.73,8.05Z " /></g></g></g></g></g></g></g></g><g opacity="1" transform="translate(30.792473092321046 6.123872844223314)  rotate(0 2.6037634538394787 5.386326114809567)"><g opacity="1" transform="translate(0 0)  rotate(0 2.6037634538394787 5.386326114809567)"><g opacity="1" transform="translate(0 0)  rotate(0 2.6037634538394787 5.386326114809567)"><g opacity="1" transform="translate(0 0)  rotate(0 2.6037634538394787 5.386326114809567)"><g opacity="1" transform="translate(0 0)  rotate(0 2.6037634538394787 5.386326114809567)"><g opacity="1" transform="translate(0 0)  rotate(0 2.6037634538394787 5.386326114809567)"><g opacity="1" transform="translate(0 0)  rotate(0 2.6037634538394787 5.386326114809567)"><g opacity="1" transform="translate(0 0)  rotate(0 2.6037634538394787 5.386326114809567)"><path id="路径 716" fill-rule="evenodd" style="fill:#062236" transform="translate(0 0)  rotate(0 2.6037634538394787 5.3863261148095605)" opacity="1" d="M5.21,10.73C5.07,8.69 4.63,6.75 3.84,4.89C3.11,3.11 2.06,1.45 0.78,0L0,0.67C2.48,3.51 3.93,7 4.18,10.77L5.21,10.73Z " /></g></g></g></g></g></g></g></g></g></g><g opacity="1" transform="translate(0.530707285465649 25.188338304524393)  rotate(0 15.86707468128158 6.291497100908254)"><g opacity="1" transform="translate(0.08939960356531174 0.044699801782584814)  rotate(0 15.788850028161939 6.254380301213767)"><g opacity="1" transform="translate(0 0)  rotate(0 15.788850028161939 6.254380301213767)"><g opacity="1" transform="translate(0 0)  rotate(0 15.788850028161939 6.254380301213767)"><g opacity="1" transform="translate(0 0)  rotate(0 15.788850028161939 6.254380301213767)"><g opacity="1" transform="translate(0 0)  rotate(0 15.788850028161939 6.254380301213767)"><g opacity="1" transform="translate(0 0)  rotate(0 15.788850028161939 6.254380301213767)"><g opacity="1" transform="translate(0 0)  rotate(0 15.788850028161939 6.254380301213767)"><path id="路径 717" fill-rule="evenodd" style="fill:#FFFFFF" transform="translate(0 0)  rotate(0 15.788850028161935 6.254380301213767)" opacity="1" d="M5.39,0L0.72,0C0.31,0 0,0.31 0,0.72L0,10.1C0,10.5 0.31,10.82 0.72,10.82L5.39,10.82C5.79,10.82 6.1,10.5 6.1,10.1L6.1,9.77L6.17,9.79L16.9,12.45C17.39,12.56 17.92,12.52 18.39,12.31L29.97,7.2C30.6,6.88 31.11,6.35 31.38,5.65C31.65,4.98 31.65,4.22 31.36,3.55C31.09,2.91 30.6,2.39 29.97,2.1C29.35,1.81 28.63,1.77 27.96,1.97L19.91,4.49L19.94,4.4C20.05,3.87 19.94,3.31 19.67,2.84C19.36,2.3 18.84,1.9 18.24,1.77L11.8,0.16C11.33,0.04 10.84,0.07 10.37,0.25L6.1,1.99L6.1,0.72C6.1,0.31 5.79,0 5.39,0Z " /></g></g></g></g></g></g></g><g opacity="1" transform="translate(0 0)  rotate(0 15.86707468128158 6.291497100908254)"><g opacity="1" transform="translate(0.5140477205004939 2.5702386025024566)  rotate(0 2.5925885033938165 3.911232655982047)"><g opacity="1" transform="translate(0 0)  rotate(0 2.5925885033938165 3.911232655982047)"><g opacity="1" transform="translate(0 0)  rotate(0 2.5925885033938165 3.911232655982047)"><g opacity="1" transform="translate(0 0)  rotate(0 2.5925885033938165 3.911232655982047)"><g opacity="1" transform="translate(0 0)  rotate(0 2.5925885033938165 3.911232655982047)"><g opacity="1" transform="translate(0 0)  rotate(0 2.5925885033938165 3.911232655982047)"><g opacity="1" transform="translate(0 0)  rotate(0 2.5925885033938165 3.911232655982047)"><path id="路径 718" fill-rule="evenodd" style="fill:#54A3DA" transform="translate(0 0)  rotate(0 2.5925885033938143 3.911232655982047)" opacity="1" d="M0,7.82L5.19,7.82L5.19,0L0,0L0,7.82Z " /></g></g></g></g></g></g></g><g opacity="1" transform="translate(0.5140477205004939 7.755415609290111)  rotate(0 2.402614345817547 0.5140477205005002)"><g opacity="1" transform="translate(0 0)  rotate(0 2.402614345817547 0.5140477205005002)"><g opacity="1" transform="translate(0 0)  rotate(0 2.402614345817547 0.5140477205005002)"><g opacity="1" transform="translate(0 0)  rotate(0 2.402614345817547 0.5140477205005002)"><g opacity="1" transform="translate(0 0)  rotate(0 2.402614345817547 0.5140477205005002)"><g opacity="1" transform="translate(0 0)  rotate(0 2.402614345817547 0.5140477205005002)"><g opacity="1" transform="translate(0 0)  rotate(0 2.402614345817547 0.5140477205005002)"><g opacity="1" transform="translate(0 0)  rotate(0 2.40261434581755 0.5140477205005002)"><path id="路径 719" fill-rule="evenodd" style="fill:#FFFFFF" transform="translate(3.8441829533080805 0)  rotate(0 0.48052286916351 0.5140477205005002)" opacity="1" d="M0.96,0L0,0L0,1.03L0.96,1.03L0.96,0Z " /><path id="路径 720" fill-rule="evenodd" style="fill:#FFFFFF" transform="translate(1.9220914766540402 0)  rotate(0 0.48052286916351 0.5140477205005002)" opacity="1" d="M0.96,0L0,0L0,1.03L0.96,1.03L0.96,0Z " /><path id="路径 721" fill-rule="evenodd" style="fill:#FFFFFF" transform="translate(0 0)  rotate(0 0.48052286916351 0.5140477205005002)" opacity="1" d="M0.96,0L0,0L0,1.03L0.96,1.03L0.96,0Z " /></g></g></g></g></g></g></g></g><g opacity="1" transform="translate(5.699224727288127 2.646349550442551)  rotate(0 12.77146345517619 4.70012351499106)"><g opacity="1" transform="translate(0 0)  rotate(0 12.77146345517619 4.70012351499106)"><g opacity="1" transform="translate(0 0)  rotate(0 12.77146345517619 4.70012351499106)"><g opacity="1" transform="translate(0 0)  rotate(0 12.77146345517619 4.70012351499106)"><g opacity="1" transform="translate(0 0)  rotate(0 12.77146345517619 4.70012351499106)"><g opacity="1" transform="translate(0 0)  rotate(0 12.77146345517619 4.70012351499106)"><g opacity="1" transform="translate(0 0)  rotate(0 12.77146345517619 4.70012351499106)"><path id="路径 722" fill-rule="evenodd" style="fill:#FDD315" transform="translate(0 0)  rotate(0 12.77146345517619 4.70012351499106)" opacity="1" d="M0.36,6.63L11.98,9.4C11.98,9.4 21.75,5.73 24.14,4.13C26.53,2.52 25.14,0.73 25.14,0.73L12.67,5.15C12.14,5.35 11.53,5.35 11,5.2C10.1,4.93 9.41,4.22 9.16,3.3L9.03,2.78C9.03,2.78 10.21,2.96 11.38,3.14C13.43,3.46 13.9,1.6 13.9,1.6L6.24,0.04C5.86,-0.03 5.48,-0.01 5.14,0.15L0,2.4L0.36,6.63Z " /></g></g></g></g></g></g></g><g opacity="1" transform="translate(0 0)  rotate(0 15.86707468128158 6.291497100908254)"><g opacity="1" transform="translate(0 0)  rotate(0 3.0959583405740787 5.4533758174835345)"><g opacity="1" transform="translate(0 0)  rotate(0 3.0959583405740787 5.4533758174835345)"><g opacity="1" transform="translate(0 0)  rotate(0 3.0959583405740787 5.4533758174835345)"><g opacity="1" transform="translate(0 0)  rotate(0 3.0959583405740787 5.4533758174835345)"><g opacity="1" transform="translate(0 0)  rotate(0 3.0959583405740787 5.4533758174835345)"><g opacity="1" transform="translate(0 0)  rotate(0 3.0959583405740787 5.4533758174835345)"><g opacity="1" transform="translate(0 0)  rotate(0 3.0959583405740787 5.4533758174835345)"><path id="分组 2258" fill-rule="evenodd" style="fill:#062236" transform="translate(0 0)  rotate(0 3.0959583405740787 5.4533758174835345)" opacity="1" d="M6.19 10.15L6.19 0.76C6.19 0.34 5.86 0 5.43 0L0.76 0C0.34 0 0 0.34 0 0.76L0 10.15C0 10.57 0.34 10.91 0.76 10.91L5.43 10.91C5.86 10.91 6.21 10.57 6.19 10.15Z M5.1881 9.87575L5.1881 1.00575L1.0281 1.00575L1.0281 9.87575L5.1881 9.87575Z " /></g></g></g></g></g></g></g><g opacity="1" transform="translate(5.498075619266185 0.07317440017251897)  rotate(0 7.298106955659108 3.1594486273733438)"><g opacity="1" transform="translate(0 0)  rotate(0 7.298106955659108 3.1594486273733438)"><g opacity="1" transform="translate(0 0)  rotate(0 7.298106955659108 3.1594486273733438)"><g opacity="1" transform="translate(0 0)  rotate(0 7.298106955659108 3.1594486273733438)"><g opacity="1" transform="translate(0 0)  rotate(0 7.298106955659108 3.1594486273733438)"><g opacity="1" transform="translate(0 0)  rotate(0 7.298106955659108 3.1594486273733438)"><g opacity="1" transform="translate(0 0)  rotate(0 7.298106955659108 3.1594486273733438)"><path id="路径 725" fill-rule="evenodd" style="fill:#062236" transform="translate(0 0)  rotate(0 7.298106955659108 3.1594486273733438)" opacity="1" d="M14.51,4.62C14.68,3.99 14.59,3.35 14.28,2.79C13.95,2.23 13.43,1.83 12.81,1.67L6.37,0.06C5.88,-0.05 5.39,-0.01 4.92,0.17L0,2.16L0.38,3.12L5.3,1.13C5.57,1.02 5.86,1 6.12,1.07L12.56,2.68C12.92,2.77 13.21,2.99 13.39,3.3C13.57,3.61 13.61,3.97 13.52,4.33C13.34,4.98 12.72,5.38 12.05,5.29L9.3,4.87L9.14,5.87L11.89,6.3C12.02,6.32 12.14,6.32 12.25,6.32C13.28,6.32 14.24,5.63 14.51,4.62Z " /></g></g></g></g></g></g></g><g opacity="1" transform="translate(5.565125321940179 1.8337555742329528)  rotate(0 13.08451202031149 5.3746193137917775)"><g opacity="1" transform="translate(0 0)  rotate(0 13.08451202031149 5.3746193137917775)"><g opacity="1" transform="translate(0 0)  rotate(0 13.08451202031149 5.3746193137917775)"><g opacity="1" transform="translate(0 0)  rotate(0 13.08451202031149 5.3746193137917775)"><g opacity="1" transform="translate(0 0)  rotate(0 13.08451202031149 5.3746193137917775)"><g opacity="1" transform="translate(0 0)  rotate(0 13.08451202031149 5.3746193137917775)"><g opacity="1" transform="translate(0 0)  rotate(0 13.08451202031149 5.3746193137917775)"><path id="路径 726" fill-rule="evenodd" style="fill:#062236" transform="translate(0 0)  rotate(0 13.08451202031149 5.3746193137917775)" opacity="1" d="M11.62,9.68L0.25,6.86L0,7.87L11.38,10.68C11.55,10.73 11.76,10.75 11.93,10.75C12.27,10.75 12.58,10.68 12.92,10.55L24.5,5.43C25.17,5.12 25.7,4.58 25.97,3.89C26.24,3.19 26.24,2.44 25.95,1.74C25.66,1.09 25.17,0.56 24.52,0.27C23.87,-0.02 23.13,-0.09 22.46,0.13L13.34,2.99L13.66,3.98L22.77,1.12C23.67,0.83 24.63,1.27 24.99,2.14C25.37,3.06 24.96,4.09 24.05,4.49L12.47,9.61C12.2,9.72 11.91,9.74 11.62,9.68Z " /></g></g></g></g></g></g></g></g><g opacity="1" transform="translate(2.279689890915248 1.74329226952338)  rotate(0 0.826946332979059 0.8269463329790715)"><g opacity="1" transform="translate(0 0)  rotate(0 0.826946332979059 0.8269463329790715)"><g opacity="1" transform="translate(0 0)  rotate(0 0.826946332979059 0.8269463329790715)"><g opacity="1" transform="translate(0 0)  rotate(0 0.826946332979059 0.8269463329790715)"><g opacity="1" transform="translate(0 0)  rotate(0 0.826946332979059 0.8269463329790715)"><g opacity="1" transform="translate(0 0)  rotate(0 0.826946332979059 0.8269463329790715)"><g opacity="1" transform="translate(0 0)  rotate(0 0.826946332979059 0.8269463329790715)"><path id="路径 727" fill-rule="evenodd" style="fill:#062236" transform="translate(0 0)  rotate(0 0.826946332979059 0.8269463329790715)" opacity="1" d="M0.83,0C0.38,0 0,0.36 0,0.83C0,1.27 0.36,1.65 0.83,1.65C1.27,1.65 1.65,1.3 1.65,0.83C1.65,0.36 1.27,0 0.83,0Z " /></g></g></g></g></g></g></g></g></g></g></svg>