<svg xmlns="http://www.w3.org/2000/svg" xmlns:xlink="http://www.w3.org/1999/xlink" width="40" height="37" viewBox="0 0 40 37" fill="none"><g opacity="1" transform="translate(0 0)  rotate(0 19.856025461082055 18)"><g opacity="1" transform="translate(3.6255400548441816 7.123268932956292)  rotate(0 11.814166250421898 9.67192439684412)"><g opacity="1" transform="translate(0 0)  rotate(0 11.814166250421898 9.67192439684412)"><g opacity="1" transform="translate(0 0)  rotate(0 11.814166250421898 9.67192439684412)"><g opacity="1" transform="translate(0 0)  rotate(0 11.814166250421898 9.67192439684412)"><g opacity="1" transform="translate(0 0)  rotate(0 11.814166250421898 9.67192439684412)"><g opacity="1" transform="translate(0 0)  rotate(0 11.814166250421898 9.67192439684412)"><g opacity="1" transform="translate(0 0)  rotate(0 11.814166250421898 9.67192439684412)"><path id="路径 205" fill-rule="evenodd" style="fill:#FFFFFF" transform="translate(0 0)  rotate(0 11.814166250421898 9.671924396844124)" opacity="1" d="M22.6,14.38C23.16,14.38 23.63,13.91 23.63,13.34L23.63,1.03C23.63,0.46 23.16,0 22.6,0L1.03,0C0.46,0 0,0.46 0,1.03L0,13.32C0,13.89 0.46,14.35 1.03,14.35L4.49,14.35C5.06,14.35 5.52,14.82 5.52,15.39L5.52,18.97C5.52,19.33 5.94,19.48 6.15,19.2L9.7,14.78C9.91,14.52 10.2,14.38 10.52,14.38L22.6,14.38Z " /></g></g></g></g></g></g></g><g opacity="1" transform="translate(0 0)  rotate(0 19.856025461082055 18)"><g opacity="1" transform="translate(3.1618261253004096 6.659555003412521)  rotate(0 12.277880179965667 10.12793377935365)"><g opacity="1" transform="translate(0 0)  rotate(0 12.277880179965667 10.12793377935365)"><g opacity="1" transform="translate(0 0)  rotate(0 12.277880179965667 10.12793377935365)"><g opacity="1" transform="translate(0 0)  rotate(0 12.277880179965667 10.12793377935365)"><g opacity="1" transform="translate(0 0)  rotate(0 12.277880179965667 10.12793377935365)"><g opacity="1" transform="translate(0 0)  rotate(0 12.277880179965667 10.12793377935365)"><g opacity="1" transform="translate(0 0)  rotate(0 12.277880179965667 10.12793377935365)"><path id="分组 819" fill-rule="evenodd" style="fill:#062236" transform="translate(0 0)  rotate(0 12.277880179965667 10.12793377935365)" opacity="1" d="M23.06 15.3C23.88 15.3 24.56 14.63 24.56 13.81L24.56 1.5C24.56 0.67 23.88 0 23.06 0L1.5 0C0.67 0 0 0.67 0 1.5L0 13.78C0 14.61 0.67 15.28 1.5 15.28L4.93 15.28C5.27 15.28 5.52 15.56 5.52 15.87L5.52 19.45C5.52 19.79 5.73 20.11 6.07 20.21C6.15 20.23 6.26 20.26 6.34 20.26C6.6 20.26 6.83 20.15 6.98 19.96L10.52 15.51C10.64 15.39 10.81 15.3 10.98 15.3L23.06 15.3Z M23.6463 13.8063L23.6463 1.49635C23.6463 1.17635 23.3963 0.90635 23.0563 0.90635L1.49635 0.90635C1.17635 0.90635 0.90635 1.15635 0.90635 1.49635L0.90635 13.8063C0.90635 14.1264 1.15635 14.3963 1.49635 14.3963L4.93635 14.3963C5.75635 14.3963 6.42635 15.0663 6.42635 15.8963L6.42635 19.2063L9.79635 14.9664C10.0963 14.6063 10.5163 14.3963 10.9564 14.3963L23.0563 14.3963C23.3763 14.3963 23.6463 14.1463 23.6463 13.8063Z " /></g></g></g></g></g></g></g><g opacity="1" transform="translate(13.89048022247213 16.186768464948113)  rotate(0 11.803627297477725 9.682463349788305)"><g opacity="1" transform="translate(0 0)  rotate(0 11.803627297477725 9.682463349788305)"><g opacity="1" transform="translate(0 0)  rotate(0 11.803627297477725 9.682463349788305)"><g opacity="1" transform="translate(0 0)  rotate(0 11.803627297477725 9.682463349788305)"><g opacity="1" transform="translate(0 0)  rotate(0 11.803627297477725 9.682463349788305)"><g opacity="1" transform="translate(0 0)  rotate(0 11.803627297477725 9.682463349788305)"><g opacity="1" transform="translate(0 0)  rotate(0 11.803627297477725 9.682463349788305)"><path id="路径 208" fill-rule="evenodd" style="fill:#FFFFFF" transform="translate(0 0)  rotate(0 11.803627297477725 9.682463349788305)" opacity="1" d="M22.57,14.38C23.14,14.38 23.61,13.91 23.61,13.34L23.61,1.03C23.61,0.46 23.14,0 22.57,0L1.03,0C0.46,0 0,0.46 0,1.03L0,13.34C0,13.91 0.46,14.38 1.03,14.38L13.11,14.38C13.43,14.38 13.72,14.52 13.93,14.78L17.47,19.22C17.68,19.5 18.11,19.35 18.11,18.99L18.11,15.41C18.11,14.84 18.57,14.38 19.14,14.38L22.57,14.38Z " /></g></g></g></g></g></g></g><g opacity="1" transform="translate(13.426766292928358 15.723054535404348)  rotate(0 12.26734122702149 10.138472732297828)"><g opacity="1" transform="translate(0 0)  rotate(0 12.26734122702149 10.138472732297828)"><g opacity="1" transform="translate(0 0)  rotate(0 12.26734122702149 10.138472732297828)"><g opacity="1" transform="translate(0 0)  rotate(0 12.26734122702149 10.138472732297828)"><g opacity="1" transform="translate(0 0)  rotate(0 12.26734122702149 10.138472732297828)"><g opacity="1" transform="translate(0 0)  rotate(0 12.26734122702149 10.138472732297828)"><g opacity="1" transform="translate(0 0)  rotate(0 12.26734122702149 10.138472732297828)"><path id="分组 834" fill-rule="evenodd" style="fill:#062236" transform="translate(0 0)  rotate(0 12.26734122702149 10.138472732297828)" opacity="1" d="M1.5 15.3L13.55 15.3C13.74 15.3 13.91 15.37 14.02 15.51L17.56 19.96C17.73 20.17 17.96 20.28 18.19 20.28C18.3 20.28 18.38 20.26 18.46 20.23C18.8 20.13 19.01 19.83 19.01 19.48L19.01 15.89C19.01 15.56 19.29 15.3 19.6 15.3L23.04 15.3C23.86 15.3 24.53 14.63 24.53 13.81L24.53 1.5C24.53 0.67 23.86 0 23.04 0L1.5 0C0.67 0 0 0.67 0 1.5L0 13.81C0 14.63 0.67 15.3 1.5 15.3Z M0.90635 1.51635L0.90635 13.8264C0.90635 14.1463 1.15635 14.4164 1.49635 14.4164L13.5764 14.4164C14.0364 14.4164 14.4564 14.6264 14.7364 14.9864L18.1063 19.2263L18.1063 15.9164C18.1063 15.0963 18.7764 14.4164 19.6063 14.4164L23.0363 14.4164C23.3563 14.4164 23.6263 14.1664 23.6263 13.8264L23.6263 1.49635C23.6263 1.17635 23.3763 0.90635 23.0363 0.90635L1.49635 0.90635L1.49635 0.92635C1.17635 0.92635 0.90635 1.17635 0.90635 1.51635Z " /></g></g></g></g></g></g></g><g opacity="1" transform="translate(10.539093186223987 4.088050485033449)  rotate(0 12.098717979914666 6.049358989957333)"><g opacity="1" transform="translate(0 0)  rotate(0 12.098717979914666 6.049358989957333)"><g opacity="1" transform="translate(0 0)  rotate(0 12.098717979914666 6.049358989957333)"><g opacity="1" transform="translate(0 0)  rotate(0 12.098717979914666 6.049358989957333)"><g opacity="1" transform="translate(0 0)  rotate(0 12.098717979914666 6.049358989957333)"><g opacity="1" transform="translate(0 0)  rotate(0 12.098717979914666 6.049358989957333)"><g opacity="1" transform="translate(0 0)  rotate(0 12.098717979914666 6.049358989957333)"><g opacity="1" transform="translate(0 0)  rotate(0 12.098717979914666 6.049358989957332)"><path id="路径 211" fill-rule="evenodd" style="fill:#062236" transform="translate(23.270008100741798 11.19236802671548)  rotate(0 0.45317497659959227 0.4531749765995907)" opacity="1" d="M0.91,0L0,0L0,0.91L0.91,0.91L0.91,0Z " /><path id="路径 212" fill-rule="evenodd" style="fill:#062236" transform="translate(23.270008100741798 9.379668120317119)  rotate(0 0.45317497659959227 0.4531749765995907)" opacity="1" d="M0.91,0L0,0L0,0.91L0.91,0.91L0.91,0Z " /><path id="路径 213" fill-rule="evenodd" style="fill:#062236" transform="translate(23.270008100741798 7.566968213918752)  rotate(0 0.45317497659959227 0.4531749765995907)" opacity="1" d="M0.91,0L0,0L0,0.91L0.91,0.91L0.91,0Z " /><path id="路径 214" fill-rule="evenodd" style="fill:#062236" transform="translate(23.270008100741798 5.754268307520391)  rotate(0 0.45317497659959227 0.4531749765995907)" opacity="1" d="M0.91,0L0,0L0,0.91L0.91,0.91L0.91,0Z " /><path id="路径 215" fill-rule="evenodd" style="fill:#062236" transform="translate(23.270008100741798 3.92049049523367)  rotate(0 0.45317497659959227 0.4531749765995907)" opacity="1" d="M0.91,0L0,0L0,0.91L0.91,0.91L0.91,0Z " /><path id="路径 216" fill-rule="evenodd" style="fill:#062236" transform="translate(0 2.381803365383896)  rotate(0 0.4531749765995908 0.32670754126947277)" opacity="1" d="M0.91,0L0,0L0,0.65L0.91,0.65L0.91,0Z " /><path id="路径 217" fill-rule="evenodd" style="fill:#062236" transform="translate(23.270008100741798 2.1077905888353072)  rotate(0 0.45317497659959227 0.45317497659959105)" opacity="1" d="M0.91,0L0,0L0,0.91L0.91,0.91L0.91,0Z " /><path id="路径 218" fill-rule="evenodd" style="fill:#062236" transform="translate(0 0.33724649421364994)  rotate(0 0.5796424119297096 0.5901813648738858)" opacity="1" d="M1.16,0.72L0.61,0C0.27,0.25 0.04,0.65 0,1.07L0.91,1.18C0.93,0.99 1.03,0.82 1.16,0.72Z " /><path id="路径 219" fill-rule="evenodd" style="fill:#062236" transform="translate(23.270008100741798 0)  rotate(0 0.4637139295437682 0.6007203178180625)" opacity="1" d="M0.93,1.2L0.93,0L0.3,0L0.3,0.46L0,0.46L0,1.2L0.91,1.2L0.93,1.2Z " /><path id="路径 220" fill-rule="evenodd" style="fill:#062236" transform="translate(21.73132097089202 0.021077905888352788)  rotate(0 0.45317497659959227 0.45317497659959105)" opacity="1" d="M0.91,0L0,0L0,0.91L0.91,0.91L0.91,0Z " /><path id="路径 221" fill-rule="evenodd" style="fill:#062236" transform="translate(19.918621064493657 0.021077905888352788)  rotate(0 0.45317497659959227 0.45317497659959105)" opacity="1" d="M0.91,0L0,0L0,0.91L0.91,0.91L0.91,0Z " /><path id="路径 222" fill-rule="evenodd" style="fill:#062236" transform="translate(18.105921158095292 0.021077905888352788)  rotate(0 0.45317497659959227 0.45317497659959105)" opacity="1" d="M0.91,0L0,0L0,0.91L0.91,0.91L0.91,0Z " /><path id="路径 223" fill-rule="evenodd" style="fill:#062236" transform="translate(16.293221251696934 0.021077905888352788)  rotate(0 0.4531749765995908 0.45317497659959105)" opacity="1" d="M0.91,0L0,0L0,0.91L0.91,0.91L0.91,0Z " /><path id="路径 224" fill-rule="evenodd" style="fill:#062236" transform="translate(14.480521345298559 0.021077905888352788)  rotate(0 0.4531749765995908 0.45317497659959105)" opacity="1" d="M0.91,0L0,0L0,0.91L0.91,0.91L0.91,0Z " /><path id="路径 225" fill-rule="evenodd" style="fill:#062236" transform="translate(12.646743533011847 0.021077905888352788)  rotate(0 0.4531749765995908 0.45317497659959105)" opacity="1" d="M0.91,0L0,0L0,0.91L0.91,0.91L0.91,0Z " /><path id="路径 226" fill-rule="evenodd" style="fill:#062236" transform="translate(10.834043626613486 0.021077905888352788)  rotate(0 0.4531749765995908 0.45317497659959105)" opacity="1" d="M0.91,0L0,0L0,0.91L0.91,0.91L0.91,0Z " /><path id="路径 227" fill-rule="evenodd" style="fill:#062236" transform="translate(9.021343720215121 0.021077905888352788)  rotate(0 0.4531749765995908 0.45317497659959105)" opacity="1" d="M0.91,0L0,0L0,0.91L0.91,0.91L0.91,0Z " /><path id="路径 228" fill-rule="evenodd" style="fill:#062236" transform="translate(7.208643813816753 0.021077905888352788)  rotate(0 0.4531749765995908 0.45317497659959105)" opacity="1" d="M0.91,0L0,0L0,0.91L0.91,0.91L0.91,0Z " /><path id="路径 229" fill-rule="evenodd" style="fill:#062236" transform="translate(5.395943907418385 0.021077905888352788)  rotate(0 0.4531749765995908 0.45317497659959105)" opacity="1" d="M0.91,0L0,0L0,0.91L0.91,0.91L0.91,0Z " /><path id="路径 230" fill-rule="evenodd" style="fill:#062236" transform="translate(3.5832440010200237 0.021077905888352788)  rotate(0 0.4531749765995908 0.45317497659959105)" opacity="1" d="M0.91,0L0,0L0,0.91L0.91,0.91L0.91,0Z " /><path id="路径 231" fill-rule="evenodd" style="fill:#062236" transform="translate(1.7705440946216555 0.021077905888352788)  rotate(0 0.4531749765995908 0.45317497659959105)" opacity="1" d="M0.91,0L0,0L0,0.91L0.91,0.91L0.91,0Z " /></g></g></g></g></g></g></g></g><g opacity="1" transform="translate(28.770345793189897 2.7507744558946063)  rotate(0 5.4708525644871075 5.189848827621155)"><g opacity="1" transform="translate(0.46484991600327774 0.4941597936047182)  rotate(0 5.02708055437221 4.710911966046912)"><g opacity="1" transform="translate(0 0)  rotate(0 5.02708055437221 4.710911966046912)"><g opacity="1" transform="translate(0 0)  rotate(0 5.02708055437221 4.710911966046912)"><g opacity="1" transform="translate(0 0)  rotate(0 5.02708055437221 4.710911966046912)"><g opacity="1" transform="translate(0 0)  rotate(0 5.02708055437221 4.710911966046912)"><g opacity="1" transform="translate(0 0)  rotate(0 5.02708055437221 4.710911966046912)"><g opacity="1" transform="translate(0 0)  rotate(0 5.02708055437221 4.710911966046912)"><path id="分组 851" fill-rule="evenodd" style="fill:#FDD315" transform="translate(0 0)  rotate(0 5.02708055437221 4.710911966046912)" opacity="1" d="M0.44 5.9L1.79 6.07C1.96 6.45 2.17 6.79 2.45 7.08L2.07 8.39C2 8.58 2.11 8.81 2.28 8.89L3.2 9.38C3.39 9.46 3.63 9.42 3.75 9.25L4.59 8.18C4.78 8.2 5 8.2 5.21 8.2C5.42 8.18 5.61 8.16 5.82 8.11L6.77 9.11C6.91 9.25 7.15 9.27 7.31 9.17L8.2 8.6C8.37 8.49 8.45 8.26 8.37 8.07L7.84 6.81C8.09 6.49 8.26 6.11 8.39 5.73L9.72 5.42C9.93 5.37 10.05 5.19 10.05 4.97L9.99 3.92C9.97 3.71 9.82 3.54 9.61 3.52L8.26 3.35C8.09 2.97 7.88 2.63 7.61 2.34L7.99 1.03C8.05 0.84 7.95 0.61 7.78 0.53L6.85 0.04C6.66 -0.04 6.43 0 6.3 0.17L5.46 1.24C5.25 1.2 5.04 1.2 4.85 1.22C4.64 1.24 4.45 1.26 4.24 1.31L3.29 0.32C3.14 0.17 2.91 0.15 2.74 0.25L1.85 0.82C1.69 0.93 1.6 1.16 1.69 1.35L2.21 2.61C1.96 2.93 1.79 3.31 1.67 3.69L0.34 4C0.13 4.05 0 4.24 0 4.45L0.06 5.5C0.08 5.71 0.23 5.88 0.44 5.9Z M4.93643 2.9682C3.98643 3.0182 3.24643 3.8582 3.28643 4.80821C3.32643 5.7582 4.15643 6.4882 5.12643 6.4482C6.06643 6.40821 6.80643 5.5882 6.76643 4.61821C6.72643 3.64821 5.90643 2.90821 4.93643 2.9682Z " /></g></g></g></g></g></g></g><g opacity="1" transform="translate(3.722866278919028 3.4452601508011576)  rotate(0 1.759153726966019 1.7591537269660178)"><g opacity="1" transform="translate(0 0)  rotate(0 1.759153726966019 1.7591537269660178)"><g opacity="1" transform="translate(0 0)  rotate(0 1.759153726966019 1.7591537269660178)"><g opacity="1" transform="translate(0 0)  rotate(0 1.759153726966019 1.7591537269660178)"><g opacity="1" transform="translate(0 0)  rotate(0 1.759153726966019 1.7591537269660178)"><g opacity="1" transform="translate(0 0)  rotate(0 1.759153726966019 1.7591537269660178)"><g opacity="1" transform="translate(0 0)  rotate(0 1.759153726966019 1.7591537269660178)"><path id="路径 234" fill-rule="evenodd" style="fill:#FFFFFF" transform="translate(0.00968753823271129 0.00968753823271129)  rotate(-89.6818439317482 1.7494661887333052 1.7494661887333054)" opacity="1" d="M1.75,0C0.78,0 0,0.78 0,1.75C0,2.72 0.78,3.5 1.75,3.5C2.72,3.5 3.5,2.72 3.5,1.75C3.5,0.78 2.72,0 1.75,0Z " /></g></g></g></g></g></g></g><g opacity="1" transform="translate(0 0)  rotate(0 5.4708525644871075 5.189848827621155)"><g opacity="1" transform="translate(0 0)  rotate(0 5.4708525644871075 5.189848827621155)"><g opacity="1" transform="translate(0 0)  rotate(0 5.4708525644871075 5.189848827621155)"><g opacity="1" transform="translate(0 0)  rotate(0 5.4708525644871075 5.189848827621155)"><g opacity="1" transform="translate(0 0)  rotate(0 5.4708525644871075 5.189848827621155)"><g opacity="1" transform="translate(0 0)  rotate(0 5.4708525644871075 5.189848827621155)"><g opacity="1" transform="translate(0 0)  rotate(0 5.4708525644871075 5.189848827621155)"><path id="分组 866" fill-rule="evenodd" style="fill:#062236" transform="translate(0 0)  rotate(0 5.4708525644871075 5.189848827621155)" opacity="1" d="M8.87 9.47C9.23 9.24 9.38 8.8 9.21 8.4L8.79 7.37C8.94 7.11 9.06 6.86 9.17 6.61L10.27 6.35C10.69 6.25 10.96 5.87 10.94 5.45L10.88 4.39C10.84 3.95 10.52 3.61 10.1 3.55L8.98 3.4C8.85 3.15 8.69 2.9 8.52 2.69L8.83 1.61C8.96 1.21 8.77 0.77 8.39 0.58L7.46 0.09C7.08 -0.1 6.62 0.01 6.37 0.35L5.69 1.23C5.54 1.23 5.42 1.23 5.27 1.23C5.12 1.23 5 1.25 4.85 1.27L4.07 0.45C3.77 0.16 3.31 0.09 2.95 0.33L2.07 0.89C1.71 1.13 1.56 1.57 1.73 1.97L2.15 3C2 3.26 1.88 3.51 1.77 3.76L0.68 4.01C0.25 4.12 -0.02 4.5 0 4.92L0.06 5.97C0.11 6.42 0.42 6.75 0.84 6.82L1.96 6.97C2.09 7.22 2.26 7.47 2.43 7.68L2.11 8.76C1.98 9.16 2.17 9.6 2.55 9.79L3.48 10.27C3.61 10.36 3.75 10.38 3.88 10.38C4.15 10.38 4.41 10.25 4.58 10.02L5.25 9.14C5.4 9.14 5.52 9.14 5.67 9.14C5.82 9.14 5.95 9.12 6.09 9.09L6.87 9.92C7.17 10.21 7.63 10.27 7.99 10.04L8.87 9.47Z M0.989642 5.95464L2.58964 6.16464L2.69964 6.39464C2.84964 6.71464 3.03964 7.02464 3.26964 7.28464L3.43964 7.47464L2.96964 9.00464L3.87964 9.47464L4.84964 8.18464L5.09964 8.20464C5.26964 8.23464 5.45964 8.23464 5.62964 8.23464C5.79964 8.23464 5.98964 8.18464 6.15964 8.16464L6.40964 8.10464L7.52964 9.26464L8.36964 8.71464L7.75964 7.21464L7.90964 7.00464C8.11964 6.73464 8.28964 6.41464 8.38964 6.05464L8.46964 5.80464L10.0296 5.42464L9.98964 4.41464L8.38964 4.20464L8.28964 3.97464C8.13964 3.65464 7.94964 3.34464 7.71964 3.08464L7.54964 2.89464L8.00964 1.35464L7.09964 0.89464L6.13964 2.18464L5.87964 2.15464C5.70964 2.13464 5.51964 2.13464 5.35964 2.13464C5.18964 2.13464 4.99964 2.18464 4.82964 2.20464L4.57964 2.26464L3.45964 1.10464L2.61964 1.65464L3.22964 3.15464L3.07964 3.36464C2.86964 3.63464 2.69964 3.95464 2.58964 4.30464L2.50964 4.56464L0.949642 4.94464L0.989642 5.95464Z M5.58771 7.43193C6.80771 7.36193 7.73771 6.33193 7.67771 5.11193C7.64771 4.52193 7.39771 3.99193 6.95771 3.59193C6.53771 3.19193 5.96771 3.00193 5.37771 3.02193C4.78771 3.04193 4.25771 3.30193 3.85771 3.74193C3.45771 4.16193 3.26771 4.73193 3.28771 5.32193C3.30771 5.91193 3.56771 6.44193 4.00771 6.84193C4.42771 7.22193 4.93771 7.41193 5.47771 7.41193C5.52771 7.41193 5.56771 7.41193 5.58771 7.43193Z M5.41337 3.90878C5.08336 3.92878 4.76337 4.07878 4.53337 4.32878C4.30337 4.57878 4.17337 4.91878 4.19337 5.25878C4.21337 5.59878 4.36337 5.90878 4.61337 6.13878C4.87336 6.37878 5.20337 6.49878 5.54337 6.47878C6.26336 6.43878 6.81336 5.82878 6.76336 5.12878C6.74337 4.79878 6.60336 4.47878 6.34337 4.24878C6.11337 4.01878 5.82337 3.90878 5.48337 3.90878C5.46337 3.90878 5.44337 3.90878 5.41337 3.90878Z M5.32964 1.67464L5.35964 2.13464 M5.35964 2.13464L5.32964 1.67464 " /></g></g></g></g></g></g></g></g><g opacity="1" transform="translate(17.621269564710616 11.42316173418032)  rotate(0 8.431162355341229 12.04602321519378)"><g opacity="1" transform="translate(0.4637139295437791 9.990927391079362)  rotate(0 7.967448425797461 4.120730601173025)"><g opacity="1" transform="translate(0 1.7763568394002505e-15)  rotate(0 7.967448425797461 4.120730601173025)"><g opacity="1" transform="translate(0 0)  rotate(0 7.967448425797461 4.120730601173025)"><g opacity="1" transform="translate(0 0)  rotate(0 7.967448425797461 4.120730601173025)"><g opacity="1" transform="translate(0 0)  rotate(0 7.967448425797461 4.120730601173025)"><g opacity="1" transform="translate(0 0)  rotate(0 7.967448425797461 4.120730601173025)"><g opacity="1" transform="translate(0 0)  rotate(0 7.967448425797461 4.120730601173025)"><path id="路径 239" fill-rule="evenodd" style="fill:#FFFFFF" transform="translate(0 0)  rotate(0 7.967448425797461 4.120730601173025)" opacity="1" d="M15.93,8.24L15.93,5.54C15.93,2.42 13.53,0 10.54,0L5.4,0C2.42,0 0,2.4 0,5.4L0,8.24L15.93,8.24Z " /></g></g></g></g></g></g></g><g opacity="1" transform="translate(0.4637139295437791 10.201706449962883)  rotate(0 7.999065284629989 6.945169990212338)"><g opacity="1" transform="translate(0 1.7763568394002505e-15)  rotate(0 7.999065284629989 6.945169990212338)"><g opacity="1" transform="translate(0 0)  rotate(0 7.999065284629989 6.945169990212338)"><g opacity="1" transform="translate(0 0)  rotate(0 7.999065284629989 6.945169990212338)"><g opacity="1" transform="translate(0 0)  rotate(0 7.999065284629989 6.945169990212338)"><g opacity="1" transform="translate(0 0)  rotate(0 7.999065284629989 6.945169990212338)"><g opacity="1" transform="translate(0 0)  rotate(0 7.999065284629989 6.945169990212338)"><path id="路径 240" fill-rule="evenodd" style="fill:#FDD315" transform="translate(0 0)  rotate(0 7.999065284629991 6.94516999021234)" opacity="1" d="M13.95,9.38L16,8.71L15.93,5.21C15.93,2.72 14.27,0.63 11.99,0L7.97,8.03L3.94,0C1.67,0.63 0,2.72 0,5.21L0,9.06L9.55,9.06L13.93,13.89L13.95,9.38Z " /></g></g></g></g></g></g></g><g opacity="1" transform="translate(7.398344966811933 12.962912121337142)  rotate(0 1.0328173885293002 2.6347382360441345)"><g opacity="1" transform="translate(0 1.7763568394002505e-15)  rotate(0 1.0328173885293002 2.6347382360441345)"><g opacity="1" transform="translate(0 0)  rotate(0 1.0328173885293002 2.6347382360441345)"><g opacity="1" transform="translate(0 0)  rotate(0 1.0328173885293002 2.6347382360441345)"><g opacity="1" transform="translate(0 0)  rotate(0 1.0328173885293002 2.6347382360441345)"><g opacity="1" transform="translate(0 0)  rotate(0 1.0328173885293002 2.6347382360441345)"><g opacity="1" transform="translate(0 0)  rotate(0 1.0328173885293002 2.6347382360441345)"><g opacity="1" transform="translate(0 0)  rotate(0 1.0328173885293002 2.6347382360441345)"><path id="路径 241" fill-rule="evenodd" style="fill:#54A3DA" transform="translate(0 0)  rotate(0 1.0328173885293002 2.6347382360441345)" opacity="1" d="M1.52,0L0.55,0L0,3.22L1.03,5.27L2.07,3.22L1.52,0Z " /></g></g></g></g></g></g></g></g><g opacity="1" transform="translate(6.793743382907316 10.487674357483945)  rotate(0 1.6543806507421617 1.6543806507421615)"><g opacity="1" transform="translate(0 1.7763568394002505e-15)  rotate(0 1.6543806507421617 1.6543806507421615)"><g opacity="1" transform="translate(0 0)  rotate(0 1.6543806507421617 1.6543806507421615)"><g opacity="1" transform="translate(0 0)  rotate(0 1.6543806507421617 1.6543806507421615)"><g opacity="1" transform="translate(0 0)  rotate(0 1.6543806507421617 1.6543806507421615)"><g opacity="1" transform="translate(0 0)  rotate(0 1.6543806507421617 1.6543806507421615)"><g opacity="1" transform="translate(0 0)  rotate(0 1.6543806507421617 1.6543806507421615)"><path id="路径 242" fill-rule="evenodd" style="fill:#54A3DA" transform="translate(0.4845568739385584 0.4845568739385584)  rotate(-45 1.1698237768035955 1.1698237768035955)" opacity="1" d="M0,2.34L2.34,2.34L2.34,0L0,0L0,2.34Z " /></g></g></g></g></g></g></g><g opacity="1" transform="translate(0 9.527213461535583)  rotate(0 8.431162355341229 4.584444530716794)"><g opacity="1" transform="translate(0 1.7763568394002505e-15)  rotate(0 8.431162355341229 4.584444530716794)"><g opacity="1" transform="translate(0 0)  rotate(0 8.431162355341229 4.584444530716794)"><g opacity="1" transform="translate(0 0)  rotate(0 8.431162355341229 4.584444530716794)"><g opacity="1" transform="translate(0 0)  rotate(0 8.431162355341229 4.584444530716794)"><g opacity="1" transform="translate(0 0)  rotate(0 8.431162355341229 4.584444530716794)"><g opacity="1" transform="translate(0 0)  rotate(0 8.431162355341229 4.584444530716794)"><path id="路径 243" fill-rule="evenodd" style="fill:#062236" transform="translate(0 0)  rotate(0 8.431162355341229 4.584444530716794)" opacity="1" d="M5.86,0C2.63,0 0,2.63 0,5.86L0,9.17L0.91,9.17L0.91,5.86C0.91,3.12 3.12,0.91 5.86,0.91L11,0.91C13.78,0.91 15.96,3.14 15.96,5.99L15.96,9.17L16.86,9.17L16.86,5.99C16.86,4.36 16.25,2.85 15.16,1.73C14.04,0.61 12.58,0 11,0L5.86,0Z " /></g></g></g></g></g></g></g><g opacity="1" transform="translate(3.351387036248152 16.482922404692097)  rotate(0 0.4531749765995908 1.0749732003060055)"><g opacity="1" transform="translate(0 0)  rotate(0 0.4531749765995908 1.0749732003060055)"><g opacity="1" transform="translate(0 0)  rotate(0 0.4531749765995908 1.0749732003060055)"><g opacity="1" transform="translate(0 0)  rotate(0 0.4531749765995908 1.0749732003060055)"><g opacity="1" transform="translate(0 0)  rotate(0 0.4531749765995908 1.0749732003060055)"><g opacity="1" transform="translate(0 0)  rotate(0 0.4531749765995908 1.0749732003060055)"><g opacity="1" transform="translate(0 0)  rotate(0 0.4531749765995908 1.0749732003060055)"><path id="路径 244" fill-rule="evenodd" style="fill:#FFFFFF" transform="translate(0 0)  rotate(0 0.45317497659959105 1.0749732003060066)" opacity="1" d="M0,2.15L0.91,2.15L0.91,0L0,0L0,2.15Z " /></g></g></g></g></g></g></g><g opacity="1" transform="translate(12.604587721235148 16.482922404692097)  rotate(0 0.45317497659959227 3.277614365638902)"><g opacity="1" transform="translate(0 0)  rotate(0 0.45317497659959227 3.277614365638902)"><g opacity="1" transform="translate(0 0)  rotate(0 0.45317497659959227 3.277614365638902)"><g opacity="1" transform="translate(0 0)  rotate(0 0.45317497659959227 3.277614365638902)"><g opacity="1" transform="translate(0 0)  rotate(0 0.45317497659959227 3.277614365638902)"><g opacity="1" transform="translate(0 0)  rotate(0 0.45317497659959227 3.277614365638902)"><g opacity="1" transform="translate(0 0)  rotate(0 0.45317497659959227 3.277614365638902)"><path id="路径 245" fill-rule="evenodd" style="fill:#FFFFFF" transform="translate(0 0)  rotate(0 0.45317497659959105 3.277614365638903)" opacity="1" d="M0,6.56L0.91,6.56L0.91,0L0,0L0,6.56Z " /></g></g></g></g></g></g></g><g opacity="1" transform="translate(4.046957930563796 0)  rotate(0 4.384204424777439 4.384204424777438)"><g opacity="1" transform="translate(0.44263602365542454 0.44263602365541743)  rotate(0 3.9415684011220247 3.941568401122025)"><g opacity="1" transform="translate(0 0)  rotate(0 3.9415684011220247 3.941568401122025)"><g opacity="1" transform="translate(0 0)  rotate(0 3.9415684011220247 3.941568401122025)"><g opacity="1" transform="translate(0 0)  rotate(0 3.9415684011220247 3.941568401122025)"><g opacity="1" transform="translate(0 0)  rotate(0 3.9415684011220247 3.941568401122025)"><g opacity="1" transform="translate(0 0)  rotate(0 3.9415684011220247 3.941568401122025)"><g opacity="1" transform="translate(0 0)  rotate(0 3.9415684011220247 3.941568401122025)"><path id="路径 246" fill-rule="evenodd" style="fill:#FDD315" transform="translate(0 0)  rotate(0 3.9415684011220247 3.9415684011220242)" opacity="1" d="M3.94,0C1.76,0 0,1.76 0,3.94C0,6.12 1.76,7.88 3.94,7.88C6.12,7.88 7.88,6.12 7.88,3.94C7.88,1.76 6.12,0 3.94,0Z " /></g></g></g></g></g></g></g><g opacity="1" transform="translate(0.4215581177670593 0.44263602365541743)  rotate(0 3.9415684011220247 2.3396475536071915)"><g opacity="1" transform="translate(0 0)  rotate(0 3.9415684011220247 2.3396475536071915)"><g opacity="1" transform="translate(0 0)  rotate(0 3.9415684011220247 2.3396475536071915)"><g opacity="1" transform="translate(0 0)  rotate(0 3.9415684011220247 2.3396475536071915)"><g opacity="1" transform="translate(0 0)  rotate(0 3.9415684011220247 2.3396475536071915)"><g opacity="1" transform="translate(0 0)  rotate(0 3.9415684011220247 2.3396475536071915)"><g opacity="1" transform="translate(0 0)  rotate(0 3.9415684011220247 2.3396475536071915)"><path id="路径 247" fill-rule="evenodd" style="fill:#FFFFFF" transform="translate(0 0)  rotate(0 3.9415684011220247 2.3396475536071915)" opacity="1" d="M7.82,4.68C7.86,4.45 7.88,4.19 7.88,3.94C7.88,1.77 6.11,0 3.94,0C1.77,0 0,1.77 0,3.94C0,4.19 0.02,4.45 0.06,4.68C0.44,2.87 2.04,1.5 3.96,1.5C5.88,1.5 7.48,2.87 7.82,4.68Z " /></g></g></g></g></g></g></g><g opacity="1" transform="translate(0 0)  rotate(0 4.384204424777439 4.384204424777438)"><g opacity="1" transform="translate(0 0)  rotate(0 4.384204424777439 4.384204424777438)"><g opacity="1" transform="translate(0 0)  rotate(0 4.384204424777439 4.384204424777438)"><g opacity="1" transform="translate(0 0)  rotate(0 4.384204424777439 4.384204424777438)"><g opacity="1" transform="translate(0 0)  rotate(0 4.384204424777439 4.384204424777438)"><g opacity="1" transform="translate(0 0)  rotate(0 4.384204424777439 4.384204424777438)"><g opacity="1" transform="translate(0 0)  rotate(0 4.384204424777439 4.384204424777438)"><path id="分组 940" fill-rule="evenodd" style="fill:#062236" transform="translate(0 0)  rotate(0 4.384204424777439 4.384204424777438)" opacity="1" d="M8.77 4.38C8.77 1.96 6.81 0 4.38 0C1.96 0 0 1.96 0 4.38C0 6.81 1.96 8.77 4.38 8.77C6.81 8.77 8.77 6.81 8.77 4.38Z M0.90635 4.38635C0.90635 6.30635 2.46635 7.86635 4.38635 7.86635C6.30635 7.86635 7.86635 6.30635 7.86635 4.38635C7.86635 2.46635 6.30635 0.90635 4.38635 0.90635C2.46635 0.90635 0.90635 2.46635 0.90635 4.38635Z " /></g></g></g></g></g></g></g></g></g><g opacity="1" transform="translate(13.426766292928358 17.21958585347741)  rotate(0 12.267341227021488 9.390207073261292)"><g opacity="1" transform="translate(0 0)  rotate(0 12.267341227021488 9.390207073261292)"><g opacity="1" transform="translate(0 0)  rotate(0 12.267341227021488 9.390207073261292)"><g opacity="1" transform="translate(0 0)  rotate(0 12.267341227021488 9.390207073261292)"><g opacity="1" transform="translate(0 0)  rotate(0 12.267341227021488 9.390207073261292)"><g opacity="1" transform="translate(0 0)  rotate(0 12.267341227021488 9.390207073261292)"><g opacity="1" transform="translate(0 0)  rotate(0 12.267341227021488 9.390207073261292)"><path id="路径 250" fill-rule="evenodd" style="fill:#062236" transform="translate(0 0)  rotate(0 12.26734122702149 9.390207073261292)" opacity="1" d="M19.6,13.81L23.04,13.81C23.86,13.81 24.53,13.13 24.53,12.31L24.53,0L23.63,0L23.63,12.31C23.63,12.65 23.35,12.9 23.04,12.9L19.6,12.9C18.78,12.9 18.11,13.57 18.11,14.4L18.11,17.71L14.73,13.47C14.46,13.11 14.04,12.9 13.57,12.9L1.5,12.9C1.16,12.9 0.91,12.63 0.91,12.31L0.91,0L0,0L0,12.31C0,13.13 0.67,13.81 1.5,13.81L13.55,13.81C13.74,13.81 13.91,13.87 14.02,14.02L17.56,18.46C17.73,18.68 17.96,18.78 18.19,18.78C18.3,18.78 18.38,18.76 18.46,18.74C18.8,18.63 19.01,18.34 19.01,17.98L19.01,14.4C19.01,14.06 19.29,13.81 19.6,13.81Z " /></g></g></g></g></g></g></g><g opacity="1" transform="translate(0 0)  rotate(0 8.139807410395054 8.139807410395052)"><g opacity="1" transform="translate(0 0)  rotate(0 8.139807410395054 8.139807410395052)"><g opacity="1" transform="translate(0 0)  rotate(0 8.139807410395054 8.139807410395052)"><g opacity="1" transform="translate(0 0)  rotate(0 8.139807410395054 8.139807410395052)"><g opacity="1" transform="translate(0 0)  rotate(0 8.139807410395054 8.139807410395052)"><g opacity="1" transform="translate(0 0)  rotate(0 8.139807410395054 8.139807410395052)"><g opacity="1" transform="translate(0 0)  rotate(0 8.139807410395054 8.139807410395052)"><g opacity="1" transform="translate(0 0)  rotate(0 8.139807410395054 8.139807410395052)"><g opacity="1" transform="translate(0 0)  rotate(0 8.139807410395054 8.139807410395052)"><path id="路径 251" fill-rule="evenodd" style="fill:#54A3DA" transform="translate(1.373799620233716 1.373799620233716)  rotate(-76.71420410547847 6.766007790161337 6.7660077901613365)" opacity="1" d="M6.77,0C3.03,0 0,3.03 0,6.77C0,10.5 3.03,13.53 6.77,13.53C10.5,13.53 13.53,10.5 13.53,6.77C13.53,3.03 10.5,0 6.77,0Z " /></g></g></g></g></g></g></g><g opacity="1" transform="translate(1.6989629174344811 1.698962917434481)  rotate(0 6.44084449296057 6.4408444929605695)"><g opacity="1" transform="translate(0 0)  rotate(0 6.44084449296057 6.4408444929605695)"><g opacity="1" transform="translate(0 0)  rotate(0 6.44084449296057 6.4408444929605695)"><g opacity="1" transform="translate(0 0)  rotate(0 6.44084449296057 6.4408444929605695)"><g opacity="1" transform="translate(0 0)  rotate(0 6.44084449296057 6.4408444929605695)"><g opacity="1" transform="translate(0 0)  rotate(0 6.44084449296057 6.4408444929605695)"><g opacity="1" transform="translate(0 0)  rotate(0 6.44084449296057 6.4408444929605695)"><path id="路径 252" fill-rule="evenodd" style="fill:#FFFFFF" transform="translate(1.0870563973188916 1.0870563973188923)  rotate(-76.71420410547847 5.353788095641681 5.35378809564168)" opacity="1" d="M5.35,0C2.4,0 0,2.4 0,5.35C0,8.31 2.4,10.71 5.35,10.71C8.31,10.71 10.71,8.31 10.71,5.35C10.71,2.4 8.31,0 5.35,0Z " /></g></g></g></g></g></g></g><g opacity="1" transform="translate(4.0892539843879465 4.088050485033449)  rotate(0 4.04695793056379 4.0469579305637895)"><g opacity="1" transform="translate(0 0)  rotate(0 4.04695793056379 4.0469579305637895)"><g opacity="1" transform="translate(0 0)  rotate(0 4.04695793056379 4.0469579305637895)"><g opacity="1" transform="translate(0 0)  rotate(0 4.04695793056379 4.0469579305637895)"><g opacity="1" transform="translate(0 0)  rotate(0 4.04695793056379 4.0469579305637895)"><g opacity="1" transform="translate(0 0)  rotate(0 4.04695793056379 4.0469579305637895)"><g opacity="1" transform="translate(0 0)  rotate(0 4.04695793056379 4.0469579305637895)"><path id="路径 253" fill-rule="evenodd" style="fill:#54A3DA" transform="translate(0 0)  rotate(0 4.0469579305637895 4.0469579305637895)" opacity="1" d="M4.05,0C1.81,0 0,1.81 0,4.05C0,6.28 1.81,8.09 4.05,8.09C6.28,8.09 8.09,6.28 8.09,4.05C8.09,1.81 6.28,0 4.05,0Z " /></g></g></g></g></g></g></g><g opacity="1" transform="translate(5.48039577301925 5.479192273664752)  rotate(0 2.655816141932487 2.6558161419324864)"><g opacity="1" transform="translate(0 0)  rotate(0 2.655816141932487 2.6558161419324864)"><g opacity="1" transform="translate(0 0)  rotate(0 2.655816141932487 2.6558161419324864)"><g opacity="1" transform="translate(0 0)  rotate(0 2.655816141932487 2.6558161419324864)"><g opacity="1" transform="translate(0 0)  rotate(0 2.655816141932487 2.6558161419324864)"><g opacity="1" transform="translate(0 0)  rotate(0 2.655816141932487 2.6558161419324864)"><g opacity="1" transform="translate(0 0)  rotate(0 2.655816141932487 2.6558161419324864)"><path id="路径 254" fill-rule="evenodd" style="fill:#FFFFFF" transform="translate(0 0)  rotate(0 2.6558161419324873 2.655816141932487)" opacity="1" d="M2.66,0C1.19,0 0,1.19 0,2.66C0,4.12 1.19,5.31 2.66,5.31C4.12,5.31 5.31,4.12 5.31,2.66C5.31,1.19 4.12,0 2.66,0Z " /></g></g></g></g></g></g></g><g opacity="1" transform="translate(6.829381749873846 6.828178250519348)  rotate(0 1.3068301650778908 1.3068301650778908)"><g opacity="1" transform="translate(0 0)  rotate(0 1.3068301650778908 1.3068301650778908)"><g opacity="1" transform="translate(0 0)  rotate(0 1.3068301650778908 1.3068301650778908)"><g opacity="1" transform="translate(0 0)  rotate(0 1.3068301650778908 1.3068301650778908)"><g opacity="1" transform="translate(0 0)  rotate(0 1.3068301650778908 1.3068301650778908)"><g opacity="1" transform="translate(0 0)  rotate(0 1.3068301650778908 1.3068301650778908)"><g opacity="1" transform="translate(0 0)  rotate(0 1.3068301650778908 1.3068301650778908)"><path id="路径 255" fill-rule="evenodd" style="fill:#FDD315" transform="translate(0 0)  rotate(0 1.3068301650778908 1.3068301650778904)" opacity="1" d="M1.31,0C0.59,0 0,0.59 0,1.31C0,2.03 0.59,2.61 1.31,2.61C2.03,2.61 2.61,2.03 2.61,1.31C2.61,0.59 2.03,0 1.31,0Z " /></g></g></g></g></g></g></g></g><g opacity="1" transform="translate(0.9275681011349852 0.9263646017804881)  rotate(0 7.208643813816753 7.208643813816751)"><g opacity="1" transform="translate(0 0)  rotate(0 7.208643813816753 7.208643813816751)"><g opacity="1" transform="translate(0 0)  rotate(0 7.208643813816753 7.208643813816751)"><g opacity="1" transform="translate(0 0)  rotate(0 7.208643813816753 7.208643813816751)"><g opacity="1" transform="translate(0 0)  rotate(0 7.208643813816753 7.208643813816751)"><g opacity="1" transform="translate(0 0)  rotate(0 7.208643813816753 7.208643813816751)"><g opacity="1" transform="translate(0 0)  rotate(0 7.208643813816753 7.208643813816751)"><path id="分组 992" fill-rule="evenodd" style="fill:#062236" transform="translate(0 0)  rotate(0 7.208643813816753 7.208643813816751)" opacity="1" d="M14.42 7.21C14.42 3.25 11.19 0 7.21 0C3.25 0 0 3.22 0 7.21C0 11.19 3.25 14.42 7.21 14.42C11.19 14.42 14.42 11.17 14.42 7.21Z M0.90635 7.20635C0.90635 10.6863 3.72635 13.5064 7.20635 13.5064C10.6863 13.5064 13.5064 10.6863 13.5064 7.20635C13.5064 3.72635 10.6863 0.90635 7.20635 0.90635C3.72635 0.90635 0.90635 3.72635 0.90635 7.20635Z " /></g></g></g></g></g></g></g></g></g><g opacity="1" transform="translate(7.693575891296321 14.0368220643361)  rotate(0 3.0984521655879016 2.7928225302067817)"><g opacity="1" transform="translate(0 0)  rotate(0 0.4531749765995908 0.23185696477188408)"><g opacity="1" transform="translate(0 0)  rotate(0 0.4531749765995908 0.23185696477188408)"><g opacity="1" transform="translate(0 0)  rotate(0 0.4531749765995908 0.23185696477188408)"><g opacity="1" transform="translate(0 0)  rotate(0 0.4531749765995908 0.23185696477188408)"><g opacity="1" transform="translate(0 0)  rotate(0 0.4531749765995908 0.23185696477188408)"><g opacity="1" transform="translate(0 0)  rotate(0 0.4531749765995908 0.23185696477188408)"><g opacity="1" transform="translate(0 0)  rotate(0 0.4531749765995908 0.23185696477188408)"><path id="路径 258" fill-rule="evenodd" style="fill:#062236" transform="translate(0 0)  rotate(0 0.45317497659959105 0.2318569647718838)" opacity="1" d="M0,0.46L0.91,0.46L0.91,0L0,0L0,0.46Z " /></g></g></g></g></g></g></g><g opacity="1" transform="translate(0 1.327908070966247)  rotate(0 2.43449813010478 2.1288684947236587)"><g opacity="1" transform="translate(0 0)  rotate(0 2.43449813010478 2.1288684947236587)"><g opacity="1" transform="translate(0 0)  rotate(0 2.43449813010478 2.1288684947236587)"><g opacity="1" transform="translate(0 0)  rotate(0 2.43449813010478 2.1288684947236587)"><g opacity="1" transform="translate(0 0)  rotate(0 2.43449813010478 2.1288684947236587)"><g opacity="1" transform="translate(0 0)  rotate(0 2.43449813010478 2.1288684947236587)"><g opacity="1" transform="translate(0 0)  rotate(0 2.43449813010478 2.1288684947236587)"><g opacity="1" transform="translate(0 0)  rotate(0 2.43449813010478 2.1288684947236587)"><path id="路径 259" fill-rule="evenodd" style="fill:#062236" transform="translate(4.004802118787087 3.3513870362481395)  rotate(0 0.43209707071123815 0.4531749765995907)" opacity="1" d="M0.86,0L0,0L0,0.91L0.86,0.91L0.86,0Z " /><path id="路径 260" fill-rule="evenodd" style="fill:#062236" transform="translate(2.276413835942135 3.3513870362481395)  rotate(0 0.43209707071123815 0.4531749765995907)" opacity="1" d="M0.86,0L0,0L0,0.91L0.86,0.91L0.86,0Z " /><path id="路径 261" fill-rule="evenodd" style="fill:#062236" transform="translate(0.3161685883252954 3.140607977364608)  rotate(0 0.5480255530971803 0.5585645060413561)" opacity="1" d="M1.05 0.21L1.07 0.21L1.07 1.12C0.64 1.11 0.25 0.9 0 0.53L0.72 0C0.78 0.08 0.89 0.21 1.05 0.21Z" /><path id="路径 262" fill-rule="evenodd" style="fill:#062236" transform="translate(0 1.7283882828449553)  rotate(0 0.4531749765995908 0.4320970707112374)" opacity="1" d="M0.91,0L0,0L0,0.86L0.91,0.86L0.91,0Z " /><path id="路径 263" fill-rule="evenodd" style="fill:#062236" transform="translate(0 0)  rotate(0 0.4531749765995908 0.4320970707112374)" opacity="1" d="M0.91,0L0,0L0,0.86L0.91,0.86L0.91,0Z " /></g></g></g></g></g></g></g></g><g opacity="1" transform="translate(5.7331904016320365 4.6792951072143865)  rotate(0 0.2318569647718841 0.4531749765995907)"><g opacity="1" transform="translate(-8.881784197001252e-16 -1.7763568394002505e-15)  rotate(0 0.2318569647718841 0.4531749765995907)"><g opacity="1" transform="translate(0 0)  rotate(0 0.2318569647718841 0.4531749765995907)"><g opacity="1" transform="translate(0 0)  rotate(0 0.2318569647718841 0.4531749765995907)"><g opacity="1" transform="translate(0 0)  rotate(0 0.2318569647718841 0.4531749765995907)"><g opacity="1" transform="translate(0 0)  rotate(0 0.2318569647718841 0.4531749765995907)"><g opacity="1" transform="translate(0 0)  rotate(0 0.2318569647718841 0.4531749765995907)"><path id="路径 264" fill-rule="evenodd" style="fill:#062236" transform="translate(0 0)  rotate(0 0.23185696477188383 0.453174976599591)" opacity="1" d="M0,0.91L0.46,0.91L0.46,0L0,0L0,0.91Z " /></g></g></g></g></g></g></g></g><g opacity="1" transform="translate(6.323512008553374 8.135008415597238)  rotate(0 1.8126999063983635 4.025880024675437)"><g opacity="1" transform="translate(1.3700638827429499 2.6136603301557813)  rotate(0 0.4531749765995908 2.7190498595975456)"><g opacity="1" transform="translate(0 -8.881784197001252e-16)  rotate(0 0.4531749765995908 2.7190498595975456)"><g opacity="1" transform="translate(0 0)  rotate(0 0.4531749765995908 2.7190498595975456)"><g opacity="1" transform="translate(0 0)  rotate(0 0.4531749765995908 2.7190498595975456)"><g opacity="1" transform="translate(0 0)  rotate(0 0.4531749765995908 2.7190498595975456)"><g opacity="1" transform="translate(0 0)  rotate(0 0.4531749765995908 2.7190498595975456)"><g opacity="1" transform="translate(0 0)  rotate(0 0.4531749765995908 2.7190498595975456)"><path id="路径 265" fill-rule="evenodd" style="fill:#062236" transform="translate(0 0)  rotate(0 0.45317497659959105 2.719049859597547)" opacity="1" d="M0,5.44L0.91,5.44L0.91,0L0,0L0,5.44Z " /></g></g></g></g></g></g></g><g opacity="1" transform="translate(0 0)  rotate(0 1.8126999063983635 1.5703039886823045)"><g opacity="1" transform="translate(0 0)  rotate(0 1.8126999063983635 1.5703039886823045)"><g opacity="1" transform="translate(0 0)  rotate(0 1.8126999063983635 1.5703039886823045)"><g opacity="1" transform="translate(0 0)  rotate(0 1.8126999063983635 1.5703039886823045)"><g opacity="1" transform="translate(0 0)  rotate(0 1.8126999063983635 1.5703039886823045)"><g opacity="1" transform="translate(0 0)  rotate(0 1.8126999063983635 1.5703039886823045)"><g opacity="1" transform="translate(0 0)  rotate(0 1.8126999063983635 1.5703039886823045)"><g opacity="1" transform="translate(0 0)  rotate(0 1.8126999063983635 1.5703039886823045)"><path id="路径 266" fill-rule="evenodd" style="fill:#062236" transform="translate(0 0)  rotate(0 1.8126999063983638 1.5703039886823045)" opacity="1" d="M3.63,3.14L1.81,0L0,3.14L3.63,3.14Z " /></g></g></g></g></g></g></g></g></g></g></svg>