<svg xmlns="http://www.w3.org/2000/svg" xmlns:xlink="http://www.w3.org/1999/xlink" width="37" height="37" viewBox="0 0 37 37" fill="none"><g opacity="1" transform="translate(0 0.000732421875)  rotate(0 18 18.420468983829466)"><g opacity="1" transform="translate(0.5411764705882248 8.417408555894218)  rotate(0 17.45882352941177 13.964705882352941)"><g opacity="1" transform="translate(0 0)  rotate(0 17.45882352941177 13.964705882352941)"><g opacity="1" transform="translate(0 0)  rotate(0 17.45882352941177 13.964705882352941)"><g opacity="1" transform="translate(0 0)  rotate(0 17.45882352941177 13.964705882352941)"><g opacity="1" transform="translate(0 0)  rotate(0 17.45882352941177 13.964705882352941)"><g opacity="1" transform="translate(0 0)  rotate(0 17.45882352941177 13.964705882352941)"><g opacity="1" transform="translate(0 0)  rotate(0 17.45882352941177 13.964705882352941)"><path id="路径 927" fill-rule="evenodd" style="fill:#FFFFFF" transform="translate(0 0)  rotate(0 17.45882352941177 13.964705882352941)" opacity="1" d="M0,10.47C0,20.12 7.81,27.93 17.46,27.93C27.11,27.93 34.92,20.12 34.92,10.47L34.92,3.55C34.92,1.6 33.34,0 31.36,0L28,0C26.05,0 24.45,1.58 24.45,3.55L24.45,10.47L24.45,26.33L24.45,9.69C24.45,7.08 22.33,4.96 19.72,4.96L15.22,4.96C12.61,4.96 10.49,7.08 10.49,9.69L10.49,26.47L10.49,10.45L10.47,10.45L10.47,3.55C10.47,1.6 8.89,0 6.92,0L3.55,0C1.6,0 0,1.58 0,3.55L0,10.47Z " /></g></g></g></g></g></g></g><g opacity="1" transform="translate(13.929411764705886 28.652702673541278)  rotate(0 4.058823529411766 3.8352941176470603)"><g opacity="1" transform="translate(0 0)  rotate(0 4.058823529411766 3.8352941176470603)"><g opacity="1" transform="translate(0 0)  rotate(0 4.058823529411766 3.8352941176470603)"><g opacity="1" transform="translate(0 0)  rotate(0 4.058823529411766 3.8352941176470603)"><g opacity="1" transform="translate(0 0)  rotate(0 4.058823529411766 3.8352941176470603)"><g opacity="1" transform="translate(0 0)  rotate(0 4.058823529411766 3.8352941176470603)"><g opacity="1" transform="translate(0 0)  rotate(0 4.058823529411766 3.8352941176470603)"><path id="路径 928" fill-rule="evenodd" style="fill:#54A3DA" transform="translate(0 0)  rotate(0 4.058823529411766 3.8352941176470585)" opacity="1" d="M8.12,7.2L8.12,0L0,0L0,7.2C1.29,7.51 2.66,7.67 4.05,7.67C5.44,7.67 6.8,7.51 8.12,7.2Z " /></g></g></g></g></g></g></g><g opacity="1" transform="translate(2.7294117647058886 20.53505561471775)  rotate(0 3.0352941176470614 6.588235294117648)"><g opacity="1" transform="translate(0 0)  rotate(0 3.0352941176470614 6.588235294117648)"><g opacity="1" transform="translate(0 0)  rotate(0 3.0352941176470614 6.588235294117648)"><g opacity="1" transform="translate(0 0)  rotate(0 3.0352941176470614 6.588235294117648)"><g opacity="1" transform="translate(0 0)  rotate(0 3.0352941176470614 6.588235294117648)"><g opacity="1" transform="translate(0 0)  rotate(0 3.0352941176470614 6.588235294117648)"><g opacity="1" transform="translate(0 0)  rotate(0 3.0352941176470614 6.588235294117648)"><path id="路径 929" fill-rule="evenodd" style="fill:#FDD315" transform="translate(0 0)  rotate(0 3.0352941176470614 6.588235294117648)" opacity="1" d="M6.07,0L0,0L0,6.82C1.46,9.41 3.55,11.62 6.07,13.18L6.07,0Z " /></g></g></g></g></g></g></g><g opacity="1" transform="translate(27.176470588235304 20.53505561471775)  rotate(0 3.0352941176470614 6.588235294117648)"><g opacity="1" transform="translate(0 0)  rotate(0 3.0352941176470614 6.588235294117648)"><g opacity="1" transform="translate(0 0)  rotate(0 3.0352941176470614 6.588235294117648)"><g opacity="1" transform="translate(0 0)  rotate(0 3.0352941176470614 6.588235294117648)"><g opacity="1" transform="translate(0 0)  rotate(0 3.0352941176470614 6.588235294117648)"><g opacity="1" transform="translate(0 0)  rotate(0 3.0352941176470614 6.588235294117648)"><g opacity="1" transform="translate(0 0)  rotate(0 3.0352941176470614 6.588235294117648)"><path id="路径 930" fill-rule="evenodd" style="fill:#FDD315" transform="translate(0 0)  rotate(0 3.0352941176470614 6.588235294117648)" opacity="1" d="M6.07,6.82L6.07,0L0,0L0,13.18C2.52,11.62 4.61,9.41 6.07,6.82Z " /></g></g></g></g></g></g></g><g opacity="1" transform="translate(13.353859681969563 1.712075779779351)  rotate(0 4.642335825534676 4.642335825534676)"><g opacity="1" transform="translate(0 0)  rotate(0 4.642335825534676 4.642335825534676)"><g opacity="1" transform="translate(0 0)  rotate(0 4.642335825534676 4.642335825534676)"><g opacity="1" transform="translate(0 0)  rotate(0 4.642335825534676 4.642335825534676)"><g opacity="1" transform="translate(0 0)  rotate(0 4.642335825534676 4.642335825534676)"><g opacity="1" transform="translate(0 0)  rotate(0 4.642335825534676 4.642335825534676)"><g opacity="1" transform="translate(0 0)  rotate(0 4.642335825534676 4.642335825534676)"><path id="路径 931" fill-rule="evenodd" style="fill:#FDD315" transform="translate(0.7835122961229075 0.7835122961229111)  rotate(-76.71420410547847 3.858823529411766 3.858823529411765)" opacity="1" d="M3.86,0C1.73,0 0,1.73 0,3.86C0,5.99 1.73,7.72 3.86,7.72C5.99,7.72 7.72,5.99 7.72,3.86C7.72,1.73 5.99,0 3.86,0Z " /></g></g></g></g></g></g></g><g opacity="1" transform="translate(2.7294117647058753 15.217408555894218)  rotate(0 3.0352941176470614 1.823529411764706)"><g opacity="1" transform="translate(0 0)  rotate(0 3.0352941176470614 1.823529411764706)"><g opacity="1" transform="translate(0 0)  rotate(0 3.0352941176470614 1.823529411764706)"><g opacity="1" transform="translate(0 0)  rotate(0 3.0352941176470614 1.823529411764706)"><g opacity="1" transform="translate(0 0)  rotate(0 3.0352941176470614 1.823529411764706)"><g opacity="1" transform="translate(0 0)  rotate(0 3.0352941176470614 1.823529411764706)"><g opacity="1" transform="translate(0 0)  rotate(0 3.0352941176470614 1.823529411764706)"><path id="路径 932" fill-rule="evenodd" style="fill:#FDD315" transform="translate(0 0)  rotate(0 3.03529411764706 1.823529411764706)" opacity="1" d="M0,3.65L6.07,3.65L6.07,0L0,0L0,3.65Z " /></g></g></g></g></g></g></g><g opacity="1" transform="translate(0.5411764705882248 8.535055614717745)  rotate(0 5.235294117647061 4.5058823529411764)"><g opacity="1" transform="translate(0 0)  rotate(0 5.235294117647061 4.5058823529411764)"><g opacity="1" transform="translate(0 0)  rotate(0 5.235294117647061 4.5058823529411764)"><g opacity="1" transform="translate(0 0)  rotate(0 5.235294117647061 4.5058823529411764)"><g opacity="1" transform="translate(0 0)  rotate(0 5.235294117647061 4.5058823529411764)"><g opacity="1" transform="translate(0 0)  rotate(0 5.235294117647061 4.5058823529411764)"><g opacity="1" transform="translate(0 0)  rotate(0 5.235294117647061 4.5058823529411764)"><path id="路径 933" fill-rule="evenodd" style="fill:#FDD315" transform="translate(0 0)  rotate(0 5.235294117647061 4.5058823529411764)" opacity="1" d="M2.59,0C1.11,0.42 0,1.79 0,3.41L0,9.01L10.47,9.01L10.47,3.44C10.47,1.79 9.36,0.42 7.88,0C7.11,2.64 3.36,2.64 2.59,0Z " /></g></g></g></g></g></g></g><g opacity="1" transform="translate(0.047058823529395735 7.899761497070686)  rotate(0 5.752941176470594 5.494117647058824)"><g opacity="1" transform="translate(0 0)  rotate(0 5.752941176470594 5.494117647058824)"><g opacity="1" transform="translate(0 0)  rotate(0 5.752941176470594 5.494117647058824)"><g opacity="1" transform="translate(0 0)  rotate(0 5.752941176470594 5.494117647058824)"><g opacity="1" transform="translate(0 0)  rotate(0 5.752941176470594 5.494117647058824)"><g opacity="1" transform="translate(0 0)  rotate(0 5.752941176470594 5.494117647058824)"><g opacity="1" transform="translate(0 0)  rotate(0 5.752941176470594 5.494117647058824)"><path id="路径 934" fill-rule="evenodd" style="fill:#062236" transform="translate(0 0)  rotate(0 5.752941176470594 5.494117647058824)" opacity="1" d="M10.45,4.07L10.45,10.96L11.48,10.96L11.51,10.96L11.51,4.07C11.51,1.84 9.67,0 7.44,0L4.07,0C1.84,0 0,1.84 0,4.07L0,10.99L1.04,10.99L1.04,4.07C1.04,2.42 2.38,1.06 4.05,1.06L7.44,1.06C9.08,1.06 10.45,2.4 10.45,4.07Z " /></g></g></g></g></g></g></g><g opacity="1" transform="translate(2.801669257980354 0.6990105463645571)  rotate(0 2.9694371436048184 2.969437143604818)"><g opacity="1" transform="translate(0 0)  rotate(0 2.9694371436048184 2.969437143604818)"><g opacity="1" transform="translate(0 0)  rotate(0 2.9694371436048184 2.969437143604818)"><g opacity="1" transform="translate(0 0)  rotate(0 2.9694371436048184 2.969437143604818)"><g opacity="1" transform="translate(0 0)  rotate(0 2.9694371436048184 2.969437143604818)"><g opacity="1" transform="translate(0 0)  rotate(0 2.9694371436048184 2.969437143604818)"><g opacity="1" transform="translate(0 0)  rotate(0 2.9694371436048184 2.969437143604818)"><path id="路径 935" fill-rule="evenodd" style="fill:#FFFFFF" transform="translate(0.3812018494871765 0.38120184948717095)  rotate(-80.78163644942289 2.588235294117648 2.588235294117647)" opacity="1" d="M2.59,0C1.16,0 0,1.16 0,2.59C0,4.02 1.16,5.18 2.59,5.18C4.02,5.18 5.18,4.02 5.18,2.59C5.18,1.16 4.02,0 2.59,0Z " /></g></g></g></g></g></g></g><g opacity="1" transform="translate(26.55080388831288 0)  rotate(0 3.6603174555538973 3.660317455553893)"><g opacity="1" transform="translate(0 0)  rotate(0 3.6603174555538973 3.660317455553893)"><g opacity="1" transform="translate(0 0)  rotate(0 3.6603174555538973 3.660317455553893)"><g opacity="1" transform="translate(0 0)  rotate(0 3.6603174555538973 3.660317455553893)"><g opacity="1" transform="translate(0 0)  rotate(0 3.6603174555538973 3.660317455553893)"><g opacity="1" transform="translate(0 0)  rotate(0 3.6603174555538973 3.660317455553893)"><g opacity="1" transform="translate(0 0)  rotate(0 3.6603174555538973 3.660317455553893)"><path id="路径 936" fill-rule="evenodd" style="fill:#FFFFFF" transform="translate(1.0720821614362421 1.0720821614362461)  rotate(-45 2.588235294117648 2.588235294117647)" opacity="1" d="M2.59,0C1.16,0 0,1.16 0,2.59C0,4.02 1.16,5.18 2.59,5.18C4.02,5.18 5.18,4.02 5.18,2.59C5.18,1.16 4.02,0 2.59,0Z " /></g></g></g></g></g></g></g><g opacity="1" transform="translate(2.6588235294117686 0.5585850264824515)  rotate(0 3.1058823529411748 3.1058823529411765)"><g opacity="1" transform="translate(0 0)  rotate(0 3.1058823529411748 3.1058823529411765)"><g opacity="1" transform="translate(0 0)  rotate(0 3.1058823529411748 3.1058823529411765)"><g opacity="1" transform="translate(0 0)  rotate(0 3.1058823529411748 3.1058823529411765)"><g opacity="1" transform="translate(0 0)  rotate(0 3.1058823529411748 3.1058823529411765)"><g opacity="1" transform="translate(0 0)  rotate(0 3.1058823529411748 3.1058823529411765)"><g opacity="1" transform="translate(0 0)  rotate(0 3.1058823529411748 3.1058823529411765)"><path id="分组 3360" fill-rule="evenodd" style="fill:#062236" transform="translate(0 0)  rotate(0 3.1058823529411748 3.1058823529411765)" opacity="1" d="M6.21 3.11C6.21 1.39 4.82 0 3.11 0C1.39 0 0 1.39 0 3.11C0 4.82 1.39 6.21 3.11 6.21C4.82 6.21 6.21 4.82 6.21 3.11Z M1.03529 3.10529C1.03529 4.23529 1.95529 5.17529 3.10529 5.17529C4.23529 5.17529 5.17529 4.25529 5.17529 3.10529C5.17529 1.97529 4.23529 1.03529 3.10529 1.03529C1.97529 1.03529 1.03529 1.95529 1.03529 3.10529Z " /></g></g></g></g></g></g></g><g opacity="1" transform="translate(5.199999999999994 14.887996791188336)  rotate(0 0.5764705882352916 0.5764705882352948)"><g opacity="1" transform="translate(0 0)  rotate(0 0.5764705882352916 0.5764705882352948)"><g opacity="1" transform="translate(0 0)  rotate(0 0.5764705882352916 0.5764705882352948)"><g opacity="1" transform="translate(0 0)  rotate(0 0.5764705882352916 0.5764705882352948)"><g opacity="1" transform="translate(0 0)  rotate(0 0.5764705882352916 0.5764705882352948)"><g opacity="1" transform="translate(0 0)  rotate(0 0.5764705882352916 0.5764705882352948)"><g opacity="1" transform="translate(0 0)  rotate(0 0.5764705882352916 0.5764705882352948)"><path id="路径 939" fill-rule="evenodd" style="fill:#062236" transform="translate(0 0)  rotate(0 0.5764705882352944 0.5764705882352942)" opacity="1" d="M0,1.15L1.15,1.15L1.15,0L0,0L0,1.15Z " /></g></g></g></g></g></g></g><g opacity="1" transform="translate(5.199999999999994 12.582114438247158)  rotate(0 0.5764705882352916 0.576470588235294)"><g opacity="1" transform="translate(0 0)  rotate(0 0.5764705882352916 0.576470588235294)"><g opacity="1" transform="translate(0 0)  rotate(0 0.5764705882352916 0.576470588235294)"><g opacity="1" transform="translate(0 0)  rotate(0 0.5764705882352916 0.576470588235294)"><g opacity="1" transform="translate(0 0)  rotate(0 0.5764705882352916 0.576470588235294)"><g opacity="1" transform="translate(0 0)  rotate(0 0.5764705882352916 0.576470588235294)"><g opacity="1" transform="translate(0 0)  rotate(0 0.5764705882352916 0.576470588235294)"><path id="路径 940" fill-rule="evenodd" style="fill:#062236" transform="translate(0 0)  rotate(0 0.5764705882352944 0.5764705882352942)" opacity="1" d="M0,1.15L1.15,1.15L1.15,0L0,0L0,1.15Z " /></g></g></g></g></g></g></g><g opacity="1" transform="translate(2.211764705882348 12.58211443824716)  rotate(0 0.5176470588235269 7.376470588235295)"><g opacity="1" transform="translate(0 0)  rotate(0 0.5176470588235269 7.376470588235295)"><g opacity="1" transform="translate(0 0)  rotate(0 0.5176470588235269 7.376470588235295)"><g opacity="1" transform="translate(0 0)  rotate(0 0.5176470588235269 7.376470588235295)"><g opacity="1" transform="translate(0 0)  rotate(0 0.5176470588235269 7.376470588235295)"><g opacity="1" transform="translate(0 0)  rotate(0 0.5176470588235269 7.376470588235295)"><g opacity="1" transform="translate(0 0)  rotate(0 0.5176470588235269 7.376470588235295)"><path id="路径 941" fill-rule="evenodd" style="fill:#062236" transform="translate(0 0)  rotate(0 0.5176470588235296 7.376470588235295)" opacity="1" d="M0,14.75L1.04,14.75L1.04,0L0,0L0,14.75Z " /></g></g></g></g></g></g></g><g opacity="1" transform="translate(8.282352941176471 12.582114438247155)  rotate(0 0.5176470588235269 10.564705882352943)"><g opacity="1" transform="translate(0 0)  rotate(0 0.5176470588235269 10.564705882352943)"><g opacity="1" transform="translate(0 0)  rotate(0 0.5176470588235269 10.564705882352943)"><g opacity="1" transform="translate(0 0)  rotate(0 0.5176470588235269 10.564705882352943)"><g opacity="1" transform="translate(0 0)  rotate(0 0.5176470588235269 10.564705882352943)"><g opacity="1" transform="translate(0 0)  rotate(0 0.5176470588235269 10.564705882352943)"><g opacity="1" transform="translate(0 0)  rotate(0 0.5176470588235269 10.564705882352943)"><path id="路径 942" fill-rule="evenodd" style="fill:#062236" transform="translate(0 0)  rotate(0 0.5176470588235296 10.564705882352943)" opacity="1" d="M0,21.13L1.04,21.13L1.04,0L0,0L0,21.13Z " /></g></g></g></g></g></g></g><g opacity="1" transform="translate(27.176470588235304 15.217408555894218)  rotate(0 3.0352941176470614 1.823529411764706)"><g opacity="1" transform="translate(0 0)  rotate(0 3.0352941176470614 1.823529411764706)"><g opacity="1" transform="translate(0 0)  rotate(0 3.0352941176470614 1.823529411764706)"><g opacity="1" transform="translate(0 0)  rotate(0 3.0352941176470614 1.823529411764706)"><g opacity="1" transform="translate(0 0)  rotate(0 3.0352941176470614 1.823529411764706)"><g opacity="1" transform="translate(0 0)  rotate(0 3.0352941176470614 1.823529411764706)"><g opacity="1" transform="translate(0 0)  rotate(0 3.0352941176470614 1.823529411764706)"><path id="路径 943" fill-rule="evenodd" style="fill:#FDD315" transform="translate(0 0)  rotate(0 3.03529411764706 1.823529411764706)" opacity="1" d="M0,3.65L6.07,3.65L6.07,0L0,0L0,3.65Z " /></g></g></g></g></g></g></g><g opacity="1" transform="translate(24.96470588235294 8.535055614717745)  rotate(0 5.235294117647061 4.5058823529411764)"><g opacity="1" transform="translate(0 0)  rotate(0 5.235294117647061 4.5058823529411764)"><g opacity="1" transform="translate(0 0)  rotate(0 5.235294117647061 4.5058823529411764)"><g opacity="1" transform="translate(0 0)  rotate(0 5.235294117647061 4.5058823529411764)"><g opacity="1" transform="translate(0 0)  rotate(0 5.235294117647061 4.5058823529411764)"><g opacity="1" transform="translate(0 0)  rotate(0 5.235294117647061 4.5058823529411764)"><g opacity="1" transform="translate(0 0)  rotate(0 5.235294117647061 4.5058823529411764)"><path id="路径 944" fill-rule="evenodd" style="fill:#FDD315" transform="translate(0 0)  rotate(0 5.235294117647061 4.5058823529411764)" opacity="1" d="M2.59,0C1.11,0.42 0,1.79 0,3.41L0,9.01L10.47,9.01L10.47,3.44C10.47,1.79 9.39,0.42 7.88,0C7.11,2.64 3.36,2.64 2.59,0Z " /></g></g></g></g></g></g></g><g opacity="1" transform="translate(24.49411764705881 7.899761497070686)  rotate(0 5.752941176470594 5.494117647058824)"><g opacity="1" transform="translate(0 0)  rotate(0 5.752941176470594 5.494117647058824)"><g opacity="1" transform="translate(0 0)  rotate(0 5.752941176470594 5.494117647058824)"><g opacity="1" transform="translate(0 0)  rotate(0 5.752941176470594 5.494117647058824)"><g opacity="1" transform="translate(0 0)  rotate(0 5.752941176470594 5.494117647058824)"><g opacity="1" transform="translate(0 0)  rotate(0 5.752941176470594 5.494117647058824)"><g opacity="1" transform="translate(0 0)  rotate(0 5.752941176470594 5.494117647058824)"><path id="路径 945" fill-rule="evenodd" style="fill:#062236" transform="translate(0 0)  rotate(0 5.752941176470594 5.494117647058824)" opacity="1" d="M0,10.99L1.04,10.99L1.04,4.07C1.04,2.42 2.38,1.06 4.05,1.06L7.41,1.06C9.06,1.06 10.42,2.4 10.42,4.07L10.42,10.96L11.46,10.96L11.51,10.96L11.51,4.07C11.51,1.84 9.67,0 7.44,0L4.07,0C1.84,0 0,1.84 0,4.07L0,10.99Z " /></g></g></g></g></g></g></g><g opacity="1" transform="translate(27.105882352941187 0.5585850264824506)  rotate(0 3.1058823529411748 3.1058823529411765)"><g opacity="1" transform="translate(0 0)  rotate(0 3.1058823529411748 3.1058823529411765)"><g opacity="1" transform="translate(0 0)  rotate(0 3.1058823529411748 3.1058823529411765)"><g opacity="1" transform="translate(0 0)  rotate(0 3.1058823529411748 3.1058823529411765)"><g opacity="1" transform="translate(0 0)  rotate(0 3.1058823529411748 3.1058823529411765)"><g opacity="1" transform="translate(0 0)  rotate(0 3.1058823529411748 3.1058823529411765)"><g opacity="1" transform="translate(0 0)  rotate(0 3.1058823529411748 3.1058823529411765)"><path id="分组 3417" fill-rule="evenodd" style="fill:#062236" transform="translate(0 0)  rotate(0 3.1058823529411748 3.1058823529411765)" opacity="1" d="M6.21 3.11C6.21 1.39 4.82 0 3.11 0C1.39 0 0 1.39 0 3.11C0 4.82 1.39 6.21 3.11 6.21C4.82 6.21 6.21 4.82 6.21 3.11Z M1.03529 3.10529C1.03529 4.23529 1.95529 5.17529 3.10529 5.17529C4.23529 5.17529 5.17529 4.25529 5.17529 3.10529C5.15529 1.97529 4.23529 1.03529 3.10529 1.03529C1.97529 1.03529 1.03529 1.95529 1.03529 3.10529Z " /></g></g></g></g></g></g></g><g opacity="1" transform="translate(29.623529411764714 14.887996791188336)  rotate(0 0.5764705882352916 0.5764705882352948)"><g opacity="1" transform="translate(0 0)  rotate(0 0.5764705882352916 0.5764705882352948)"><g opacity="1" transform="translate(0 0)  rotate(0 0.5764705882352916 0.5764705882352948)"><g opacity="1" transform="translate(0 0)  rotate(0 0.5764705882352916 0.5764705882352948)"><g opacity="1" transform="translate(0 0)  rotate(0 0.5764705882352916 0.5764705882352948)"><g opacity="1" transform="translate(0 0)  rotate(0 0.5764705882352916 0.5764705882352948)"><g opacity="1" transform="translate(0 0)  rotate(0 0.5764705882352916 0.5764705882352948)"><path id="路径 948" fill-rule="evenodd" style="fill:#062236" transform="translate(0 0)  rotate(0 0.5764705882352944 0.5764705882352942)" opacity="1" d="M0,1.15L1.15,1.15L1.15,0L0,0L0,1.15Z " /></g></g></g></g></g></g></g><g opacity="1" transform="translate(29.623529411764714 12.582114438247158)  rotate(0 0.5764705882352916 0.576470588235294)"><g opacity="1" transform="translate(0 0)  rotate(0 0.5764705882352916 0.576470588235294)"><g opacity="1" transform="translate(0 0)  rotate(0 0.5764705882352916 0.576470588235294)"><g opacity="1" transform="translate(0 0)  rotate(0 0.5764705882352916 0.576470588235294)"><g opacity="1" transform="translate(0 0)  rotate(0 0.5764705882352916 0.576470588235294)"><g opacity="1" transform="translate(0 0)  rotate(0 0.5764705882352916 0.576470588235294)"><g opacity="1" transform="translate(0 0)  rotate(0 0.5764705882352916 0.576470588235294)"><path id="路径 949" fill-rule="evenodd" style="fill:#062236" transform="translate(0 0)  rotate(0 0.5764705882352944 0.5764705882352942)" opacity="1" d="M0,1.15L1.15,1.15L1.15,0L0,0L0,1.15Z " /></g></g></g></g></g></g></g><g opacity="1" transform="translate(26.635294117647067 12.582114438247155)  rotate(0 0.5176470588235269 10.564705882352943)"><g opacity="1" transform="translate(0 0)  rotate(0 0.5176470588235269 10.564705882352943)"><g opacity="1" transform="translate(0 0)  rotate(0 0.5176470588235269 10.564705882352943)"><g opacity="1" transform="translate(0 0)  rotate(0 0.5176470588235269 10.564705882352943)"><g opacity="1" transform="translate(0 0)  rotate(0 0.5176470588235269 10.564705882352943)"><g opacity="1" transform="translate(0 0)  rotate(0 0.5176470588235269 10.564705882352943)"><g opacity="1" transform="translate(0 0)  rotate(0 0.5176470588235269 10.564705882352943)"><path id="路径 950" fill-rule="evenodd" style="fill:#062236" transform="translate(0 0)  rotate(0 0.5176470588235296 10.564705882352943)" opacity="1" d="M0,21.13L1.04,21.13L1.04,0L0,0L0,21.13Z " /></g></g></g></g></g></g></g><g opacity="1" transform="translate(32.72941176470589 12.58211443824716)  rotate(0 0.5176470588235269 7.435294117647059)"><g opacity="1" transform="translate(0 0)  rotate(0 0.5176470588235269 7.435294117647059)"><g opacity="1" transform="translate(0 0)  rotate(0 0.5176470588235269 7.435294117647059)"><g opacity="1" transform="translate(0 0)  rotate(0 0.5176470588235269 7.435294117647059)"><g opacity="1" transform="translate(0 0)  rotate(0 0.5176470588235269 7.435294117647059)"><g opacity="1" transform="translate(0 0)  rotate(0 0.5176470588235269 7.435294117647059)"><g opacity="1" transform="translate(0 0)  rotate(0 0.5176470588235269 7.435294117647059)"><path id="路径 951" fill-rule="evenodd" style="fill:#062236" transform="translate(0 0)  rotate(0 0.5176470588235296 7.43529411764706)" opacity="1" d="M0,14.87L1.04,14.87L1.04,0L0,0L0,14.87Z " /></g></g></g></g></g></g></g><g opacity="1" transform="translate(13.929411764705886 24.887996791188336)  rotate(0 4.058823529411766 1.2352941176470589)"><g opacity="1" transform="translate(0 0)  rotate(0 4.058823529411766 1.2352941176470589)"><g opacity="1" transform="translate(0 0)  rotate(0 4.058823529411766 1.2352941176470589)"><g opacity="1" transform="translate(0 0)  rotate(0 4.058823529411766 1.2352941176470589)"><g opacity="1" transform="translate(0 0)  rotate(0 4.058823529411766 1.2352941176470589)"><g opacity="1" transform="translate(0 0)  rotate(0 4.058823529411766 1.2352941176470589)"><g opacity="1" transform="translate(0 0)  rotate(0 4.058823529411766 1.2352941176470589)"><path id="路径 952" fill-rule="evenodd" style="fill:#54A3DA" transform="translate(0 0)  rotate(0 4.058823529411766 1.2352941176470589)" opacity="1" d="M0,2.47L8.12,2.47L8.12,0L0,0L0,2.47Z " /></g></g></g></g></g></g></g><g opacity="1" transform="translate(11.01176470588236 13.546820320600098)  rotate(0 6.988235294117647 6.023529411764705)"><g opacity="1" transform="translate(0 0)  rotate(0 6.988235294117647 6.023529411764705)"><g opacity="1" transform="translate(0 0)  rotate(0 6.988235294117647 6.023529411764705)"><g opacity="1" transform="translate(0 0)  rotate(0 6.988235294117647 6.023529411764705)"><g opacity="1" transform="translate(0 0)  rotate(0 6.988235294117647 6.023529411764705)"><g opacity="1" transform="translate(0 0)  rotate(0 6.988235294117647 6.023529411764705)"><g opacity="1" transform="translate(0 0)  rotate(0 6.988235294117647 6.023529411764705)"><path id="路径 953" fill-rule="evenodd" style="fill:#54A3DA" transform="translate(0 0)  rotate(0 6.988235294117647 6.023529411764705)" opacity="1" d="M6.99,3.53L3.46,0C1.46,0.56 0,2.4 0,4.56L0,12.05L13.98,12.05L13.98,4.56C13.95,2.38 12.49,0.56 10.52,0L6.99,3.53Z " /></g></g></g></g></g></g></g><g opacity="1" transform="translate(10.494117647058832 12.840937967658922)  rotate(0 7.517647058823529 11.011764705882351)"><g opacity="1" transform="translate(0 0)  rotate(0 7.517647058823529 11.011764705882351)"><g opacity="1" transform="translate(0 0)  rotate(0 7.517647058823529 11.011764705882351)"><g opacity="1" transform="translate(0 0)  rotate(0 7.517647058823529 11.011764705882351)"><g opacity="1" transform="translate(0 0)  rotate(0 7.517647058823529 11.011764705882351)"><g opacity="1" transform="translate(0 0)  rotate(0 7.517647058823529 11.011764705882351)"><g opacity="1" transform="translate(0 0)  rotate(0 7.517647058823529 11.011764705882351)"><path id="路径 954" fill-rule="evenodd" style="fill:#062236" transform="translate(0 0)  rotate(0 7.517647058823529 11.011764705882353)" opacity="1" d="M14,21.91L15.04,21.91L15.04,5.27C15.04,2.35 12.66,0 9.76,0L5.27,0C2.35,0 0,2.38 0,5.27L0,22.02L1.04,22.02L1.08,22.02L1.08,5.27C1.08,2.94 2.96,1.06 5.29,1.06L9.79,1.06C12.12,1.06 14,2.94 14,5.27L14,21.91Z " /></g></g></g></g></g></g></g><g opacity="1" transform="translate(12.211764705882352 0.5585850264824498)  rotate(0 5.776470588235292 5.776470588235296)"><g opacity="1" transform="translate(0 0)  rotate(0 5.776470588235292 5.776470588235296)"><g opacity="1" transform="translate(0 0)  rotate(0 5.776470588235292 5.776470588235296)"><g opacity="1" transform="translate(0 0)  rotate(0 5.776470588235292 5.776470588235296)"><g opacity="1" transform="translate(0 0)  rotate(0 5.776470588235292 5.776470588235296)"><g opacity="1" transform="translate(0 0)  rotate(0 5.776470588235292 5.776470588235296)"><g opacity="1" transform="translate(0 0)  rotate(0 5.776470588235292 5.776470588235296)"><g opacity="1" transform="translate(0 0)  rotate(0 5.776470588235292 5.776470588235295)"><path id="路径 955" fill-rule="evenodd" style="fill:#062236" transform="translate(4.6588235294117695 10.400000000000002)  rotate(0 0.5647058823529427 0.576470588235294)" opacity="1" d="M1.13,0.09C0.82,0.09 0.52,0.07 0.21,0L0,1.04C0.38,1.11 0.75,1.15 1.13,1.15L1.13,0.09Z " /><path id="路径 956" fill-rule="evenodd" style="fill:#062236" transform="translate(6.705882352941181 10.16470588235294)  rotate(0 0.647058823529412 0.6470588235294118)" opacity="1" d="M1.29,0.96L0.89,0C0.61,0.12 0.31,0.19 0,0.26L0.21,1.29C0.56,1.22 0.94,1.11 1.29,0.96Z " /><path id="路径 957" fill-rule="evenodd" style="fill:#062236" transform="translate(2.588235294117645 9.71764705882353)  rotate(0 0.7058823529411767 0.7058823529411765)" opacity="1" d="M1.41,0.45C1.13,0.33 0.85,0.16 0.59,0L0,0.87C0.31,1.08 0.64,1.27 0.99,1.41L1.41,0.45Z " /><path id="路径 958" fill-rule="evenodd" style="fill:#062236" transform="translate(8.399999999999999 9.129411764705882)  rotate(0 0.7176470588235323 0.7294117647058828)" opacity="1" d="M1.44,0.73L0.71,0C0.49,0.21 0.26,0.42 0,0.59L0.59,1.46C0.89,1.25 1.2,1.01 1.44,0.73Z " /><path id="路径 959" fill-rule="evenodd" style="fill:#062236" transform="translate(0.9647058823529377 8.423529411764704)  rotate(0 0.7294117647058813 0.7294117647058828)" opacity="1" d="M1.46,0.71C1.25,0.49 1.04,0.26 0.87,0L0,0.59C0.21,0.89 0.47,1.2 0.73,1.46L1.46,0.71Z " /><path id="路径 960" fill-rule="evenodd" style="fill:#062236" transform="translate(9.717647058823538 7.576470588235293)  rotate(0 0.7058823529411767 0.7058823529411765)" opacity="1" d="M1.41,0.4L0.45,0C0.33,0.28 0.16,0.56 0,0.82L0.87,1.41C1.08,1.11 1.25,0.78 1.41,0.4Z " /><path id="路径 961" fill-rule="evenodd" style="fill:#062236" transform="translate(0.0941176470588303 6.7058823529411775)  rotate(0 0.647058823529412 0.6470588235294118)" opacity="1" d="M1.29,0.89C1.18,0.61 1.11,0.31 1.04,0L0,0.21C0.07,0.59 0.19,0.94 0.33,1.29L1.29,0.89Z " /><path id="路径 962" fill-rule="evenodd" style="fill:#062236" transform="translate(10.423529411764715 5.764705882352942)  rotate(0 0.5647058823529361 0.576470588235294)" opacity="1" d="M1.13,0.02L1.13,0L0.09,0L0.09,0.02C0.09,0.33 0.07,0.64 0,0.94L1.04,1.15C1.11,0.78 1.13,0.4 1.13,0.02Z " /><path id="路径 963" fill-rule="evenodd" style="fill:#062236" transform="translate(0 4.658823529411764)  rotate(0 0.5764705882352916 0.5647058823529413)" opacity="1" d="M0.12 0L1.15 0.21C1.06 0.49 1.04 0.82 1.04 1.13L0 1.13C0 0.75 0.05 0.38 0.12 0Z" /><path id="路径 964" fill-rule="evenodd" style="fill:#062236" transform="translate(10.141176470588245 3.552941176470589)  rotate(0 0.647058823529412 0.6470588235294118)" opacity="1" d="M1.29,1.08C1.22,0.71 1.11,0.35 0.96,0L0,0.4C0.14,0.68 0.21,0.99 0.28,1.29L1.29,1.08Z " /><path id="路径 965" fill-rule="evenodd" style="fill:#062236" transform="translate(0.4235294117646973 2.5647058823529414)  rotate(0 0.7058823529411767 0.7058823529411765)" opacity="1" d="M1.41,0.59L0.54,0C0.33,0.33 0.14,0.66 0,1.01L0.96,1.41C1.08,1.13 1.25,0.85 1.41,0.59Z " /><path id="路径 966" fill-rule="evenodd" style="fill:#062236" transform="translate(9.129411764705889 1.6941176470588237)  rotate(0 0.729411764705888 0.7294117647058823)" opacity="1" d="M1.46,0.87C1.25,0.56 0.99,0.26 0.73,0L0,0.75C0.21,0.96 0.42,1.2 0.59,1.46L1.46,0.87Z " /><path id="路径 967" fill-rule="evenodd" style="fill:#062236" transform="translate(1.6941176470588175 0.9882352941176473)  rotate(0 0.7294117647058813 0.7294117647058823)" opacity="1" d="M1.46,0.87L0.87,0C0.56,0.21 0.26,0.47 0,0.73L0.73,1.46C0.94,1.22 1.2,1.04 1.46,0.87Z " /><path id="路径 968" fill-rule="evenodd" style="fill:#062236" transform="translate(7.5764705882352885 0.42352941176470615)  rotate(0 0.7058823529411767 0.7058823529411765)" opacity="1" d="M1.41,0.54C1.08,0.33 0.75,0.14 0.4,0L0,0.96C0.28,1.08 0.56,1.25 0.82,1.41L1.41,0.54Z " /><path id="路径 969" fill-rule="evenodd" style="fill:#062236" transform="translate(3.552941176470597 0.11764705882352944)  rotate(0 0.647058823529412 0.6470588235294118)" opacity="1" d="M1.29,1.04L1.08,0C0.71,0.07 0.35,0.19 0,0.33L0.4,1.29C0.68,1.18 0.99,1.08 1.29,1.04Z " /><path id="路径 970" fill-rule="evenodd" style="fill:#062236" transform="translate(5.764705882352942 0)  rotate(0 0.5647058823529427 0.5647058823529413)" opacity="1" d="M0 0C0.38 0 0.75 0.05 1.13 0.12L0.92 1.13C0.61 1.08 0.31 1.04 0 1.04L0 0Z" /></g></g></g></g></g></g></g></g><g opacity="1" transform="translate(13.411764705882359 19.26446737942363)  rotate(0 0.5176470588235269 8.294117647058824)"><g opacity="1" transform="translate(0 0)  rotate(0 0.5176470588235269 8.294117647058824)"><g opacity="1" transform="translate(0 0)  rotate(0 0.5176470588235269 8.294117647058824)"><g opacity="1" transform="translate(0 0)  rotate(0 0.5176470588235269 8.294117647058824)"><g opacity="1" transform="translate(0 0)  rotate(0 0.5176470588235269 8.294117647058824)"><g opacity="1" transform="translate(0 0)  rotate(0 0.5176470588235269 8.294117647058824)"><g opacity="1" transform="translate(0 0)  rotate(0 0.5176470588235269 8.294117647058824)"><path id="路径 971" fill-rule="evenodd" style="fill:#062236" transform="translate(0 0)  rotate(0 0.5176470588235296 8.294117647058824)" opacity="1" d="M0,16.59L1.04,16.59L1.04,0L0,0L0,16.59Z " /></g></g></g></g></g></g></g><g opacity="1" transform="translate(21.52941176470589 19.26446737942363)  rotate(0 0.5176470588235269 8.294117647058824)"><g opacity="1" transform="translate(0 0)  rotate(0 0.5176470588235269 8.294117647058824)"><g opacity="1" transform="translate(0 0)  rotate(0 0.5176470588235269 8.294117647058824)"><g opacity="1" transform="translate(0 0)  rotate(0 0.5176470588235269 8.294117647058824)"><g opacity="1" transform="translate(0 0)  rotate(0 0.5176470588235269 8.294117647058824)"><g opacity="1" transform="translate(0 0)  rotate(0 0.5176470588235269 8.294117647058824)"><g opacity="1" transform="translate(0 0)  rotate(0 0.5176470588235269 8.294117647058824)"><path id="路径 972" fill-rule="evenodd" style="fill:#062236" transform="translate(0 0)  rotate(0 0.5176470588235296 8.294117647058824)" opacity="1" d="M0,16.59L1.04,16.59L1.04,0L0,0L0,16.59Z " /></g></g></g></g></g></g></g><g opacity="1" transform="translate(17.45882352941177 3.5938791441295104)  rotate(0 0.5176470588235269 1.0470588235294118)"><g opacity="1" transform="translate(0 0)  rotate(0 0.5176470588235269 1.0470588235294118)"><g opacity="1" transform="translate(0 0)  rotate(0 0.5176470588235269 1.0470588235294118)"><g opacity="1" transform="translate(0 0)  rotate(0 0.5176470588235269 1.0470588235294118)"><g opacity="1" transform="translate(0 0)  rotate(0 0.5176470588235269 1.0470588235294118)"><g opacity="1" transform="translate(0 0)  rotate(0 0.5176470588235269 1.0470588235294118)"><g opacity="1" transform="translate(0 0)  rotate(0 0.5176470588235269 1.0470588235294118)"><path id="路径 973" fill-rule="evenodd" style="fill:#FFFFFF" transform="translate(0 0)  rotate(0 0.5176470588235296 1.047058823529412)" opacity="1" d="M0,2.09L1.04,2.09L1.04,0L0,0L0,2.09Z " /></g></g></g></g></g></g></g><g opacity="1" transform="translate(15.435294117647056 4.2527026735412745)  rotate(0 2.5411764705882387 2.31764705882353)"><g opacity="1" transform="translate(0 0)  rotate(0 2.5411764705882387 2.31764705882353)"><g opacity="1" transform="translate(0 0)  rotate(0 2.5411764705882387 2.31764705882353)"><g opacity="1" transform="translate(0 0)  rotate(0 2.5411764705882387 2.31764705882353)"><g opacity="1" transform="translate(0 0)  rotate(0 2.5411764705882387 2.31764705882353)"><g opacity="1" transform="translate(0 0)  rotate(0 2.5411764705882387 2.31764705882353)"><g opacity="1" transform="translate(0 0)  rotate(0 2.5411764705882387 2.31764705882353)"><path id="路径 974" fill-rule="evenodd" style="fill:#FFFFFF" transform="translate(0 0)  rotate(0 2.5411764705882387 2.31764705882353)" opacity="1" d="M5.08,2.09C5.08,1.25 4.66,0.47 3.98,0L3.39,0.87C3.79,1.15 4.02,1.6 4.02,2.09C4.02,2.92 3.36,3.58 2.54,3.58C1.72,3.58 1.06,2.92 1.06,2.09C1.06,1.6 1.29,1.15 1.69,0.87L1.11,0C0.4,0.47 0,1.27 0,2.09C0,3.51 1.15,4.64 2.54,4.64C3.95,4.64 5.08,3.48 5.08,2.09Z " /></g></g></g></g></g></g></g><g opacity="1" transform="translate(17.45882352941177 16.55858502648245)  rotate(0 0.5176470588235269 5.3882352941176475)"><g opacity="1" transform="translate(0 0)  rotate(0 0.5176470588235269 5.3882352941176475)"><g opacity="1" transform="translate(0 0)  rotate(0 0.5176470588235269 5.3882352941176475)"><g opacity="1" transform="translate(0 0)  rotate(0 0.5176470588235269 5.3882352941176475)"><g opacity="1" transform="translate(0 0)  rotate(0 0.5176470588235269 5.3882352941176475)"><g opacity="1" transform="translate(0 0)  rotate(0 0.5176470588235269 5.3882352941176475)"><g opacity="1" transform="translate(0 0)  rotate(0 0.5176470588235269 5.3882352941176475)"><path id="路径 975" fill-rule="evenodd" style="fill:#FFFFFF" transform="translate(0 0)  rotate(0 0.5176470588235296 5.3882352941176475)" opacity="1" d="M0,10.78L1.04,10.78L1.04,0L0,0L0,10.78Z " /></g></g></g></g></g></g></g><g opacity="1" transform="translate(0 18.86446737942363)  rotate(0 17.976470588235294 8.988235294117649)"><g opacity="1" transform="translate(0 0)  rotate(0 17.976470588235294 8.988235294117649)"><g opacity="1" transform="translate(0 0)  rotate(0 17.976470588235294 8.988235294117649)"><g opacity="1" transform="translate(0 0)  rotate(0 17.976470588235294 8.988235294117649)"><g opacity="1" transform="translate(0 0)  rotate(0 17.976470588235294 8.988235294117649)"><g opacity="1" transform="translate(0 0)  rotate(0 17.976470588235294 8.988235294117649)"><g opacity="1" transform="translate(0 0)  rotate(0 17.976470588235294 8.988235294117649)"><path id="路径 976" fill-rule="evenodd" style="fill:#062236" transform="translate(0 0)  rotate(0 17.976470588235294 8.988235294117649)" opacity="1" d="M5.27,12.71C6.92,14.35 8.85,15.67 10.99,16.56C13.2,17.51 15.55,17.98 17.98,17.98C20.42,17.98 22.78,17.51 24.96,16.56C27.11,15.65 29.04,14.35 30.68,12.71C32.33,11.06 33.65,9.13 34.54,6.99C35.48,4.78 35.95,2.42 35.95,0L34.92,0C34.92,9.34 27.27,16.92 17.95,16.92C8.64,16.92 1.04,9.34 1.04,0L0,0C0,2.42 0.47,4.78 1.41,6.99C2.33,9.13 3.62,11.06 5.27,12.71Z " /></g></g></g></g></g></g></g><g opacity="1" transform="translate(5.247058823529403 23.1468203206001)  rotate(0 0.5176470588235269 4.094117647058822)"><g opacity="1" transform="translate(0 0)  rotate(0 0.5176470588235269 4.094117647058822)"><g opacity="1" transform="translate(0 0)  rotate(0 0.5176470588235269 4.094117647058822)"><g opacity="1" transform="translate(0 0)  rotate(0 0.5176470588235269 4.094117647058822)"><g opacity="1" transform="translate(0 0)  rotate(0 0.5176470588235269 4.094117647058822)"><g opacity="1" transform="translate(0 0)  rotate(0 0.5176470588235269 4.094117647058822)"><g opacity="1" transform="translate(0 0)  rotate(0 0.5176470588235269 4.094117647058822)"><path id="路径 977" fill-rule="evenodd" style="fill:#062236" transform="translate(0 0)  rotate(0 0.5176470588235296 4.094117647058823)" opacity="1" d="M0,8.19L1.04,8.19L1.04,0L0,0L0,8.19Z " /></g></g></g></g></g></g></g><g opacity="1" transform="translate(29.69411764705883 23.1468203206001)  rotate(0 0.5176470588235269 4.094117647058822)"><g opacity="1" transform="translate(0 0)  rotate(0 0.5176470588235269 4.094117647058822)"><g opacity="1" transform="translate(0 0)  rotate(0 0.5176470588235269 4.094117647058822)"><g opacity="1" transform="translate(0 0)  rotate(0 0.5176470588235269 4.094117647058822)"><g opacity="1" transform="translate(0 0)  rotate(0 0.5176470588235269 4.094117647058822)"><g opacity="1" transform="translate(0 0)  rotate(0 0.5176470588235269 4.094117647058822)"><g opacity="1" transform="translate(0 0)  rotate(0 0.5176470588235269 4.094117647058822)"><path id="路径 978" fill-rule="evenodd" style="fill:#062236" transform="translate(0 0)  rotate(0 0.5176470588235296 4.094117647058823)" opacity="1" d="M0,8.19L1.04,8.19L1.04,0L0,0L0,8.19Z " /></g></g></g></g></g></g></g><g opacity="1" transform="translate(17.45882352941177 30.22917326177657)  rotate(0 0.5176470588235269 3.047058823529413)"><g opacity="1" transform="translate(0 0)  rotate(0 0.5176470588235269 3.047058823529413)"><g opacity="1" transform="translate(0 0)  rotate(0 0.5176470588235269 3.047058823529413)"><g opacity="1" transform="translate(0 0)  rotate(0 0.5176470588235269 3.047058823529413)"><g opacity="1" transform="translate(0 0)  rotate(0 0.5176470588235269 3.047058823529413)"><g opacity="1" transform="translate(0 0)  rotate(0 0.5176470588235269 3.047058823529413)"><g opacity="1" transform="translate(0 0)  rotate(0 0.5176470588235269 3.047058823529413)"><path id="路径 979" fill-rule="evenodd" style="fill:#062236" transform="translate(0 0)  rotate(0 0.5176470588235296 3.0470588235294116)" opacity="1" d="M0,6.09L1.04,6.09L1.04,0L0,0L0,6.09Z " /></g></g></g></g></g></g></g></g></svg>