<svg xmlns="http://www.w3.org/2000/svg" xmlns:xlink="http://www.w3.org/1999/xlink" width="36" height="32" viewBox="0 0 36 32" fill="none"><g opacity="1" transform="translate(0 0)  rotate(0 18 16)"><g opacity="1" transform="translate(0.49717514124289724 0.4531355360755213)  rotate(0 17.50282485875708 15.546864463924479)"><g opacity="1" transform="translate(0 0)  rotate(0 17.50282485875708 15.546864463924479)"><g opacity="1" transform="translate(0 0)  rotate(0 17.50282485875708 15.546864463924479)"><g opacity="1" transform="translate(0 0)  rotate(0 17.50282485875708 15.546864463924479)"><g opacity="1" transform="translate(0 0)  rotate(0 17.50282485875708 15.546864463924479)"><g opacity="1" transform="translate(0 0)  rotate(0 17.50282485875708 15.546864463924479)"><g opacity="1" transform="translate(0 0)  rotate(0 17.50282485875708 15.546864463924479)"><path id="路径 88" fill-rule="evenodd" style="fill:#FDD315" transform="translate(0 0)  rotate(0 17.50282485875708 15.546864463924477)" opacity="1" d="M12.56,28.5L9.08,28.5C8.38,28.5 7.82,29.04 7.82,29.71L7.82,31.09L13.81,31.09L21.15,31.09L27.14,31.09L27.14,29.71C27.14,29.04 26.58,28.5 25.88,28.5L22.4,28.5C21.69,28.5 21.13,27.96 21.13,27.3L21.13,24.86L33.69,24.86C34.44,24.86 35.01,24.32 35.01,23.65L35.01,1.21C35.01,0.54 34.44,0 33.74,0L1.27,0C0.56,0 0,0.54 0,1.21L0,23.65C0,24.32 0.56,24.86 1.27,24.86L13.83,24.86L13.83,27.3C13.83,27.96 13.27,28.5 12.56,28.5Z " /></g></g></g></g></g></g></g><g opacity="1" transform="translate(0.49717514124289724 0.47471341874578693)  rotate(0 17.50282485875708 0.5933917734322319)"><g opacity="1" transform="translate(0 0)  rotate(0 17.50282485875708 0.5933917734322319)"><g opacity="1" transform="translate(0 0)  rotate(0 17.50282485875708 0.5933917734322319)"><g opacity="1" transform="translate(0 0)  rotate(0 17.50282485875708 0.5933917734322319)"><g opacity="1" transform="translate(0 0)  rotate(0 17.50282485875708 0.5933917734322319)"><g opacity="1" transform="translate(0 0)  rotate(0 17.50282485875708 0.5933917734322319)"><g opacity="1" transform="translate(0 0)  rotate(0 17.50282485875708 0.5933917734322319)"><path id="路径 89" fill-rule="evenodd" style="fill:#FFFFFF" transform="translate(0 0)  rotate(0 17.50282485875708 0.5933917734322319)" opacity="1" d="M1.27,0C0.56,0 0,0.54 0,1.19L35.01,1.19C34.98,0.52 34.44,0 33.74,0L1.27,0Z " /></g></g></g></g></g></g></g><g opacity="1" transform="translate(2.531073446327671 21.23263654753877)  rotate(0 15.468926553672329 0.5933917734322319)"><g opacity="1" transform="translate(0 0)  rotate(0 15.468926553672329 0.5933917734322319)"><g opacity="1" transform="translate(0 0)  rotate(0 15.468926553672329 0.5933917734322319)"><g opacity="1" transform="translate(0 0)  rotate(0 15.468926553672329 0.5933917734322319)"><g opacity="1" transform="translate(0 0)  rotate(0 15.468926553672329 0.5933917734322319)"><g opacity="1" transform="translate(0 0)  rotate(0 15.468926553672329 0.5933917734322319)"><g opacity="1" transform="translate(0 0)  rotate(0 15.468926553672329 0.5933917734322319)"><path id="路径 90" fill-rule="evenodd" style="fill:#FFFFFF" transform="translate(0 0)  rotate(0 15.468926553672333 0.5933917734322319)" opacity="1" d="M0,1.19L30.94,1.19L30.94,0L0,0L0,1.19Z " /></g></g></g></g></g></g></g><g opacity="1" transform="translate(8.54237288135593 28.91436277815239)  rotate(0 9.44632768361583 0.5933917734322319)"><g opacity="1" transform="translate(0 0)  rotate(0 9.44632768361583 0.5933917734322319)"><g opacity="1" transform="translate(0 0)  rotate(0 9.44632768361583 0.5933917734322319)"><g opacity="1" transform="translate(0 0)  rotate(0 9.44632768361583 0.5933917734322319)"><g opacity="1" transform="translate(0 0)  rotate(0 9.44632768361583 0.5933917734322319)"><g opacity="1" transform="translate(0 0)  rotate(0 9.44632768361583 0.5933917734322319)"><g opacity="1" transform="translate(0 0)  rotate(0 9.44632768361583 0.5933917734322319)"><path id="路径 91" fill-rule="evenodd" style="fill:#FFFFFF" transform="translate(0 0)  rotate(0 9.446327683615829 0.5933917734322319)" opacity="1" d="M0,1.19L18.89,1.19L18.89,0L0,0L0,1.19Z " /></g></g></g></g></g></g></g><g opacity="1" transform="translate(3.050847457627096 2.9345920431557637)  rotate(0 14.949152542372904 9.149022252191502)"><g opacity="1" transform="translate(0 0)  rotate(0 14.949152542372904 9.149022252191502)"><g opacity="1" transform="translate(0 0)  rotate(0 14.949152542372904 9.149022252191502)"><g opacity="1" transform="translate(0 0)  rotate(0 14.949152542372904 9.149022252191502)"><g opacity="1" transform="translate(0 0)  rotate(0 14.949152542372904 9.149022252191502)"><g opacity="1" transform="translate(0 0)  rotate(0 14.949152542372904 9.149022252191502)"><g opacity="1" transform="translate(0 0)  rotate(0 14.949152542372904 9.149022252191502)"><path id="路径 92" fill-rule="evenodd" style="fill:#FFFFFF" transform="translate(0 0)  rotate(0 14.949152542372897 9.149022252191502)" opacity="1" d="M0,18.3L29.9,18.3L29.9,0L0,0L0,18.3Z " /></g></g></g></g></g></g></g><g opacity="1" transform="translate(0 0)  rotate(0 18 16)"><g opacity="1" transform="translate(0 0)  rotate(0 18 16)"><g opacity="1" transform="translate(0 0)  rotate(0 18 16)"><g opacity="1" transform="translate(0 0)  rotate(0 18 16)"><g opacity="1" transform="translate(0 0)  rotate(0 18 16)"><g opacity="1" transform="translate(0 0)  rotate(0 18 16)"><g opacity="1" transform="translate(0 0)  rotate(0 18 16)"><path id="分组 199" fill-rule="evenodd" style="fill:#062236" transform="translate(0 0)  rotate(0 18 16)" opacity="1" d="M22.17 27.75L22.17 25.81L34.24 25.81C35.21 25.81 36 25.05 36 24.12L36 1.68C36 0.76 35.21 0 34.24 0L1.76 0C0.79 0 0 0.76 0 1.68L0 24.12C0 25.05 0.79 25.81 1.76 25.81L13.83 25.81L13.83 27.75C13.83 28.14 13.49 28.46 13.08 28.46L9.6 28.46C8.63 28.46 7.84 29.22 7.84 30.14L7.84 32L28.16 32L28.16 30.14C28.16 29.22 27.37 28.46 26.4 28.46L22.92 28.46C22.51 28.46 22.17 28.14 22.17 27.75Z M8.83695 30.1194L8.83695 31.0294L27.1369 31.0294L27.1369 30.1194C27.1369 29.7294 26.8069 29.4094 26.3969 29.4094L22.9169 29.4094C21.9469 29.4094 21.1569 28.6594 21.1569 27.7294L21.1569 24.8194L34.2169 24.8194C34.6169 24.8194 34.9569 24.4894 34.9569 24.0994L34.9569 1.65943C34.9569 1.26943 34.6169 0.949427 34.2169 0.949427L1.76695 0.949427C1.35695 0.949427 1.01695 1.26943 1.01695 1.65943L1.01695 24.0994C1.01695 24.4894 1.35695 24.8194 1.76695 24.8194L14.827 24.8194L14.827 27.7294C14.827 28.6594 14.0369 29.4094 13.0669 29.4094L9.57695 29.4094C9.17695 29.4094 8.83695 29.7294 8.83695 30.1194Z " /></g></g></g></g></g></g></g><g opacity="1" transform="translate(2.73446327683614 6.559676331759947)  rotate(0 7.661016949152558 5.08159136884693)"><g opacity="1" transform="translate(4.926553672316379 0)  rotate(0 5.197740112994355 3.053270397842212)"><g opacity="1" transform="translate(8.881784197001252e-16 0)  rotate(0 5.197740112994355 3.053270397842212)"><g opacity="1" transform="translate(0 0)  rotate(0 5.197740112994355 3.053270397842212)"><g opacity="1" transform="translate(0 0)  rotate(0 5.197740112994355 3.053270397842212)"><g opacity="1" transform="translate(0 0)  rotate(0 5.197740112994355 3.053270397842212)"><g opacity="1" transform="translate(0 0)  rotate(0 5.197740112994355 3.053270397842212)"><g opacity="1" transform="translate(0 0)  rotate(0 5.197740112994355 3.053270397842212)"><path id="路径 95" fill-rule="evenodd" style="fill:#062236" transform="translate(0 0)  rotate(0 5.197740112994355 3.053270397842212)" opacity="1" d="M10.4,0.67L9.69,0L4.7,4.75L2.37,2.52L0,4.81L0.7,5.48L2.37,3.88L4.7,6.11L10.4,0.67Z " /></g></g></g></g></g></g></g><g opacity="1" transform="translate(0 0.021577882670262838)  rotate(0 7.661016949152558 5.0708024275118)"><g opacity="1" transform="translate(0 -1.7763568394002505e-15)  rotate(0 7.661016949152558 5.0708024275118)"><g opacity="1" transform="translate(0 0)  rotate(0 7.661016949152558 5.0708024275118)"><g opacity="1" transform="translate(0 0)  rotate(0 7.661016949152558 5.0708024275118)"><g opacity="1" transform="translate(0 0)  rotate(0 7.661016949152558 5.0708024275118)"><g opacity="1" transform="translate(0 0)  rotate(0 7.661016949152558 5.0708024275118)"><g opacity="1" transform="translate(0 0)  rotate(0 7.661016949152558 5.0708024275118)"><g opacity="1" transform="translate(0 0)  rotate(0 7.661016949152558 5.0708024275118)"><path id="路径 96" fill-rule="evenodd" style="fill:#062236" transform="translate(0 8.954821308159135)  rotate(0 0.621468926553673 0.5933917734322319)" opacity="1" d="M1.24,0.67L0.54,0L0,0.52L0.72,1.19L1.24,0.67Z " /><path id="路径 97" fill-rule="evenodd" style="fill:#062236" transform="translate(1.4011299435028115 7.487525286581256)  rotate(0 0.7005649717514181 0.668914362778151)" opacity="1" d="M1.4,0.67L0.7,0L0,0.67L0.7,1.34L1.4,0.67Z " /><path id="路径 98" fill-rule="evenodd" style="fill:#062236" transform="translate(2.9604519774011373 5.998651382333112)  rotate(0 0.7005649717514181 0.668914362778151)" opacity="1" d="M1.4,0.67L0.7,0L0,0.67L0.7,1.34L1.4,0.67Z " /><path id="路径 99" fill-rule="evenodd" style="fill:#062236" transform="translate(9.19774011299437 4.445043830074173)  rotate(0 0.7005649717514181 0.8199595414699925)" opacity="1" d="M1.4,0.67L0.7,0L0.07,0.6L0.36,0.88L0,1.23L0.43,1.64L1.4,0.67Z " /><path id="路径 100" fill-rule="evenodd" style="fill:#062236" transform="translate(4.51977401129944 4.4881995954147005)  rotate(0 0.7005649717514181 0.6797033041132843)" opacity="1" d="M1.4,0.67L0.7,0L0,0.67L0.72,1.36L1.4,0.67Z " /><path id="路径 101" fill-rule="evenodd" style="fill:#062236" transform="translate(7.661016949152545 3.5387727579231303)  rotate(0 0.7005649717514181 0.6689143627781527)" opacity="1" d="M1.4,0.67L0.7,0L0,0.67L0.7,1.34L1.4,0.67Z " /><path id="路径 102" fill-rule="evenodd" style="fill:#062236" transform="translate(6.101694915254244 2.999325691166556)  rotate(0 0.7005649717514181 0.6689143627781527)" opacity="1" d="M1.4,0.67L0.7,0L0,0.67L0.7,1.34L1.4,0.67Z " /><path id="路径 103" fill-rule="evenodd" style="fill:#062236" transform="translate(10.779661016949149 2.977747808496293)  rotate(0 0.7118644067796694 0.6689143627781527)" opacity="1" d="M1.42,0.67L0.7,0L0,0.67L0.7,1.34L1.42,0.67Z " /><path id="路径 104" fill-rule="evenodd" style="fill:#062236" transform="translate(12.361581920903953 1.4888739042481447)  rotate(0 0.7005649717514181 0.6689143627781527)" opacity="1" d="M1.4,0.67L0.7,0L0,0.67L0.7,1.34L1.4,0.67Z " /><path id="路径 105" fill-rule="evenodd" style="fill:#062236" transform="translate(13.920903954802279 0)  rotate(0 0.7005649717514181 0.6689143627781527)" opacity="1" d="M1.4,0.67L0.7,0L0,0.67L0.7,1.34L1.4,0.67Z " /></g></g></g></g></g></g></g></g></g><g opacity="1" transform="translate(3.050847457627096 5.200269723533383)  rotate(0 11.062146892655363 8.016183412002697)"><g opacity="1" transform="translate(0 0)  rotate(0 11.062146892655363 8.016183412002697)"><g opacity="1" transform="translate(0 0)  rotate(0 11.062146892655363 8.016183412002697)"><g opacity="1" transform="translate(0 0)  rotate(0 11.062146892655363 8.016183412002697)"><g opacity="1" transform="translate(0 0)  rotate(0 11.062146892655363 8.016183412002697)"><g opacity="1" transform="translate(0 0)  rotate(0 11.062146892655363 8.016183412002697)"><g opacity="1" transform="translate(0 0)  rotate(0 11.062146892655363 8.016183412002697)"><path id="路径 106" fill-rule="evenodd" style="fill:#54A3DA" transform="translate(0 0)  rotate(0 11.062146892655363 8.016183412002695)" opacity="1" d="M14.98,0C14.12,0.02 13.69,1.01 14.31,1.6L16.09,3.3L9.9,9.21L7.16,6.6L0.05,13.4L0,16.03L2.46,16.03L7.16,11.54L9.9,14.16L18.69,5.76L20.47,7.47C21.08,8.05 22.12,7.64 22.12,6.82L22.12,0.93C22.12,0.43 21.69,0 21.15,0L14.98,0Z " /></g></g></g></g></g></g></g><g opacity="1" transform="translate(16.180790960451972 23.43358057990559)  rotate(0 2.3615819209039546 0.5178691840863127)"><g opacity="1" transform="translate(0 0)  rotate(0 0.5423728813559276 0.5178691840863127)"><g opacity="1" transform="translate(0 0)  rotate(0 0.5423728813559276 0.5178691840863127)"><g opacity="1" transform="translate(0 0)  rotate(0 0.5423728813559276 0.5178691840863127)"><g opacity="1" transform="translate(0 0)  rotate(0 0.5423728813559276 0.5178691840863127)"><g opacity="1" transform="translate(0 0)  rotate(0 0.5423728813559276 0.5178691840863127)"><g opacity="1" transform="translate(0 0)  rotate(0 0.5423728813559276 0.5178691840863127)"><g opacity="1" transform="translate(0 0)  rotate(0 0.5423728813559276 0.5178691840863127)"><path id="路径 107" fill-rule="evenodd" style="fill:#FFFFFF" transform="translate(0 0)  rotate(0 0.5423728813559276 0.5178691840863127)" opacity="1" d="M0.54,0C0.25,0 0,0.24 0,0.52C0,0.8 0.25,1.04 0.54,1.04C0.84,1.04 1.08,0.8 1.08,0.52C1.08,0.24 0.84,0 0.54,0Z " /></g></g></g></g></g></g></g><g opacity="1" transform="translate(1.8079096045197716 0)  rotate(0 0.5423728813559276 0.5178691840863127)"><g opacity="1" transform="translate(0 0)  rotate(0 0.5423728813559276 0.5178691840863127)"><g opacity="1" transform="translate(0 0)  rotate(0 0.5423728813559276 0.5178691840863127)"><g opacity="1" transform="translate(0 0)  rotate(0 0.5423728813559276 0.5178691840863127)"><g opacity="1" transform="translate(0 0)  rotate(0 0.5423728813559276 0.5178691840863127)"><g opacity="1" transform="translate(0 0)  rotate(0 0.5423728813559276 0.5178691840863127)"><g opacity="1" transform="translate(0 0)  rotate(0 0.5423728813559276 0.5178691840863127)"><path id="路径 108" fill-rule="evenodd" style="fill:#FFFFFF" transform="translate(0 0)  rotate(0 0.5423728813559276 0.5178691840863127)" opacity="1" d="M0.54,0C0.25,0 0,0.24 0,0.52C0,0.8 0.25,1.04 0.54,1.04C0.84,1.04 1.08,0.8 1.08,0.52C1.08,0.24 0.84,0 0.54,0Z " /></g></g></g></g></g></g></g><g opacity="1" transform="translate(3.6384180790960485 0)  rotate(0 0.5423728813559276 0.5178691840863127)"><g opacity="1" transform="translate(0 0)  rotate(0 0.5423728813559276 0.5178691840863127)"><g opacity="1" transform="translate(0 0)  rotate(0 0.5423728813559276 0.5178691840863127)"><g opacity="1" transform="translate(0 0)  rotate(0 0.5423728813559276 0.5178691840863127)"><g opacity="1" transform="translate(0 0)  rotate(0 0.5423728813559276 0.5178691840863127)"><g opacity="1" transform="translate(0 0)  rotate(0 0.5423728813559276 0.5178691840863127)"><g opacity="1" transform="translate(0 0)  rotate(0 0.5423728813559276 0.5178691840863127)"><path id="路径 109" fill-rule="evenodd" style="fill:#FFFFFF" transform="translate(0 0)  rotate(0 0.5423728813559276 0.5178691840863127)" opacity="1" d="M0.54,0C0.25,0 0,0.24 0,0.52C0,0.8 0.25,1.04 0.54,1.04C0.84,1.04 1.08,0.8 1.08,0.52C1.08,0.24 0.84,0 0.54,0Z " /></g></g></g></g></g></g></g></g><g opacity="1" transform="translate(2.5536723163841732 2.459878624409981)  rotate(0 15.457627118644076 9.634524612272418)"><g opacity="1" transform="translate(0 0)  rotate(0 15.457627118644076 9.634524612272418)"><g opacity="1" transform="translate(0 0)  rotate(0 15.457627118644076 9.634524612272418)"><g opacity="1" transform="translate(0 0)  rotate(0 15.457627118644076 9.634524612272418)"><g opacity="1" transform="translate(0 0)  rotate(0 15.457627118644076 9.634524612272418)"><g opacity="1" transform="translate(0 0)  rotate(0 15.457627118644076 9.634524612272418)"><g opacity="1" transform="translate(0 0)  rotate(0 15.457627118644076 9.634524612272418)"><path id="分组 252" fill-rule="evenodd" style="fill:#062236" transform="translate(0 0)  rotate(0 15.457627118644076 9.634524612272418)" opacity="1" d="M30.92 19.27L30.92 0L0 0L0 19.27L30.89 19.27L30.92 19.27Z M29.8944 18.2994L29.8944 0.949427L0.99435 0.949427L0.99435 18.2994L29.8944 18.2994Z " /></g></g></g></g></g></g></g></g></svg>