<svg xmlns="http://www.w3.org/2000/svg" xmlns:xlink="http://www.w3.org/1999/xlink" width="32" height="26" viewBox="0 0 32 26" fill="none"><g opacity="1" transform="translate(0 0)  rotate(0 16 13)"><g opacity="1" transform="translate(0 0)  rotate(0 16 13)"><path id="路径 106" fill-rule="evenodd" style="fill:#F8D060" transform="translate(5.15099715099715 3.688581314878913)  rotate(0 2.3703703703703725 5.139273356401375)" opacity="1" d="M4.74,1.89L4.74,0L0,0L0,10.28L4.74,10.28L4.74,6.97L0.5,6.97L0.5,1.89L4.74,1.89Z " /><path id="路径 107" fill-rule="evenodd" style="fill:#E2746C" transform="translate(6.564102564102567 6.47750865051902)  rotate(0 3.076923076923077 1.6418685121107266)" opacity="1" d="M0,3.28L6.15,3.28L6.15,0L0,0L0,3.28Z " /><path id="路径 108" fill-rule="evenodd" style="fill:#71B9E6" transform="translate(10.8034188034188 24.628027681660896)  rotate(0 5.1965811965811985 0.24740484429065743)" opacity="1" d="M0,0.49L10.39,0.49L10.39,0L0,0L0,0.49Z " /><path id="分组 17" fill-rule="evenodd" style="fill:#71B9E6" transform="translate(0.9116809116809117 17.6332179930796)  rotate(0 15.088319088319087 1.6418685121107286)" opacity="1" d="M0.96 3.28L29.22 3.28C29.74 3.28 30.18 2.86 30.18 2.34L30.18 0L0 0L0 2.34C0 2.86 0.43 3.28 0.96 3.28Z M14.3818 1.64464C14.3818 2.02464 14.7018 2.33464 15.0918 2.33464C15.4718 2.33464 15.7918 2.02464 15.7918 1.64464C15.7918 1.25464 15.4718 0.944637 15.0918 0.944637C14.7018 0.944637 14.3818 1.25464 14.3818 1.64464Z " /><path id="路径 111" fill-rule="evenodd" style="fill:#71B9E6" transform="translate(15.042735042735044 21.816608996539784)  rotate(0 0.9572649572649576 0.9446366782006917)" opacity="1" d="M0,1.89L1.91,1.89L1.91,0L0,0L0,1.89Z " /><path id="路径 112" fill-rule="evenodd" style="fill:#F8D060" transform="translate(15.749287749287756 8.569204152249112)  rotate(0 0.25071225071225073 0.24740484429065743)" opacity="1" d="M0,0.49L0.5,0.49L0.5,0L0,0L0,0.49Z " /><path id="分组 18" fill-rule="evenodd" style="fill:#FFFFFF" transform="translate(0.9116809116809117 0.8996539792387543)  rotate(0 15.088319088319087 7.916955017301047)" opacity="1" d="M0.96 0C0.43 0 0 0.43 0 0.94L0 15.83L30.18 15.83L30.18 0.94C30.18 0.43 29.74 0 29.22 0L0.96 0Z M12.7176 4.67927L9.88764 4.67927L9.88764 1.88927L3.32764 1.88927L3.32764 13.9493L9.88764 13.9493L9.88764 9.75927L12.7176 9.75927L12.7176 4.67927Z M14.3859 12.122C14.3859 12.502 14.6959 12.822 15.0859 12.822C15.4759 12.822 15.7959 12.502 15.7959 12.122C15.7959 11.902 15.7059 11.722 15.5459 11.582L15.5459 11.092C16.6159 12.822 18.5559 13.972 20.7359 13.972C22.9259 13.972 24.8659 12.802 25.9359 11.092L25.9359 11.582C25.7759 11.722 25.6859 11.922 25.6859 12.122C25.6859 12.502 26.0059 12.822 26.3959 12.822C26.7759 12.822 27.0959 12.502 27.0959 12.122C27.0959 11.902 27.0059 11.722 26.8459 11.582L26.8459 9.06204L27.5559 9.06204L27.5559 6.79204L26.8459 6.79204L26.8459 4.27204C27.0059 4.14204 27.0959 3.93204 27.0959 3.73204C27.0959 3.35204 26.7759 3.03204 26.3959 3.03204C26.0059 3.03204 25.6859 3.35204 25.6859 3.73204C25.6859 3.96204 25.7759 4.14204 25.9359 4.27204L25.9359 4.77204C25.4359 3.96204 24.7559 3.28204 23.9359 2.79204L24.4359 2.79204C24.5659 2.94204 24.7759 3.03204 24.9759 3.03204C25.3659 3.03204 25.6859 2.72204 25.6859 2.34204C25.6859 1.95204 25.3659 1.64204 24.9759 1.64204C24.7559 1.64204 24.5659 1.73204 24.4359 1.89204L21.8759 1.89204L21.8759 1.19204L19.5559 1.19204L19.5559 1.89204L17.0259 1.89204C16.8859 1.73204 16.6859 1.64204 16.4759 1.64204C16.0959 1.64204 15.7759 1.95204 15.7759 2.34204C15.7759 2.72204 16.0959 3.03204 16.4759 3.03204C16.7059 3.03204 16.8859 2.94204 17.0259 2.79204L17.5259 2.79204C16.7259 3.26204 16.0459 3.93204 15.5459 4.74204L15.5459 4.25204C15.7059 4.11204 15.7959 3.91204 15.7959 3.71204C15.7959 3.33204 15.4759 3.01204 15.0859 3.01204C14.6959 3.01204 14.3859 3.33204 14.3859 3.71204C14.3859 3.93204 14.4759 4.11204 14.6359 4.25204L14.6359 6.77204L13.9259 6.77204L13.9259 9.06204L14.6359 9.06204L14.6359 11.582C14.4759 11.722 14.3859 11.922 14.3859 12.122Z " /><path id="路径 116" fill-rule="evenodd" style="fill:#F8D060" transform="translate(27.054131054131055 8.569204152249112)  rotate(0 0.25071225071225073 0.24740484429065743)" opacity="1" d="M0,0.49L0.5,0.49L0.5,0L0,0L0,0.49Z " /><path id="路径 117" fill-rule="evenodd" style="fill:#FFFFFF" transform="translate(16.59259259259258 3.823529411764705)  rotate(0 5.059829059829064 5.060553633218005)" opacity="1" d="M3.9,0.56L3.9,0C1.96,0.43 0.43,1.93 0,3.85L0.57,3.85L0.57,6.14L0,6.14C0.52,8.41 2.6,10.12 5.06,10.12C7.52,10.12 9.6,8.41 10.12,6.14L9.55,6.14L9.55,3.85L10.12,3.85C9.69,1.93 8.16,0.43 6.22,0L6.22,0.56L3.9,0.56Z " /><path id="路径 118" fill-rule="evenodd" style="fill:#F8D060" transform="translate(21.4017094017094 2.991349480968847)  rotate(0 0.25071225071225073 0.24740484429065743)" opacity="1" d="M0,0.49L0.5,0.49L0.5,0L0,0L0,0.49Z " /><path id="分组 19" fill-rule="evenodd" style="fill:#222B33" transform="translate(0 0)  rotate(0 16 13)" opacity="1" d="M22.11 26L22.11 23.71L17.87 23.71L17.87 21.82L30.13 21.82C31.16 21.82 32 20.98 32 19.97L32 1.84C32 0.83 31.16 0 30.13 0L1.87 0C0.84 0 0 0.83 0 1.84L0 19.97C0 20.98 0.84 21.82 1.87 21.82L14.13 21.82L14.13 23.71L9.89 23.71L9.89 26L22.11 26Z M10.8034 24.628L10.8034 25.118L21.1934 25.118L21.1934 24.628L10.8034 24.628Z M16.9527 23.7291L16.9527 21.8391L15.0427 21.8391L15.0427 23.7291L16.9527 23.7291Z M31.0917 17.6332L0.911681 17.6332L0.911681 19.9732C0.911681 20.4932 1.34168 20.9132 1.87168 20.9132L30.1317 20.9132C30.6517 20.9132 31.0917 20.4932 31.0917 19.9732L31.0917 17.6332Z M31.0917 1.83965C31.0917 1.32965 30.6517 0.899654 30.1317 0.899654L1.87168 0.899654C1.34168 0.899654 0.911681 1.32965 0.911681 1.83965L0.911681 16.7297L31.0917 16.7297L31.0917 1.83965Z " /><path id="路径 124" fill-rule="evenodd" style="fill:#222B33" transform="translate(15.293447293447286 18.577854671280253)  rotate(0 0.7065527065527119 0.6972318339100396)" opacity="1" d="M1.41,0.7C1.41,0.31 1.09,0 0.71,0C0.32,0 0,0.31 0,0.7C0,1.1 0.32,1.39 0.71,1.39C1.09,1.39 1.41,1.08 1.41,0.7Z " /><path id="分组 20" fill-rule="evenodd" style="fill:#222B33" transform="translate(14.837606837606831 2.091695501730093)  rotate(0 6.814814814814823 6.387543252595162)" opacity="1" d="M12.01 3.58C11.51 2.77 10.83 2.09 10.01 1.6L10.51 1.6C10.64 1.75 10.83 1.84 11.05 1.84C11.44 1.84 11.76 1.53 11.76 1.15C11.76 0.76 11.44 0.45 11.05 0.45C10.85 0.45 10.64 0.54 10.51 0.7L7.95 0.7L7.95 0L5.63 0L5.63 0.7L3.1 0.7C2.96 0.54 2.78 0.45 2.55 0.45C2.17 0.45 1.85 0.76 1.85 1.15C1.85 1.53 2.17 1.84 2.55 1.84C2.76 1.84 2.96 1.75 3.1 1.6L3.6 1.6C2.78 2.09 2.1 2.77 1.62 3.55L1.62 3.06C1.78 2.92 1.87 2.74 1.87 2.52C1.87 2.14 1.55 1.82 1.16 1.82C0.77 1.82 0.46 2.14 0.46 2.52C0.46 2.72 0.55 2.92 0.71 3.06L0.71 5.58L0 5.58L0 7.87L0.71 7.87L0.71 10.39C0.55 10.53 0.46 10.71 0.46 10.93C0.46 11.31 0.77 11.63 1.16 11.63C1.55 11.63 1.87 11.31 1.87 10.93C1.87 10.73 1.78 10.53 1.62 10.39L1.62 9.9C2.69 11.61 4.63 12.78 6.81 12.78C9 12.78 10.94 11.63 12.01 9.9L12.01 10.39C11.85 10.53 11.76 10.71 11.76 10.93C11.76 11.31 12.08 11.63 12.47 11.63C12.85 11.63 13.17 11.31 13.17 10.93C13.17 10.73 13.08 10.53 12.92 10.39L12.92 7.87L13.63 7.87L13.63 5.58L12.92 5.58L12.92 3.08C13.08 2.95 13.17 2.77 13.17 2.54C13.17 2.16 12.85 1.84 12.47 1.84C12.08 1.84 11.76 2.16 11.76 2.54C11.76 2.74 11.85 2.95 12.01 3.08L12.01 3.58Z M1.41168 6.47751L0.911681 6.47751L0.911681 6.96751L1.41168 6.96751L1.41168 6.47751Z M6.5641 1.38965L7.0641 1.38965L7.0641 0.899654L6.5641 0.899654L6.5641 1.38965Z M11.305 5.58183L11.875 5.58183C11.445 3.66183 9.91499 2.16183 7.97499 1.73183L7.97499 2.29183L5.65499 2.29183L5.65499 1.73183C3.71499 2.16183 2.18499 3.66183 1.75499 5.58183L2.32499 5.58183L2.32499 7.87183L1.75499 7.87183C2.27499 10.1418 4.35499 11.8518 6.81499 11.8518C9.27499 11.8518 11.355 10.1418 11.875 7.87183L11.305 7.87183L11.305 5.58183Z M12.7165 6.47751L12.2165 6.47751L12.2165 6.96751L12.7165 6.96751L12.7165 6.47751Z " /><path id="分组 21" fill-rule="evenodd" style="fill:#222B33" transform="translate(4.239316239316231 2.7889273356401585)  rotate(0 4.695156695156698 6.027681660899655)" opacity="1" d="M0 0L0 12.06L6.56 12.06L6.56 7.87L9.39 7.87L9.39 2.79L6.56 2.79L6.56 0L0 0Z M5.65168 7.89215L1.41168 7.89215L1.41168 2.81215L5.65168 2.81215L5.65168 0.922145L0.911681 0.922145L0.911681 11.1821L5.65168 11.1821L5.65168 7.89215Z M2.32479 3.68858L2.32479 6.96858L8.47479 6.96858L8.47479 3.68858L2.32479 3.68858Z " /></g></g></svg>