<svg xmlns="http://www.w3.org/2000/svg" xmlns:xlink="http://www.w3.org/1999/xlink" width="28" height="28" viewBox="0 0 28 28" fill="none"><defs><rect id="path_0" x="0" y="0" width="28" height="28" /></defs><g opacity="1" transform="translate(0 0)  rotate(0 14 14)"><mask id="bg-mask-0" fill="white"><use xlink:href="#path_0"></use></mask><g mask="url(#bg-mask-0)" ><path  id="路径 1" style="stroke:#333333; stroke-width:2.3333333333333335; stroke-opacity:1; stroke-dasharray:0 0" transform="translate(2.3333333333333335 4.666666666666667)  rotate(0 11.666666666666668 10.011808333333335)" d="M23.33,6.42C23.33,2.87 20.46,0 16.92,0C14.75,0 12.83,1.08 11.67,2.73C10.51,1.08 8.59,0 6.42,0C2.87,0 0,2.87 0,6.42C0,12.83 7.58,18.67 11.67,20.02C12.36,19.79 13.16,19.43 14.01,18.96 " /><path  id="路径 2" style="stroke:#AC8EE3; stroke-width:2.3333333333333335; stroke-opacity:1; stroke-dasharray:0 0" transform="translate(22.39897916666667 15.039931204946235)  rotate(0 0.0005 3.1892354617204317)" d="M0,0L0,6.38 " /><path  id="路径 3" style="stroke:#AC8EE3; stroke-width:2.3333333333333335; stroke-opacity:1; stroke-dasharray:0 0" transform="translate(19.209743704946238 18.229166666666668)  rotate(0 3.1892354617204317 0.0005)" d="M6.38,0L0,0 " /></g></g></svg>