<svg xmlns="http://www.w3.org/2000/svg" xmlns:xlink="http://www.w3.org/1999/xlink" width="28" height="28" viewBox="0 0 28 28" fill="none"><defs><rect id="path_0" x="0" y="0" width="28" height="28" /></defs><g opacity="1" transform="translate(0 0)  rotate(0 14 14)"><mask id="bg-mask-0" fill="white"><use xlink:href="#path_0"></use></mask><g mask="url(#bg-mask-0)" ><path  id="路径 1" style="stroke:#AC8EE3; stroke-width:2.6666666666666665; stroke-opacity:1; stroke-dasharray:0 0" transform="translate(3.394043333333334 3.9242524999999997)  rotate(0 2.1212158333333333 2.121207083333333)" d="M0,0L0,4.24L4.24,4.24 " /><path  id="路径 2" style="stroke:#333333; stroke-width:2.6666666666666665; stroke-opacity:1; stroke-dasharray:0 0" transform="translate(2.3333333333333344 2.3333333333333344)  rotate(0 11.666666666666666 11.666666666666666)" d="M11.67,23.33Z M0,11.67C0,18.11 5.22,23.33 11.67,23.33 M11.67,23.33C18.11,23.33 23.33,18.11 23.33,11.67C23.33,5.22 18.11,0 11.67,0C7.35,0 3.58,2.35 1.56,5.83 " /><path  id="路径 3" style="stroke:#AC8EE3; stroke-width:2.6666666666666665; stroke-opacity:1; stroke-dasharray:0 0" transform="translate(14.002216666666666 7)  rotate(0 2.4731583333333327 5.975725)" d="M0,0L0,7.01L4.95,11.95 " /></g></g></svg>