<svg xmlns="http://www.w3.org/2000/svg" xmlns:xlink="http://www.w3.org/1999/xlink" width="28" height="28" viewBox="0 0 28 28" fill="none"><defs><rect id="path_0" x="0" y="0" width="28" height="28" /></defs><g opacity="1" transform="translate(0 0)  rotate(0 14 14)"><mask id="bg-mask-0" fill="white"><use xlink:href="#path_0"></use></mask><g mask="url(#bg-mask-0)" ><path id="路径 1" fill-rule="evenodd" style="fill:#AC8EE3" transform="translate(21 9.333333333333334)  rotate(0 2.3333333333333335 4.666666666666667)" opacity="1" d="M4.67,4.67C4.67,2.09 2.58,0 0,0L0,9.33C2.58,9.33 4.67,7.24 4.67,4.67Z " /><path  id="路径 2" style="stroke:#AC8EE3; stroke-width:2.3333333333333335; stroke-opacity:1; stroke-dasharray:0 0" transform="translate(21 9.333333333333334)  rotate(0 2.3333333333333335 4.666666666666667)" d="M0,9.33Z M0,9.33C2.58,9.33 4.67,7.24 4.67,4.67C4.67,2.09 2.58,0 0,0 " /><path id="路径 3" fill-rule="evenodd" style="fill:#AC8EE3" transform="translate(2.3333333333333335 9.333333333333334)  rotate(0 2.3333333333333335 4.666666666666667)" opacity="1" d="M0,4.67C0,7.24 2.09,9.33 4.67,9.33L4.67,0C2.09,0 0,2.09 0,4.67Z " /><path  id="路径 4" style="stroke:#AC8EE3; stroke-width:2.3333333333333335; stroke-opacity:1; stroke-dasharray:0 0" transform="translate(2.3333333333333335 9.333333333333334)  rotate(0 2.3333333333333335 4.666666666666667)" d="M4.67,9.33Z M4.67,0C2.09,0 0,2.09 0,4.67C0,7.24 2.09,9.33 4.67,9.33 " /><path  id="路径 5" style="stroke:#333333; stroke-width:2.3333333333333335; stroke-opacity:1; stroke-dasharray:0 0" transform="translate(7 2.3333333333333335)  rotate(0 7 11.666666666666668)" d="M0,16.33L0,16.04L0,14.58L0,11.67L0,7C0,3.13 3.13,0 7,0C10.87,0 14,3.13 14,7L14,16.33C14,20.2 10.87,23.33 7,23.33 " /></g></g></svg>