<svg xmlns="http://www.w3.org/2000/svg" xmlns:xlink="http://www.w3.org/1999/xlink" width="28" height="28" viewBox="0 0 28 28" fill="none"><defs><rect id="path_0" x="0" y="0" width="28" height="28" /></defs><g opacity="1" transform="translate(0 0)  rotate(0 14 14)"><mask id="bg-mask-0" fill="white"><use xlink:href="#path_0"></use></mask><g mask="url(#bg-mask-0)" ><path  id="路径 1" style="stroke:#333333; stroke-width:2.3333333333333335; stroke-opacity:1; stroke-dasharray:0 0" transform="translate(4.666666666666667 2.3333333333333335)  rotate(0 9.333333333333334 11.666666666666668)" d="M1.17,23.33L17.5,23.33C18.14,23.33 18.67,22.81 18.67,22.17L18.67,1.17C18.67,0.86 18.55,0.56 18.33,0.34C18.11,0.12 17.81,0 17.5,0L1.17,0C0.86,0 0.56,0.12 0.34,0.34C0.12,0.56 0,0.86 0,1.17L0,22.17C0,22.81 0.53,23.33 1.17,23.33Z " /><path  id="路径 2" style="stroke:#AC8EE3; stroke-width:2.3333333333333335; stroke-opacity:1; stroke-dasharray:0 0" transform="translate(9.333333333333334 2.3333333333333335)  rotate(0 2.625 4.666666666666667)" d="M0,9.33L2.63,7L5.25,9.33L5.25,0L0,0L0,9.33Z " /><path  id="路径 3" style="stroke:#AC8EE3; stroke-width:2.3333333333333335; stroke-opacity:1; stroke-dasharray:0 0" transform="translate(9.333333333333334 16.333333333333336)  rotate(0 2.916666666666667 0)" d="M0,0L5.83,0 " /><path  id="路径 4" style="stroke:#AC8EE3; stroke-width:2.3333333333333335; stroke-opacity:1; stroke-dasharray:0 0" transform="translate(9.333333333333334 19.833333333333336)  rotate(0 4.666666666666667 0)" d="M0,0L9.33,0 " /></g></g></svg>