<svg xmlns="http://www.w3.org/2000/svg" xmlns:xlink="http://www.w3.org/1999/xlink" width="28" height="28" viewBox="0 0 28 28" fill="none"><defs><rect id="path_0" x="0" y="0" width="28" height="28" /></defs><g opacity="1" transform="translate(0 0)  rotate(0 14 14)"><mask id="bg-mask-0" fill="white"><use xlink:href="#path_0"></use></mask><g mask="url(#bg-mask-0)" ><path  id="路径 1" style="stroke:#333333; stroke-width:2.67; stroke-opacity:1; stroke-dasharray:0 0" transform="translate(4.666666666666723 2.333333333333319)  rotate(0 9.333333333333332 11.666666666666666)" d="M1.17,0C0.52,0 0,0.52 0,1.17L0,22.17C0,22.81 0.52,23.33 1.17,23.33L17.5,23.33C18.14,23.33 18.67,22.81 18.67,22.17L18.67,1.17C18.67,0.52 18.14,0 17.5,0L1.17,0Z " /><path  id="路径 2" style="stroke:#3BBDC4; stroke-width:2.67; stroke-opacity:1; stroke-dasharray:0 0" transform="translate(9.916666666666723 17.5)  rotate(0 4.083333333333333 0.5)" d="M0,0L8.17,0 " /><path  id="路径 3" style="stroke:#3BBDC4; stroke-width:2.67; stroke-opacity:1; stroke-dasharray:0 0" transform="translate(9.916666666666723 21)  rotate(0 2.0416666666666665 0.5)" d="M0,0L4.08,0 " /><path  id="路径 4" style="stroke:#3BBDC4; stroke-width:2.67; stroke-opacity:1; stroke-dasharray:0 0" transform="translate(10.5 7.583333333333319)  rotate(0 3.5 2.333333333333333)" d="M7,0L2.33,4.67L0,2.33 " /></g></g></svg>