<svg xmlns="http://www.w3.org/2000/svg" xmlns:xlink="http://www.w3.org/1999/xlink" width="28" height="28" viewBox="0 0 28 28" fill="none"><defs><rect id="path_0" x="0" y="0" width="28" height="28" /></defs><g opacity="1" transform="translate(0 0)  rotate(0 14 14)"><mask id="bg-mask-0" fill="white"><use xlink:href="#path_0"></use></mask><g mask="url(#bg-mask-0)" ><path  id="路径 1" style="stroke:#333333; stroke-width:2.3333333333333335; stroke-opacity:1; stroke-dasharray:0 0" transform="translate(3.5 3.5)  rotate(0 10.5 2.3333333333333335)" d="M0,4.67L10.5,0L21,4.67 " /><path  id="路径 2" style="stroke:#3BBDC4; stroke-width:2.3333333333333335; stroke-opacity:1; stroke-dasharray:0 0" transform="translate(3.5 8.166666666666664)  rotate(0 5.25 2.3333333333333335)" d="M0,0L10.5,4.67 " /><path  id="路径 3" style="stroke:#333333; stroke-width:2.3333333333333335; stroke-opacity:1; stroke-dasharray:0 0" transform="translate(3.5 8.166666666666664)  rotate(0 5.25 8.166666666666668)" d="M0,0L0,11.67L10.5,16.33 " /><path  id="路径 4" style="stroke:#3BBDC4; stroke-width:2.3333333333333335; stroke-opacity:1; stroke-dasharray:0 0" transform="translate(14 8.166666666666664)  rotate(0 5.25 2.3333333333333335)" d="M10.5,0L0,4.67 " /><path  id="路径 5" style="stroke:#333333; stroke-width:2.3333333333333335; stroke-opacity:1; stroke-dasharray:0 0" transform="translate(14 8.166666666666664)  rotate(0 5.25 8.166666666666668)" d="M10.5,0L10.5,11.67L0,16.33 " /><path  id="路径 6" style="stroke:#3BBDC4; stroke-width:2.3333333333333335; stroke-opacity:1; stroke-dasharray:0 0" transform="translate(14 12.833333333333329)  rotate(0 0.2916666666666667 5.833333333333334)" d="M0,0L0,11.67 " /></g></g></svg>