<svg xmlns="http://www.w3.org/2000/svg" xmlns:xlink="http://www.w3.org/1999/xlink" width="28" height="28" viewBox="0 0 28 28" fill="none"><defs><rect id="path_0" x="0" y="0" width="28" height="28" /></defs><g opacity="1" transform="translate(0 0)  rotate(0 14 14)"><mask id="bg-mask-0" fill="white"><use xlink:href="#path_0"></use></mask><g mask="url(#bg-mask-0)" ><path  id="路径 1" style="stroke:#333333; stroke-width:2.67; stroke-opacity:1; stroke-dasharray:0 0" transform="translate(9.916666666666723 3.5)  rotate(0 4.083333333333333 4.083333333333333)" d="M8.17,4.08C8.17,1.83 6.34,0 4.08,0C1.83,0 0,1.83 0,4.08C0,6.34 1.83,8.17 4.08,8.17C6.34,8.17 8.17,6.34 8.17,4.08Z " /><path  id="路径 2" style="stroke:#3BBDC4; stroke-width:2.67; stroke-opacity:1; stroke-dasharray:0 0" transform="translate(5.25 4.232013333333336)  rotate(0 0.98945 3.425718333333333)" d="M1.75,0C0.69,0.74 0,1.96 0,3.35C0,4.84 0.79,6.14 1.98,6.85 " /><path  id="路径 3" style="stroke:#3BBDC4; stroke-width:2.67; stroke-opacity:1; stroke-dasharray:0 0" transform="translate(21 4.232013333333336)  rotate(0 0.875 3.351430833333333)" d="M0,0C1.06,0.74 1.75,1.96 1.75,3.35C1.75,4.74 1.06,5.97 0,6.7 " /><path  id="路径 4" style="stroke:#333333; stroke-width:2.67; stroke-opacity:1; stroke-dasharray:0 0" transform="translate(7 16.333333333333318)  rotate(0 7 4.083333333333333)" d="M14,8.17L14,7C14,4.83 14,3.74 13.64,2.88C13.17,1.74 12.26,0.83 11.12,0.36C10.26,0 9.17,0 7,0C4.83,0 3.74,0 2.88,0.36C1.74,0.83 0.83,1.74 0.36,2.88C0,3.74 0,4.83 0,7L0,8.17L14,8.17Z " /><path  id="路径 5" style="stroke:#3BBDC4; stroke-width:2.67; stroke-opacity:1; stroke-dasharray:0 0" transform="translate(23.118549999999914 16.84205833333333)  rotate(0 1.274029166666666 3.829000000000001)" d="M2.55,7.66L2.55,6.96C2.55,4.34 2.55,3.04 2.04,2.04C1.59,1.16 0.88,0.45 0,0 " /><path  id="路径 6" style="stroke:#3BBDC4; stroke-width:2.67; stroke-opacity:1; stroke-dasharray:0 0" transform="translate(2.33338583333339 16.84205833333333)  rotate(0 1.2740204166666664 3.829000000000001)" d="M0,7.66L0,6.96C0,4.34 0,3.04 0.51,2.04C0.96,1.16 1.67,0.45 2.55,0 " /></g></g></svg>