<svg xmlns="http://www.w3.org/2000/svg" xmlns:xlink="http://www.w3.org/1999/xlink" width="28" height="28" viewBox="0 0 28 28" fill="none"><defs><rect id="path_0" x="0" y="0" width="28" height="28" /></defs><g opacity="1" transform="translate(0 0)  rotate(0 14 14)"><mask id="bg-mask-0" fill="white"><use xlink:href="#path_0"></use></mask><g mask="url(#bg-mask-0)" ><path  id="路径 1" style="stroke:#333333; stroke-width:2.3333333333333335; stroke-opacity:1; stroke-dasharray:0 0" transform="translate(5.833333333333334 4.666666666666667)  rotate(0 8.75 10.5)" d="M4.67,0L0.58,0C0.26,0 0,0.26 0,0.58L0,20.42C0,20.74 0.26,21 0.58,21L16.92,21C17.24,21 17.5,20.74 17.5,20.42L17.5,0.58C17.5,0.26 17.24,0 16.92,0L12.83,0 " /><path  id="路径 2" style="stroke:#3BBDC4; stroke-width:2.3333333333333335; stroke-opacity:1; stroke-dasharray:0 0" transform="translate(10.5 1.75)  rotate(0 4.083333333333334 3.2083333333333335)" d="M2.33,1.75L2.33,2.89C2.33,2.9 2.32,2.92 2.3,2.92L0,2.92L0,5.83C0,6.16 0.26,6.42 0.58,6.42L7.58,6.42C7.91,6.42 8.17,6.16 8.17,5.83L8.17,2.92L5.86,2.92C5.85,2.92 5.83,2.9 5.83,2.89L5.83,1.75C5.83,0.78 5.05,0 4.08,0C3.12,0 2.33,0.78 2.33,1.75Z " /></g></g></svg>