<svg xmlns="http://www.w3.org/2000/svg" xmlns:xlink="http://www.w3.org/1999/xlink" width="28" height="28" viewBox="0 0 28 28" fill="none"><defs><rect id="path_0" x="0" y="0" width="28" height="28" /></defs><g opacity="1" transform="translate(0 0)  rotate(0 14 14)"><mask id="bg-mask-0" fill="white"><use xlink:href="#path_0"></use></mask><g mask="url(#bg-mask-0)" ><path  id="路径 1" style="stroke:#333333; stroke-width:2.6666666666666665; stroke-opacity:1; stroke-dasharray:0 0" transform="translate(5.25 4.666666666666665)  rotate(0 8.75 10.5)" d="M1.33,21L16.17,21C16.9,21 17.5,20.4 17.5,19.67L17.5,1.33C17.5,0.6 16.9,0 16.17,0L1.33,0C0.6,0 0,0.6 0,1.33L0,19.67C0,20.4 0.6,21 1.33,21Z " /><path  id="路径 2" style="stroke:#AC8EE3; stroke-width:2.6666666666666665; stroke-opacity:1; stroke-dasharray:0 0" transform="translate(10.5 2.3333333333333344)  rotate(0 0.5 1.75)" d="M0,0L0,3.5 " /><path  id="路径 3" style="stroke:#AC8EE3; stroke-width:2.6666666666666665; stroke-opacity:1; stroke-dasharray:0 0" transform="translate(17.5 2.3333333333333344)  rotate(0 0.5 1.75)" d="M0,0L0,3.5 " /><path  id="路径 4" style="stroke:#AC8EE3; stroke-width:2.6666666666666665; stroke-opacity:1; stroke-dasharray:0 0" transform="translate(9.333333333333334 11.08333333333333)  rotate(0 4.666666666666666 0.5)" d="M0,0L9.33,0 " /><path  id="路径 5" style="stroke:#AC8EE3; stroke-width:2.6666666666666665; stroke-opacity:1; stroke-dasharray:0 0" transform="translate(9.333333333333334 15.75)  rotate(0 3.5 0.5)" d="M0,0L7,0 " /><path  id="路径 6" style="stroke:#AC8EE3; stroke-width:2.6666666666666665; stroke-opacity:1; stroke-dasharray:0 0" transform="translate(9.333333333333334 20.416666666666668)  rotate(0 2.333333333333333 0.5)" d="M0,0L4.67,0 " /></g></g></svg>